<?xml version="1.0" standalone="no"?>
<!DOCTYPE svg PUBLIC "-//W3C//DTD SVG 1.1//EN" "http://www.w3.org/Graphics/SVG/1.1/DTD/svg11.dtd" >
<svg xmlns="http://www.w3.org/2000/svg" xmlns:xlink="http://www.w3.org/1999/xlink" version="1.1">
<metadata>
Created by FontForge 20170731 at Thu Nov 27 18:56:29 2014
 By Aleksey,,,
</metadata>
<defs>
<font id="Fantazyor" horiz-adv-x="583" >
  <font-face 
    font-family="Fantazyor"
    font-weight="400"
    font-stretch="normal"
    units-per-em="1000"
    panose-1="2 0 0 0 0 0 0 0 0 0"
    ascent="750"
    descent="-250"
    x-height="636"
    cap-height="649"
    bbox="-0.0322581 -141.75 919 773.5"
    underline-thickness="50"
    underline-position="-150"
    unicode-range="U+000D-201D"
  />
<missing-glyph horiz-adv-x="500" 
 />
    <glyph glyph-name=".notdef" horiz-adv-x="500" 
 />
    <glyph glyph-name=".null" horiz-adv-x="0" 
 />
    <glyph glyph-name="nonmarkingreturn" unicode="&#xd;" horiz-adv-x="500" 
 />
    <glyph glyph-name="NULL" horiz-adv-x="0" 
 />
    <glyph glyph-name="NULL" horiz-adv-x="0" 
 />
    <glyph glyph-name="space" unicode=" " horiz-adv-x="292" 
 />
    <glyph glyph-name="exclam" unicode="!" horiz-adv-x="304" 
d="M4 537q2 15 3 30.5t3 31.5q3 38 39 49q19 5 37.5 10t37.5 3q23 -2 46.5 -8t46.5 -14q26 -8 38.5 -27.5t12.5 -45.5q0 -22 -1 -43.5t-6 -42.5q-14 -59 -14.5 -117t10.5 -116q5 -28 -1.5 -48t-21 -31.5t-34 -13.5t-41.5 7q-11 5 -23 6t-24 3q-24 2 -43.5 13t-37.5 25
q-11 8 -14.5 19.5t-4.5 22.5q-2 36 -3.5 85.5t-2.5 94t-1.5 76zM18 33q1 16 14.5 25t33 13t41.5 3t40 -5q11 -2 21 -4t21 -5q16 -5 24 -14.5t8 -21.5q0 -14 -8.5 -27t-22.5 -18q-5 -2 -9.5 -3t-9.5 0q-20 1 -47 4t-51 9.5t-40 16.5t-15 27z" />
    <glyph glyph-name="numbersign" unicode="#" horiz-adv-x="602" 
d="M529 326q30 -6 30 -31q-2 -32 -33 -35q-24 -2 -48 -3.5t-48 -1.5q-13 -39 -23.5 -67.5t-18.5 -57.5q22 1 41 0t34 -6q20 -9 28.5 -18.5t7.5 -23.5q0 -20 -12.5 -30.5t-34.5 -9.5q-19 1 -40 2t-43 3q-8 -29 -16.5 -55.5t-17.5 -40.5q-14 -17 -25 -22.5t-25 -0.5
q-20 6 -26.5 21t0.5 36q5 14 11 31t13 37q-55 4 -108 6q-7 -20 -12.5 -40.5t-11.5 -40.5q-6 -19 -15 -35q-14 -27 -38 -18q-14 5 -20.5 15.5t-2.5 26.5q5 23 10.5 47t13.5 47q-17 1 -33 1.5t-33 2.5q-16 2 -24 11.5t-9 23.5q-1 25 29 31q19 3 38 3q14 0 27 -0.5t27 -0.5
q8 25 14.5 52.5t14.5 56.5q-21 -2 -40 -2.5t-36 -1.5q-22 -1 -34.5 8.5t-13.5 30.5q0 14 8.5 23.5t28.5 18.5q17 5 46.5 6t61.5 -1q8 32 15.5 60.5t13.5 49.5t19.5 30t33.5 3q14 -5 20 -15.5t9 -32.5q0 -17 -7.5 -43.5t-18.5 -55.5q13 0 25.5 1t26 2t30 2t39.5 1q2 6 3 11.5
t3 10.5q7 24 15 47.5t17 46.5q6 15 17 20.5t25 1.5q25 -6 22 -36q-1 -10 -3 -19.5t-4 -18.5q-5 -16 -10 -31t-10 -31q10 0 19.5 0.5t19.5 0.5q20 0 38 -3zM196 132q21 0 34.5 -0.5t25.5 -1l24 -1t29 -1.5q11 31 22.5 63t21.5 62q-29 -1 -61 -2.5t-64 -3.5q-9 -27 -16 -54
t-16 -61z" />
    <glyph glyph-name="dollar" unicode="$" horiz-adv-x="508" 
d="M341 628q45 -5 74.5 -30.5t51.5 -62.5q5 -10 9 -22t3 -23q-1 -23 -3.5 -39t-4.5 -30q-2 -13 -13.5 -29.5t-18.5 -22.5q-33 -30 -68 -47.5t-81 -15.5q-8 0 -14.5 -3.5t-5.5 -11.5q-1 -14 1 -21t12 -10q16 -4 38 -4q17 -1 35.5 -1t35.5 -1q39 -2 64 -29q15 -18 11 -33.5
t-27 -19.5q-50 -8 -96 -5q-24 1 -37 0t-18.5 -7t-6 -18.5t-0.5 -36.5v-31.5t-2 -30.5q-2 -25 -13 -35.5t-36 -12.5q-36 -2 -71 3q-24 4 -47.5 9.5t-46.5 9.5q-17 3 -26 12.5t-13 24.5q-3 12 -5 24t-2 23l-4 108l-4 108q-1 48 -1.5 95.5t-1.5 95.5q-1 14 -1 28.5t-2 28.5
q-2 29 6.5 41.5t35.5 24.5q13 6 51.5 7t84.5 -0.5t90 -4.5t67 -5zM260 459q2 -14 3 -28.5t3 -28.5q2 -11 8 -14t17 -1q39 8 68.5 36t37.5 68q2 10 -2.5 23t-17 24.5t-32 19t-47.5 7.5q-21 0 -30 -6.5t-9 -27.5q0 -9 0.5 -21.5t0.5 -23.5v-19v-8z" />
    <glyph glyph-name="percent" unicode="%" horiz-adv-x="711" 
d="M371 151q-14 -30 -27.5 -60.5t-27.5 -60.5q-6 -15 -16 -23.5t-27 -9.5q-32 -2 -64 -2t-64 8q-24 7 -32 20t0 37q13 40 30 81q30 75 60.5 150t60.5 151q14 37 26.5 74t23.5 75q6 21 19 30.5t33 11.5q14 1 32 2t34.5 2t29.5 1.5t18 0.5q30 -2 46 -8.5t21 -18.5t1 -28.5
t-14 -36.5q-15 -29 -30 -57t-28 -57q-8 -17 -13.5 -36t-10.5 -37q-6 -22 -11.5 -43.5t-16.5 -42.5q-3 -6 -10 -22.5t-15 -36t-16 -37.5zM486 256q26 13 53 16q25 3 51.5 -7t47.5 -28t33.5 -41t9.5 -47q-2 -20 -7.5 -41.5t-15 -40.5t-23.5 -33.5t-32 -20.5q-59 -18 -94.5 -12
t-55.5 26t-26 49t-5.5 57t5 49t7.5 26q10 20 22.5 30t29.5 18zM560 193q-15 3 -28 -1t-22.5 -13t-14.5 -21.5t-2 -27.5q2 -11 6.5 -22t10.5 -21q7 -12 18.5 -14.5t23.5 5.5q12 4 23.5 20.5t15.5 36t-2 36.5t-29 22zM235 505q-2 -14 -11 -34.5t-17 -40.5q-9 -24 -27 -33
t-41 -7q-41 2 -70 22.5t-46 56.5q-7 16 -10.5 34t-5.5 35q-1 13 0 27t6 25q9 18 17.5 30.5t21 19.5t29.5 8.5t42 -4.5q50 -11 74 -32t33 -43.5t7.5 -41t-2.5 -22.5zM111 478q13 -5 23.5 0.5t17 15.5t10 21.5t2.5 17.5q-2 14 -4.5 21.5t-15.5 11.5t-24 2t-13 -4
q-16 -15 -18.5 -30t1.5 -27t11 -20t10 -9z" />
    <glyph glyph-name="ampersand" unicode="&#x26;" horiz-adv-x="658" 
d="M4 208q2 62 22.5 109t62.5 85q11 11 22 18q8 5 18 9t13 11q3 8 -1 13t-13 19t-11.5 33t1.5 33q7 26 35.5 41.5t59.5 19.5q38 4 74 3t72 -15q31 -13 37.5 -34.5t-14.5 -47.5q-20 -25 -40 -48.5t-41 -46.5q-19 -19 -6 -42q24 -48 54.5 -90t62.5 -84q13 -16 30 -3
q9 8 17.5 16t17.5 16q13 11 25 22t26 21q12 9 22.5 4.5t12.5 -18.5q3 -28 -6 -51q-8 -16 -16 -23t-22 -24q-6 -8 -17 -22t-14 -22t0.5 -16t10.5 -14t16.5 -9t18.5 -1q5 1 9 2t9 3t9 3.5t9 2.5q17 3 35.5 -8t22.5 -25q2 -10 -7.5 -24t-23.5 -20q-20 -8 -42 -6q-23 1 -44 9
t-41 21q-13 9 -22.5 13t-18.5 4t-18.5 -4.5t-21.5 -13.5q-9 -6 -17.5 -13t-17.5 -12q-35 -14 -75 -17.5t-78.5 4t-73.5 26t-59 47.5q-5 6 -9.5 12t-9.5 11q-27 27 -37 59t-8 64zM199 266q-4 -21 -1.5 -45.5t14 -44.5t33 -33.5t56.5 -13.5q17 0 28 4t17 15q1 3 0 10
t-3.5 13.5t-5.5 12t-4 7.5l-87 114q-2 4 -6.5 7t-8.5 2q-2 0 -6.5 -3.5t-10 -10t-10 -15.5t-5.5 -19zM233 460q12 0 29 12.5t25 29.5q5 10 0 25t-16 21q-15 8 -30 3t-20 -13q-4 -6 -6.5 -18t-2.5 -23q0 -10 4.5 -23.5t16.5 -13.5z" />
    <glyph glyph-name="quotesingle" unicode="'" horiz-adv-x="833" 
 />
    <glyph glyph-name="parenleft" unicode="(" horiz-adv-x="333" 
d="M78 618q13 33 35.5 62t49.5 53q5 5 9.5 8t9.5 6q37 21 56 -4q12 -14 12.5 -33.5t-12.5 -31.5q-42 -39 -69.5 -81.5t-44.5 -95.5q-2 -5 -8 -30.5t-13.5 -57t-13 -60.5t-5.5 -39q0 -20 0.5 -47t6.5 -47q10 -34 23 -69.5t32 -64.5q6 -9 15.5 -24.5t20.5 -32t22 -32.5t19 -25
q5 -5 9 -11.5t5 -13.5q2 -20 -12.5 -32t-34.5 -6q-5 2 -10 5t-10 7q-23 20 -44.5 49t-38.5 58.5t-29.5 53.5t-16.5 33q-21 44 -28.5 93.5t-6 98.5t10 96.5t19.5 88.5t23 73.5t19 52.5z" />
    <glyph glyph-name="parenright" unicode=")" horiz-adv-x="344" 
d="M172 113q-10 -24 -23 -47l-26 -46q-7 -12 -14 -24.5t-16 -23.5t-19.5 -20.5t-21.5 -18.5q-8 -7 -18 -8t-17 7q-6 6 -9.5 15.5t-1.5 17.5q3 17 9.5 32.5t14.5 29.5q11 21 23.5 41.5t23.5 41.5q29 54 44.5 111t27.5 116q2 7 2.5 14t1.5 14q7 63 -5 134.5t-53 131.5
q-14 20 -29 38t-31 36q-18 22 -17 49q1 12 7.5 17t17.5 0q14 -8 28.5 -16t27.5 -19q25 -21 44.5 -47t33.5 -55q29 -61 49.5 -124t21.5 -132q0 -4 -5 -33.5t-14.5 -70t-23.5 -84.5t-33 -77z" />
    <glyph glyph-name="asterisk" unicode="*" horiz-adv-x="354" 
d="M101 318q1 5 -8.5 18.5t-21 28t-20 24.5t-6.5 8q2 -3 -3 2.5t-12.5 15t-14.5 20.5t-10 19t-2.5 18t4.5 17q7 10 17 8t18 -7q18 -12 34.5 -28.5t30.5 -31.5q12 -12 19 -20.5t15 -17.5q4 -4 7 -7.5t8 -3.5q5 1 10.5 5.5t9.5 9.5q11 13 20 26.5t19 27.5q5 5 9.5 10.5
t9.5 10.5q19 16 40 4q11 -6 14.5 -16t-1.5 -21q-10 -25 -28 -49q-9 -11 -19.5 -21t-20.5 -21l-7.5 -7.5t-5.5 -8.5q-1 -5 3.5 -9.5t8.5 -9.5q8 -11 16.5 -21t14.5 -21q7 -12 12.5 -25.5t7.5 -27.5q3 -18 -11 -26.5t-30 0.5q-7 3 -12 8l-10 10q-2 2 -8 13t-12.5 23t-12.5 21
t-9 8q-3 -2 -10 -12t-14.5 -22.5t-14.5 -24t-9 -14.5q-10 -12 -25.5 -16t-26.5 2q-12 6 -17 19.5t2 29.5q6 14 15 26.5t18 25.5q5 7 11 14t8 16z" />
    <glyph glyph-name="plus" unicode="+" horiz-adv-x="458" 
d="M111 392q21 3 32 5.5t16.5 9t6 18.5t-0.5 33q-2 14 -0.5 28.5t3.5 28.5q3 26 20.5 33t38.5 -8q11 -8 19.5 -17.5t10.5 -23.5t1.5 -28.5t1.5 -28.5q2 -20 4 -30.5t8 -15t17.5 -5t32.5 1.5q6 0 12.5 1t11.5 -1q11 -3 21 -6.5t19 -8.5q13 -8 11.5 -22t-15.5 -20
q-10 -4 -20 -6.5t-21 -3.5q-33 -2 -51.5 -5t-27.5 -11.5t-10 -25.5t2 -47v-9q-1 -17 -7.5 -29t-16.5 -15q-7 -2 -15.5 -0.5t-17 5t-15 9t-9.5 12.5q-7 20 -8.5 39.5t-6.5 39.5q-4 18 -7.5 22t-22.5 6l-36 4t-35 4q-16 2 -28 8.5t-22 17.5q-2 2 -3.5 7.5t-1 12t4.5 11.5t14 6
q11 2 21.5 1.5t21.5 -0.5q9 0 18 1q8 0 15.5 0.5t13.5 1.5z" />
    <glyph glyph-name="comma" unicode="," horiz-adv-x="211" 
d="M92 -29q-3 4 -17.5 7t-24.5 8q-20 9 -31.5 24.5t-13.5 38.5q-1 8 -0.5 16.5t0.5 16.5q1 26 9 42t20 25t27.5 12t32.5 3q20 -2 35 -13q22 -17 36 -41.5t19 -52t0.5 -56t-18.5 -53.5q-7 -11 -14 -21.5t-15 -21.5q-14 -22 -37 -16q-13 4 -16 14.5t-2 21.5q0 5 2 12t4.5 13.5
t3.5 12.5t0 8z" />
    <glyph glyph-name="hyphen" unicode="-" horiz-adv-x="289" 
d="M113 307q-14 0 -26.5 -0.5t-26.5 0.5h-14t-14 2q-11 2 -20 7.5t-9 19.5q-1 11 7.5 16.5t17.5 7.5q12 2 23.5 3.5t23.5 3.5q24 2 47.5 3t47.5 3q13 2 24 -1q20 -4 27.5 -11t7.5 -20q0 -27 -35 -31q-8 -2 -14.5 -2h-14.5q-7 0 -15.5 -0.5t-16.5 -0.5h-20z" />
    <glyph glyph-name="period" unicode="." horiz-adv-x="198" 
d="M131 48q-1 -37 -25.5 -56t-56.5 -7q-18 7 -29.5 24t-15 37t1.5 39.5t20 31.5q8 5 19 7.5t21 1.5q27 -4 46 -27.5t19 -50.5z" />
    <glyph glyph-name="slash" unicode="/" horiz-adv-x="365" 
d="M307 708q0 -13 -4.5 -31.5t-11.5 -40t-15.5 -43t-15.5 -40.5q-9 -22 -19.5 -56t-19.5 -67t-16 -58t-8 -29q-22 -69 -44 -138.5t-44 -139.5q-7 -22 -12.5 -43.5t-12.5 -43.5q-6 -19 -15 -35q-14 -27 -39 -18q-13 5 -19.5 15.5t-2.5 26.5q5 24 11 48.5t14 48.5
q23 69 43 138.5t36 141.5q2 10 9.5 36t18.5 60.5t23 75t24 79t22.5 72t16.5 55.5q12 45 53 33q14 -4 20 -14.5t8 -32.5z" />
    <glyph glyph-name="zero" unicode="0" horiz-adv-x="523" 
d="M472 251q-5 -19 -8.5 -40t-9 -42.5t-15.5 -42t-26 -39.5q-12 -14 -21.5 -29t-23.5 -26q-34 -25 -71.5 -30.5t-79.5 5.5q-54 13 -95 44t-71 76q-9 13 -15 27.5t-11 28.5q-20 51 -19 103t12 104q8 35 17.5 69t26.5 67q16 31 42 51t55 29t58 7t53 -14q14 -8 29 -12t29 -11
q41 -20 64.5 -53.5t42.5 -71.5q22 -45 29.5 -94t7.5 -106zM249 522q-22 -2 -40.5 -3.5t-34.5 -17.5q-30 -29 -35 -63t5.5 -66t32.5 -57.5t46 -37.5q8 -4 19 -4q42 -5 74.5 11.5t57.5 48.5q6 8 8 18q2 32 -3 63.5t-22 60.5q-19 32 -48 40.5t-60 6.5z" />
    <glyph glyph-name="one" unicode="1" horiz-adv-x="508" 
d="M171 477q-5 1 -13.5 -4t-19 -12.5t-21 -15.5t-19.5 -13q-13 -8 -28 -7.5t-28.5 6.5t-24 17.5t-13.5 26.5q-2 10 4 18q8 9 15.5 18t16.5 17q23 18 46 34.5t45 34.5q17 14 34.5 22.5t38.5 9.5q42 2 83.5 3.5t83.5 0.5q77 0 79 -82q0 -19 -2.5 -37.5t-4.5 -38.5l-4 -52
l-4 -52q-2 -29 -2 -57.5t-2 -57.5q-2 -54 -4.5 -108t-4.5 -108q-1 -27 -10.5 -38t-36.5 -14q-32 -4 -60.5 4.5t-54.5 22.5q-36 19 -54.5 27.5t-26 20t-6.5 31t3 60.5q3 66 4.5 132t3.5 132v16.5t-1.5 18.5t-4 16t-7.5 8z" />
    <glyph glyph-name="two" unicode="2" horiz-adv-x="539" 
d="M386 591q24 -9 40.5 -28.5t26.5 -41.5t14 -43t2 -33q-8 -69 -35 -116t-60 -77t-64 -47t-45 -26q-17 -11 -31.5 -20.5t-27.5 -23.5q-6 -7 -7 -15.5t2.5 -17t10 -15t15.5 -9.5q7 -3 14 -3q40 -2 79 -4.5t79 -3.5q19 0 36 -3t33 -14q20 -14 19 -28.5t-23 -24.5
q-17 -9 -37 -9q-14 -1 -28.5 -1t-28.5 3q-45 -1 -87 1t-85 4q-55 2 -80.5 32t-18.5 84q7 52 38 84t78 50q32 13 61.5 30.5t55.5 41.5q25 24 31.5 53t7.5 61q0 13 -8.5 19t-21.5 3q-8 -2 -15.5 -6.5t-12.5 -10.5q-9 -9 -17.5 -19.5t-13.5 -22.5q-13 -29 -39 -46.5t-57 -22
t-64 4t-59 29.5q-25 20 -38.5 36t-17 33t4 36.5t24.5 46.5q29 47 80 75t105 29q54 2 90.5 -3.5t74.5 -20.5z" />
    <glyph glyph-name="three" unicode="3" horiz-adv-x="460" 
d="M221 348q-10 -2 -22.5 -3t-25.5 -2q-18 -2 -32.5 4.5t-24.5 23.5q-13 25 13 35q9 5 22 7q30 5 47 24t29 43q9 17 1 31.5t-28 15.5q-48 3 -83 -30q-5 -4 -8 -8.5t-8 -9.5q-22 -25 -52 -13q-28 10 -36 42q-2 12 7 22q20 26 44.5 45t59.5 24q42 5 79.5 4t72.5 -24
q8 -5 13.5 -15.5t8 -23t2 -25.5t-4.5 -23q-5 -13 -8 -21t-10 -20q-13 -21 -11 -27.5t26 -14.5q11 -3 20.5 -6t20.5 -7q24 -9 42 -25.5t30 -37.5t17 -44.5t3 -46.5q-4 -63 -30 -108.5t-65 -74.5t-85 -42t-91 -10q-24 1 -54.5 19t-54.5 55t-35.5 93t2.5 133q2 11 9.5 15.5
t18.5 6.5q14 2 25.5 -3.5t21.5 -14.5q7 -7 13 -14t13 -15q29 -35 61 -45.5t83 7.5q10 3 18.5 10t16.5 13q12 11 22 23t3 29q-7 16 -22.5 20.5t-31.5 6.5q-9 1 -19 1t-23 1z" />
    <glyph glyph-name="four" unicode="4" horiz-adv-x="541" 
d="M199 296q-1 23 -9 30.5t-33 7.5q-11 0 -21.5 -1t-21.5 -1q-101 1 -96 102q2 20 -0.5 40.5t-4.5 40.5q-1 9 -2.5 18.5t-2.5 19.5t-1 21t11 17q26 14 51 -2q14 -9 23.5 -22t11.5 -32q2 -20 3.5 -40.5t3.5 -40.5q1 -12 8 -20.5t16.5 -13t21 -4t21.5 7.5q5 3 7.5 9t3.5 11
q2 25 3.5 50t1.5 50q1 31 9.5 43.5t38.5 21.5q24 8 48.5 12.5t50.5 3.5h11t10 0.5t12.5 1t18.5 -0.5q12 -1 26.5 -6t27 -14t20 -23t5.5 -33q-8 -71 -7.5 -141t8.5 -140q6 -46 3 -91t-9 -90q-2 -19 -11 -36l-18 -34q-5 -7 -14 -12.5t-17 -6.5q-31 -2 -62 -3.5t-62 2.5
q-26 3 -44.5 20.5t-24.5 44.5q-5 26 -7 53.5t-5 55.5v13.5v33t-1 41t-2 36.5z" />
    <glyph glyph-name="five" unicode="5" horiz-adv-x="511" 
d="M144 353q0 -6 7.5 -8.5t18 -4t22 -2.5t20.5 -2q32 -5 61 -12q43 -12 75 -42t47.5 -70t12 -85.5t-30.5 -88.5q-3 -5 -12.5 -13t-23.5 -16t-32 -14t-38 -6q-51 0 -81 3t-47 7.5t-24.5 9.5t-11.5 9q-23 21 -38 46.5t-24 54.5q-7 22 5 34t34 5q37 -12 59 -46q8 -11 21 -22
t28 -12q17 -1 28 -1t26 5q31 10 48.5 34t27.5 53q5 15 0 28t-19 21q-17 10 -35 13.5t-39 -3.5t-43 -12t-45 -10q-40 -9 -62 4.5t-35 54.5q-8 25 -12.5 50.5t-5.5 52.5q0 27 -6.5 54t-8.5 55q-2 29 -2.5 57t-0.5 57q0 17 11 26.5t25 14.5q11 3 23 4t24 1q38 -1 76.5 -2.5
t76.5 -2.5q16 0 31.5 0.5t30.5 3.5q22 3 39 -3.5t31 -20.5q35 -35 44.5 -78.5t7.5 -90.5q0 -12 -7.5 -19.5t-18.5 -11.5q-20 -5 -39 -11t-39 -10q-36 -6 -71.5 -11t-71.5 -10q-5 -1 -11 -1.5t-12 -2t-10 -4.5t-4 -9z" />
    <glyph glyph-name="six" unicode="6" horiz-adv-x="552" 
d="M474 214q-5 -64 -38.5 -106t-82.5 -76q-32 -21 -66 -28.5t-71 -8.5q-41 0 -74.5 17t-54.5 52q-27 45 -46.5 91t-27.5 99q-10 63 -2.5 122t42.5 110q16 22 32 41t41 33t63 21.5t98 7.5q26 -1 47.5 -13t41.5 -28q11 -9 14 -19q2 -7 2 -14.5t-4 -12.5q-3 -4 -11 -6t-14 -1
q-8 2 -15.5 6t-15.5 6q-20 7 -38.5 14t-39.5 9q-10 1 -24 1t-29 -3t-28.5 -8.5t-22.5 -14.5q-23 -16 -38.5 -45.5t-18.5 -52.5q-2 -4 3 -9q4 -2 9 -2q4 0 8 4q44 32 91 35t96 -8q10 -4 14 -4q57 -10 92 -45t56 -85q8 -18 8.5 -38.5t3.5 -40.5zM289 365q-43 2 -81.5 -8.5
t-70.5 -42.5q-5 -5 -10 -11.5t-3 -11.5q8 -26 20 -50.5t40 -36.5q21 -9 45.5 -7t47.5 12t41 26.5t26 37.5q7 20 2.5 37t-14.5 29t-22.5 19t-20.5 7z" />
    <glyph glyph-name="seven" unicode="7" horiz-adv-x="438" 
d="M88 62q4 82 48 153q8 11 12.5 23.5t11.5 24.5q8 16 16.5 31.5t18.5 30.5q14 20 11 26t-29 9q-11 1 -21.5 1.5t-21.5 1.5q-22 1 -43 6q-45 9 -56 52q-11 41 -19 81.5t-9 82.5q-1 20 8.5 26.5t26.5 4.5q27 -4 54.5 -4.5t54.5 -1.5q46 -1 91 0q25 1 42 -2.5t29.5 -13.5
t23.5 -27t23 -42q10 -20 12.5 -43t5.5 -46q5 -33 -26 -45q-30 -12 -51 -31t-37 -42t-28 -48.5t-23 -52.5q-19 -46 -33.5 -92.5t-25.5 -94.5q-5 -23 -13.5 -30.5t-22.5 -4.5q-27 4 -30 43v24z" />
    <glyph glyph-name="eight" unicode="8" horiz-adv-x="521" 
d="M154 401q-16 19 -29.5 36t-27.5 34q-40 52 -14 112q9 20 32.5 33t50 20.5t50.5 9t35 -0.5q38 -8 61 -29t33.5 -46.5t8.5 -51.5t-15 -44q-11 -15 -23 -29.5t-24 -29.5q12 -11 21 -16.5t19 -11.5q41 -26 66.5 -56.5t39.5 -58.5t19.5 -49.5t5.5 -30.5q2 -40 -14 -77.5
t-41 -67t-54.5 -47t-54.5 -17.5q-50 0 -102.5 10.5t-95.5 36.5q-24 14 -43.5 37.5t-32 52t-16.5 59t3 57.5q8 30 24.5 56t39.5 49q20 20 39.5 31.5t38.5 28.5zM231 211q19 -1 36.5 6t30.5 25q12 17 10.5 36t-11.5 36q-4 8 -9.5 14.5t-10.5 12.5q-28 39 -66 25
q-26 -9 -35.5 -23t-9.5 -40q0 -5 -0.5 -9.5t-0.5 -9.5q0 -29 17 -48.5t49 -24.5zM247 572q-28 0 -52.5 -6.5t-32.5 -12.5q-8 -7 -14 -16t-4 -31q1 -11 7 -18t14 -12.5t17.5 -9.5t17.5 -10q18 -9 34 -3.5t27.5 18.5t18.5 30.5t6 33.5t-10 27t-29 10z" />
    <glyph glyph-name="nine" unicode="9" horiz-adv-x="469" 
d="M412 321q2 -33 -2.5 -75t-18 -84t-37.5 -80t-61 -62q-17 -10 -44 -11.5t-58.5 5.5t-63.5 24t-58 44.5t-42.5 66t-16.5 88.5q6 36 26 63.5t47 50.5q14 11 37 5t34 -23q5 -8 9 -17t8 -17l4 -14t6 -13q13 -21 30.5 -38t43.5 -14t42 21.5t23 41.5q6 21 8.5 42.5t3.5 42.5
q1 29 -27 19q-2 0 -4 -2q-42 -22 -79.5 -16t-72.5 34q-31 24 -47 56.5t-18 70.5q-1 14 6 30t18.5 30.5t26.5 26t30 16.5q57 21 118 4q51 -14 68 -63q9 -25 15.5 -46t12.5 -41.5t12 -42t13 -47.5q1 -6 2.5 -16t3 -21.5t2 -22t0.5 -16.5zM249 567q-32 -1 -50.5 -15.5
t-32.5 -34.5q-24 -31 4 -65q11 -15 25.5 -24.5t34.5 -4.5q15 3 28.5 11.5t23 20.5t15 27t5.5 30q-2 25 -17 40.5t-36 14.5z" />
    <glyph glyph-name="colon" unicode=":" horiz-adv-x="180" 
d="M5 82q1 51 50 38q22 -7 38 -19.5t26 -33.5q7 -14 6 -28.5t-7.5 -26.5t-18.5 -20.5t-27 -9.5q-6 -1 -13 2t-12 8q-22 18 -31 41t-11 49zM3 425q1 18 5.5 27t9.5 20q7 14 19.5 17.5t24.5 -4.5q20 -14 35 -31.5t20 -42.5q4 -22 -6.5 -40.5t-29.5 -23.5t-39 4.5t-27 28.5
q-5 11 -8.5 19t-3.5 26z" />
    <glyph glyph-name="semicolon" unicode=";" horiz-adv-x="180" 
d="M149 -5q-1 -9 -7 -24.5t-16 -32t-23.5 -32.5t-29.5 -27q-3 -2 -9 -2t-9 2q-2 2 -3 7t0 10l4 16l4 16q5 22 0 39t-25 32q-14 11 -22 29.5t-10 39t3 40.5t16 34q9 12 18.5 14.5t23.5 -3.5q30 -14 51.5 -32.5t27.5 -51.5q3 -16 5.5 -35.5t0.5 -38.5zM129 400q0 -33 -20 -46
t-50 1q-13 6 -24 17t-18.5 24.5t-11 28t-1.5 28.5q2 20 14.5 30t30.5 7q13 -2 27 -11.5t26 -23t19.5 -28.5t7.5 -27z" />
    <glyph glyph-name="less" unicode="&#x3c;" horiz-adv-x="296" 
d="M234 465q-4 -4 -22 -15.5t-38 -23.5l-37.5 -22.5t-20.5 -13.5q-19 -15 -25.5 -24t-3.5 -16t13.5 -14.5t25.5 -19.5q15 -14 36 -25.5t39.5 -23t32.5 -22.5t16 -24q2 -14 -11 -22.5t-29 -0.5q-10 5 -22.5 8.5t-20.5 10.5q-38 23 -70.5 43t-62.5 49q-4 3 -6.5 7t-5.5 8
q-19 23 -19.5 41t22.5 37q24 19 39.5 29.5t28.5 17.5t26.5 13.5t32.5 17.5q33 19 51.5 20.5t27 -5t8 -16.5t-4.5 -14z" />
    <glyph glyph-name="equal" unicode="=" horiz-adv-x="367" 
d="M157 196q-20 1 -40.5 3t-40.5 1q-25 -1 -38.5 11.5t-21.5 32.5q-5 13 -7 27.5t-4 28.5q-3 20 2 28.5t25 11.5q43 6 81 5q27 -2 54.5 -5.5t54.5 -6.5q42 -6 65.5 -35.5t18.5 -71.5q-2 -16 -7.5 -22.5t-21.5 -8.5q-11 -2 -21.5 -1.5t-21.5 1.5q-10 0 -23 0.5t-25 0.5h-20.5
h-8.5zM135 391q-23 1 -45 2t-45 3q-15 2 -24 10.5t-13 22.5q-7 18 12 20q24 2 48 3l48 2q22 1 43 1.5t43 -1.5q29 -3 54 -15q5 -2 8.5 -11t4.5 -17q0 -10 -7.5 -14t-16.5 -5q-33 -3 -67 -3h-12.5t-14.5 1q-8 0 -16 1z" />
    <glyph glyph-name="greater" unicode="&#x3e;" horiz-adv-x="282" 
d="M8 466q-4 4 -2.5 14t11.5 16.5t30.5 4.5t53.5 -21q19 -11 32.5 -18.5t26.5 -16t28.5 -20.5t39.5 -31q23 -19 22.5 -37t-19.5 -41l-6 -8t-6 -7q-15 -14 -30.5 -24.5t-32 -20t-34 -18.5t-36.5 -21q-8 -7 -20.5 -10.5t-22.5 -8.5q-16 -8 -29 0.5t-11 22.5q2 13 16 23
t32.5 20.5t39 21.5t35.5 25q15 12 25.5 19.5t13.5 14.5t-3.5 15.5t-25.5 23.5q-3 3 -22 14.5t-41 25t-41.5 26t-23.5 16.5z" />
    <glyph glyph-name="question" unicode="?" horiz-adv-x="445" 
d="M171 250q2 12 3.5 24t3.5 23q9 42 46 64q19 11 37 22.5t36 23.5q11 8 19 21q2 3 2.5 10t-3.5 13t-12.5 9.5t-24.5 0.5l-67.5 -22.5t-63.5 -34.5q-8 -6 -22 -10q-24 -8 -40 -3t-28 28q-5 9 -13 24t-15.5 30l-13.5 27t-6 15q-2 14 -3 29t0 29q2 17 9 31.5t24 22.5
q33 15 66 28t70 17q29 3 62.5 -3t64.5 -21t56 -38t37 -52q15 -35 18 -70.5t-7.5 -66.5t-37 -55t-69.5 -36q-38 -11 -51 -28.5t-12 -57.5q1 -20 0.5 -38.5t-1.5 -38.5q-1 -10 -5 -18t-15 -10q-13 -2 -20.5 4t-12.5 17q-9 22 -11 44.5t0 45.5zM259 15q-2 -28 -27 -35
q-14 -3 -22 3.5t-12 16.5q-7 14 -11.5 29t-7.5 30q-3 14 6.5 21.5t23.5 3.5q10 -3 19 -10t16.5 -16.5t11.5 -21t3 -21.5z" />
    <glyph glyph-name="at" unicode="@" horiz-adv-x="736" 
d="M395 -107q-16 -2 -44.5 -0.5t-63.5 9.5t-73.5 25.5t-74 48.5t-66 77.5t-49.5 112.5q-15 51 -14 100.5t11 95.5t27.5 87t35.5 74q18 34 46 60.5t59.5 45.5t61.5 30t53 13q25 3 50 1l50 -4q40 -12 75.5 -24.5t66 -28.5t55.5 -38t43 -52q26 -44 36 -89.5t6.5 -88.5t-18 -81
t-36 -67t-49 -47.5t-55.5 -22.5q-42 -6 -66.5 -2.5t-42.5 16.5q-3 2 -5.5 5t-5.5 5q-10 9 -15.5 13t-10 3t-10 -6.5l-15.5 -15.5q-24 -26 -54 -37.5t-66 -1.5q-10 3 -19 6l-18 6q-32 11 -53.5 32t-30.5 53q-20 66 -9.5 127t43.5 124q22 44 67 57q15 4 26 7.5t22 5t22 -0.5
t26 -8q29 -14 56 -2q16 7 33 5q50 0 51 -49q1 -18 0 -36t-1 -36q0 -11 0.5 -32t2 -46.5t3.5 -52.5t5 -49t6.5 -36.5t7.5 -14.5q24 -2 52.5 15.5t48 54t24.5 92t-16 130.5q-17 56 -73 91t-150 43q-47 4 -87.5 -6t-73.5 -28.5t-56.5 -41.5t-35.5 -44q-23 -39 -39.5 -81
t-20.5 -89q-6 -66 12.5 -124t53.5 -111q28 -42 66 -72t88 -44q18 -5 36 -10.5t37 -10.5q40 -11 78.5 -5t76.5 21q6 2 12.5 5.5t13.5 4.5q6 0 13 -0.5t12 -8.5q5 -9 -1 -15t-11 -9q-26 -14 -53 -22.5t-56 -9.5q-8 -1 -16.5 -1h-16.5zM347 337q4 45 -21 82q-7 10 -21.5 13
t-20.5 -6q-10 -16 -16.5 -37t-10 -41.5t-3.5 -38t4 -26.5q12 -32 27.5 -44.5t29 -8.5t22 23t8.5 51q2 8 2 16.5v16.5z" />
    <glyph glyph-name="A" unicode="A" horiz-adv-x="625" 
d="M534 193q2 -38 -2 -74.5t-13 -72.5t-28 -51.5t-57 -17.5q-29 -2 -56 6q-19 5 -36.5 12t-36.5 13q-14 5 -24 14t-13 25q-5 24 -10.5 47t-10.5 47t-12 30t-32 6q-5 1 -10 0.5t-10 -0.5q-27 1 -34.5 -7.5t-11.5 -31.5q-5 -29 -12.5 -56.5t-15.5 -54.5q-4 -16 -16 -29
q-9 -11 -19 -13t-24 3q-29 11 -38.5 29t-1.5 49l24 90t23 91q14 56 25.5 111.5t25.5 112.5q8 34 18.5 67t21.5 65q7 20 23 31.5t34 16.5q16 5 39 9t46 7t42.5 5t29.5 3t25 0t29.5 -6.5t26.5 -15.5t17 -26q13 -47 23.5 -93t13.5 -95q4 -48 13 -94.5t17 -94.5q2 -14 3.5 -28.5
t3.5 -28.5zM191 438q-5 0 -10.5 -17t-10.5 -41.5t-8.5 -51.5t-3.5 -46q0 -14 6 -19.5t21 -6.5q21 -1 29.5 7t6.5 29q-2 18 -5 42.5t-7 47.5t-8.5 39.5t-9.5 16.5z" />
    <glyph glyph-name="B" unicode="B" horiz-adv-x="552" 
d="M9 411q-1 23 -0.5 45.5t0.5 45.5q0 20 -0.5 38.5t-1.5 38.5v28q1 18 3.5 29t7.5 17t15.5 9.5t28.5 6.5q42 7 83 5t83 -10q23 -4 42 -16t36 -29q25 -27 25.5 -60t-25.5 -60q-11 -12 -16.5 -19t-4.5 -12t8.5 -9.5t22.5 -10.5q34 -15 63 -40t50 -56t33 -67.5t13 -73.5
q1 -26 0.5 -53t-2.5 -53q-3 -35 -19.5 -61.5t-48.5 -46.5q-54 -33 -113.5 -46.5t-120.5 -13.5q-30 0 -51 4t-36 10t-25 12.5t-18 11.5q-17 9 -20.5 27.5t-4.5 35.5q-1 42 -2 82t-3 81v23v56t-0.5 69t-1.5 62zM114 249q2 -19 9.5 -25.5t27.5 -4.5q32 3 62 8.5t59 17.5
q12 5 23.5 12t19.5 16q15 17 17 31.5t-3.5 26.5t-16 21t-20.5 15t-31.5 12.5t-45.5 12t-45 9t-28 2.5q-8 -1 -13 -6t-9 -12.5t-5.5 -16t-1.5 -15.5t-0.5 -20.5t-0.5 -29t0.5 -30t1.5 -24.5zM201 574q-11 2 -29.5 -1.5t-30.5 -5.5q-9 -2 -14 -10.5t-6 -19.5t1.5 -22.5
t8.5 -18.5q2 -2 7.5 -3.5t9.5 -0.5q39 6 67 33q7 7 13.5 14.5t0.5 17.5q-4 6 -10 11t-18 6z" />
    <glyph glyph-name="C" unicode="C" horiz-adv-x="563" 
d="M268 611q48 0 85.5 -15t63 -37t37.5 -46.5t9 -43.5q-2 -14 -3 -27t-5 -25q-2 -6 -7.5 -11t-11.5 -7q-20 -8 -28 12q-5 11 -9.5 22t-9.5 22q-18 36 -55 15q-5 -3 -9.5 -7t-7.5 -9q-23 -31 -40.5 -69t-23.5 -77q-5 -35 -2 -67.5t12 -64.5q12 -43 50 -61q29 -14 55.5 -3
t37.5 41q2 5 3 9t3 9q16 34 51 23q17 -6 25.5 -19t3.5 -29q-5 -18 -13.5 -35.5t-19.5 -32.5q-12 -17 -43 -37t-76.5 -30.5t-104 -5t-126.5 40.5q-42 23 -65 57.5t-30 82.5q-9 58 -5.5 118.5t20.5 116.5q15 53 44 100q7 12 23.5 28t41.5 29.5t57.5 23t72.5 9.5z" />
    <glyph glyph-name="D" unicode="D" horiz-adv-x="531" 
d="M141 -21q-16 1 -31.5 1.5t-30.5 2.5q-32 4 -52 27t-20 55q1 40 0.5 79t0.5 79q0 57 1 112.5t1 112.5q0 26 -1 52.5t-2 52.5q0 10 -1 19.5t0 19.5q2 24 15.5 41.5t34.5 19.5q63 6 123.5 -1t115.5 -45q35 -24 62.5 -53t53.5 -67q26 -37 40 -84.5t17.5 -98t-3.5 -100.5
t-23.5 -92t-42.5 -73t-60 -42q-49 -18 -98 -20.5t-100 2.5zM79 383q-2 -19 -3.5 -39t-2.5 -40t5.5 -27.5t26.5 -9.5q23 -2 43 -2t44 2q54 3 97 27.5t59 78.5q1 5 0.5 19.5t-6.5 32.5t-20 38t-39.5 36.5t-64 27.5t-93.5 11q-20 -1 -25.5 -5.5t-8.5 -24.5q-6 -31 -6.5 -62
t-5.5 -63z" />
    <glyph glyph-name="E" unicode="E" horiz-adv-x="510" 
d="M279 652q11 -2 21.5 -5t19.5 -8q13 -8 19.5 -20t4.5 -28q-2 -17 -12.5 -23.5t-23.5 -9.5q-47 -8 -93 -12t-93 7q-7 2 -13.5 3.5t-14.5 3.5q-20 4 -27 -3t-6 -28q1 -41 42 -49q14 -2 28.5 -3.5t28.5 -4.5q25 -6 34 -27.5t-5 -43.5q-6 -10 -15 -12.5t-19 -1.5
q-13 2 -25.5 5.5t-25.5 5.5q-24 5 -28 -18q-2 -10 -3 -19t-1 -19q-1 -21 0.5 -33.5t8 -19.5t18.5 -10t33 -5q47 -4 93 -6.5t93 -4.5q55 -3 79 -46q5 -8 8 -15t5 -15q8 -35 16.5 -70t13.5 -71q5 -38 -11 -57t-55 -22q-41 -2 -81.5 -2h-81.5q-22 1 -43.5 2t-42.5 3
q-22 1 -38 5.5t-27.5 13.5t-20.5 23.5t-16 34.5q-13 36 -15 72t0 74q3 57 4 112.5t1 112.5q0 51 -1 97t-2 97q-1 5 -0.5 9.5t1.5 9.5q2 19 9 25t25 4q15 -1 48 -2t69.5 -1.5t69.5 -1.5t47 -3z" />
    <glyph glyph-name="F" unicode="F" horiz-adv-x="458" 
d="M87 23q-3 -13 -8 -25t-16 -18q-12 -8 -27 -2t-19 20q-4 19 -4 43q1 44 2.5 87.5t0.5 88.5q0 64 -1 127t-3 126q-1 28 -2.5 55.5t-3.5 54.5q-1 25 13 45q8 11 17.5 16.5t23.5 3.5q5 -1 22 -1.5t40 -0.5t49.5 -0.5t51.5 -1.5t45 -2t29 -2q14 -2 24 -7.5t17 -13t12.5 -16
t10.5 -17.5q23 -39 33 -81.5t9 -87.5q0 -36 -35 -46q-26 -7 -53 -13t-54 -10q-20 -3 -40.5 -2.5t-40.5 -0.5q-15 -1 -29.5 -1.5t-28.5 -2.5q-4 -1 -9 -5.5t-5 -8.5q-1 -5 2.5 -12.5t7.5 -10.5q5 -4 11 -4.5t12 -1.5q19 -3 38 -3q23 0 36 -10t20 -30q8 -22 -1.5 -37.5
t-32.5 -17.5q-15 -2 -30.5 0t-31.5 2q-23 0 -31.5 -7.5t-7.5 -31.5q1 -35 -2 -69t-11 -68z" />
    <glyph glyph-name="G" unicode="G" horiz-adv-x="573" 
d="M418 450q64 -5 71 -64q2 -16 4.5 -49.5t0.5 -75.5t-11 -87t-30.5 -83t-57 -64.5t-90.5 -30.5q-44 -7 -89 10q-78 29 -131 80.5t-73 135.5q-5 19 -7.5 38t-0.5 38q3 54 14 106t37 101q2 3 10 13.5t18.5 22.5t21.5 23t19 16q42 25 81.5 38t87.5 18q40 4 77 -8t63 -48
q5 -7 8 -14.5t4 -15.5q2 -10 -0.5 -19t-12.5 -14q-22 -13 -41 0q-5 3 -9 7t-9 8q-8 7 -14.5 13.5t-14.5 11.5q-17 11 -40.5 13.5t-47.5 -3.5t-47 -21t-40 -39q-8 -13 -18 -30t-18.5 -38.5t-13 -48t-0.5 -58.5q1 -2 6 -16.5t16.5 -31.5t30 -32t47.5 -16q42 -7 81 -0.5
t72 35.5q11 10 20 23t15 27q11 23 2 38t-33 17q-21 2 -42.5 0.5t-43.5 -1.5q-11 0 -21.5 -0.5t-20.5 1.5q-13 3 -22 17q-23 42 25 48q28 3 55 5.5t55 5.5l6 -0.5t15 -0.5t19 -0.5t17 -0.5z" />
    <glyph glyph-name="H" unicode="H" horiz-adv-x="541" 
d="M81 165q-2 -32 -2.5 -62.5t-2.5 -62.5q-1 -7 -1 -14.5t-3 -13.5q-2 -5 -8.5 -11.5t-14.5 -7.5q-8 0 -17.5 7t-11.5 13q-6 34 -6 71q-1 38 0 76.5t0 76.5q0 28 -1.5 55t-2.5 55q-1 39 -0.5 78.5t-0.5 78.5q0 18 -1.5 36t-1.5 36q1 11 4.5 20.5t16.5 12.5q11 3 21.5 -3
t15.5 -20q5 -16 8.5 -32t6.5 -33q2 -17 3 -33t3 -33q3 -26 27 -29q6 -1 12 -1.5t12 -0.5q16 0 26.5 -0.5t17 3t9.5 13t5 30.5q2 17 5.5 35t5.5 35q7 46 37 74t75 31q51 3 77 -37q9 -14 18.5 -28t18.5 -28q16 -26 23.5 -53t5.5 -56q-2 -42 -5 -82t-5 -81q-2 -48 -1.5 -95.5
t0.5 -95.5q-1 -14 0.5 -28.5t0.5 -28.5q-3 -38 -23 -56.5t-65 -12.5q-35 5 -68.5 19t-67.5 26q-13 5 -18 15t-5 24q0 83 -3 167q-1 26 -2 52.5t-4 52.5q-2 27 -12 35t-37 10q-21 1 -32 -0.5t-16 -8.5t-6.5 -20.5t-2.5 -35.5q-3 -34 -4 -67.5t-3 -66.5z" />
    <glyph glyph-name="I" unicode="I" horiz-adv-x="354" 
d="M14 450q0 20 8.5 32t23.5 18.5t34.5 8.5t40.5 3t45.5 -7t45 -23t33 -37t10.5 -49l-4 -24l-4 -24q-2 -14 -3 -28.5t0 -28.5q2 -37 4.5 -73.5t4.5 -73.5q2 -34 -8.5 -64.5t-22.5 -60.5q-7 -17 -22.5 -23.5t-32.5 -7.5q-14 0 -29 1t-29 2q-38 2 -65.5 30.5t-28.5 70.5
q-1 62 -3.5 123.5t-4.5 124.5l1 12t2.5 29t2.5 36t1 33zM163 646q8 -2 22.5 -6t30.5 -10q25 -10 24 -37q-1 -26 -33 -35q-20 -6 -39.5 -11.5t-39.5 -7.5q-32 -4 -60.5 7t-51.5 34q-20 20 4 36q30 20 64.5 26.5t78.5 3.5z" />
    <glyph glyph-name="J" unicode="J" horiz-adv-x="573" 
d="M422 634q17 -1 28.5 -3t18.5 -8t11 -16.5t7 -26.5q12 -78 17 -154.5t-11 -154.5q-2 -9 -8.5 -34t-16 -53.5t-21.5 -55.5t-25 -41q-75 -83 -183 -92q-38 0 -66 7t-50 18.5t-39.5 26t-34.5 28.5q-9 8 -15.5 18t-10.5 21q-12 35 -15 70.5t1 71.5q1 10 4 19t15 11
q12 3 21 -2.5t14 -15.5q2 -4 3 -19t4.5 -35.5t10 -43.5t19 -43t33 -33.5t50.5 -14.5q9 -1 15.5 8.5t11.5 23.5q5 15 8 30t4 31q0 41 -1 81t-3 82q-1 33 -2 66.5t-1 67.5q2 57 -10 109q-6 26 1.5 37.5t33.5 16.5q11 2 21.5 2.5t21.5 0.5q15 1 30.5 1h31.5l8.5 -0.5t20.5 -0.5
t25 -0.5t23 -0.5z" />
    <glyph glyph-name="K" unicode="K" horiz-adv-x="594" 
d="M412 148q-2 27 -2.5 54.5t-5.5 54.5q-8 45 -35.5 69t-72.5 28q-23 1 -28 -20q-2 -7 -2 -14v-15q-5 -61 -8.5 -121.5t-7.5 -122.5q-2 -28 -17 -46.5t-53 -23.5q-61 -9 -118 9q-32 11 -44 28t-11 51l2 74t1 74q0 54 -1 106t-2 105v91q0 11 1 21.5t2 21.5q2 26 14 43t38 22
q17 3 33.5 6.5t32.5 1.5q25 -3 49 -9.5t47 -15.5q26 -10 34 -33t10 -47q2 -14 0 -28.5t-2 -28.5q-2 -23 5 -30t29 -9q25 -2 48.5 7t40.5 25.5t26.5 39.5t8.5 49q-1 17 3.5 29t17.5 21q15 11 32 7.5t25 -20.5q5 -10 7 -22t0 -23q-9 -52 -25.5 -82.5t-32.5 -47t-28 -22.5
t-12 -8q0 -3 8 -5.5t19.5 -8t24.5 -15t24 -24.5q6 -10 13.5 -31t14 -46.5t10.5 -52.5t3 -48q-1 -40 -5.5 -79.5t-9.5 -78.5q-3 -26 -14 -36t-34 -12q-20 -1 -37 12.5t-19 36.5q-1 17 -1 41t0.5 45.5t1.5 37t2 15.5z" />
    <glyph glyph-name="L" unicode="L" horiz-adv-x="459" 
d="M94 346q0 -13 1.5 -20.5t5.5 -12t11 -7t19 -4.5q28 -4 55 -8l54 -8q14 -2 28.5 -2.5t28.5 1.5q19 3 31 -4.5t20 -22.5q11 -24 17 -49q5 -26 9.5 -51.5t9.5 -51.5q5 -24 5.5 -47.5t-7.5 -47.5q-9 -26 -20 -35.5t-39 -7.5q-29 2 -57 5.5t-57 7.5q-23 2 -47 5t-48 5
q-6 1 -12 0.5t-12 0.5q-42 8 -59.5 27t-20.5 61q-1 8 -0.5 17t0.5 17q0 57 -0.5 112.5t-0.5 111.5v168q0 14 -1 28.5t0 28.5q1 13 2.5 26t5.5 26q8 29 33 28q13 0 23.5 -8t13.5 -22q5 -19 7 -37.5t4 -38.5q1 -18 0 -36t-1 -36l-0.5 -13t-1 -31.5t-0.5 -39v-35.5z" />
    <glyph glyph-name="M" unicode="M" horiz-adv-x="688" 
d="M392 367q4 0 10.5 6.5t13.5 16t13 20t9 18.5q17 41 33 81.5t32 82.5q8 21 17 29t26 7q17 -2 26.5 -11t14.5 -29q8 -39 12.5 -78t-0.5 -79q-3 -26 0.5 -52t1.5 -52q-2 -18 -0.5 -33t3.5 -38q0 -1 1.5 -22t2 -53t-2 -69t-10.5 -69t-22.5 -53t-37.5 -21q-17 4 -19 19t-3 29
q-2 43 -4.5 86t-4.5 86q-1 34 -1.5 67t-1.5 67q-1 5 -3.5 12t-7.5 7t-8.5 -3.5t-6.5 -7.5q-11 -14 -28 -27.5t-38 -17.5q-24 -5 -39.5 -1.5t-34.5 20.5q-16 17 -21.5 33t-12.5 16q-3 0 -5 -6t-3 -13.5t-1 -15v-10.5q-2 -29 -3 -57.5t-4 -57.5q-3 -36 -9.5 -71t-20.5 -69
q-12 -28 -32.5 -41.5t-48.5 -16.5q-12 -2 -24 -2t-24 1q-56 5 -82 30t-31 80q-3 32 -3.5 64.5t-0.5 65.5q-1 48 -1 95.5v95.5q0 40 -0.5 79t0.5 79q0 22 3 43q4 21 29 29q56 17 109 8.5t104 -34.5q25 -13 39 -34.5t22 -47.5q6 -20 15 -51t20 -60t22 -49.5t21 -20.5z" />
    <glyph glyph-name="N" unicode="N" horiz-adv-x="614" 
d="M281 224q-5 0 -8 -4.5t-4.5 -11.5t-2 -14t-1.5 -13q-5 -33 -9.5 -66.5t-10.5 -66.5q-8 -43 -30 -58t-65 -7q-32 5 -60.5 16t-55.5 27q-13 8 -19.5 17.5t-6.5 24.5q0 46 -0.5 91.5t-0.5 90.5v263q0 23 1 45.5t3 45.5q1 31 33 42q38 13 74.5 14t73.5 -19q10 -5 20 -8t21 -5
q40 -10 54 -50q7 -19 14.5 -37.5t13.5 -38.5q14 -50 28 -99t27 -100q4 -15 10.5 -36t14 -40t14 -32.5t11.5 -13.5q9 0 8.5 12.5t-0.5 18.5q-2 82 -5.5 163t-5.5 163q0 17 2.5 35t5.5 36q2 9 9 16q9 7 23.5 8t28.5 -3t24.5 -14t10.5 -25v-18.5t-1 -19.5q-2 -35 -5 -69t-3 -69
q0 -42 3 -84t5 -84q1 -16 0.5 -49.5t-2 -70t-4 -68.5t-3.5 -45q-5 -44 -26 -54t-62 6q-26 11 -37 41q-18 43 -37 85.5t-36 85.5q-5 14 -13 30t-19 16z" />
    <glyph glyph-name="O" unicode="O" horiz-adv-x="697" 
d="M627 333q-3 -21 -4.5 -42.5t-5.5 -42.5q-12 -56 -39 -101.5t-66 -87.5q-30 -31 -63.5 -47t-68.5 -21t-70 -2t-67 11q-33 7 -63.5 22.5t-56 33t-42.5 34t-23 27.5q-31 59 -44.5 121t-2.5 128q2 17 5 33.5t7 32.5q17 69 61.5 113t104.5 73q39 20 80 32t86 9q10 -1 29 -3
t42 -7.5t48 -14.5t48 -24q31 -20 50.5 -53t31 -66.5t16.5 -59.5t5 -31q0 -8 0.5 -19.5t0.5 -22t0.5 -18zM287 153q9 -48 44.5 -64t78.5 7q67 36 102 104q7 13 13.5 33.5t11 45t7.5 53t3 57.5q0 31 -15.5 56t-36.5 47q-36 36 -73 36q-49 0 -79 -25t-45.5 -63t-20 -83.5
t-3 -87.5t6 -74t6.5 -42z" />
    <glyph glyph-name="P" unicode="P" horiz-adv-x="511" 
d="M21 597q1 29 33 41q46 17 91 18t92 -10q33 -8 65.5 -15.5t63.5 -21.5q19 -8 42 -23q39 -26 44.5 -66.5t-23.5 -78.5q-22 -28 -49 -47t-65 -24q-14 -2 -22 -4.5t-12 -8t-5.5 -14.5t-1.5 -23q-2 -65 -4 -129t-4 -129q-1 -17 -1.5 -33.5t-0.5 -33.5q-1 -20 -12 -31t-29 -15
q-13 -2 -26 -3t-26 1q-67 12 -131 42q-32 16 -31 49q0 29 0.5 57.5t0.5 57.5q0 57 -0.5 114.5t-0.5 114.5q0 44 1.5 86.5t2.5 85.5l1 4.5t2.5 11.5t2.5 14.5t2 12.5zM285 549q-2 -3 -3 -11.5t-1 -18v-18v-12.5q0 -7 -2 -15.5t-2.5 -16t2 -14.5t10.5 -11q7 -4 21 -0.5
t27.5 12.5t23 24.5t8.5 35.5q-3 21 -16 32t-27.5 14.5t-26.5 2.5t-14 -4z" />
    <glyph glyph-name="Q" unicode="Q" horiz-adv-x="667" 
d="M339 643q15 0 35.5 -4t42.5 -11.5t42.5 -19t34.5 -26.5q31 -32 58 -70q36 -50 50 -105.5t7 -116.5q-2 -18 -8.5 -36.5t-14.5 -35.5q-17 -38 -35.5 -75t-36.5 -75q-6 -13 -3 -24t8 -22q7 -17 14.5 -33t12.5 -33q5 -20 -2.5 -27t-27.5 -5q-29 3 -45.5 19t-30.5 39
q-8 13 -13 19.5t-11 9t-14 1t-23 -4.5q-61 -15 -118.5 -4.5t-114.5 32.5q-38 16 -65 55q-23 35 -41.5 71.5t-27.5 78.5q-13 66 1 127t43 118q12 24 27 46.5t33.5 41.5t41 33.5t51.5 20.5q12 2 28 5t33.5 5.5t35.5 4t33 1.5zM350 184q3 8 11.5 11t12.5 2q15 -4 29.5 -13.5
t28.5 -14.5q18 -6 22.5 -4.5t13.5 19.5q17 31 27.5 74.5t11.5 87.5t-8.5 84t-31.5 65q-14 16 -31.5 20.5t-33 3t-28.5 -7t-18 -10.5q-11 -11 -21.5 -22.5t-18.5 -24.5q-80 -136 -31 -291q9 -29 29.5 -48.5t46.5 -33.5q2 -2 6.5 -2t6.5 2q8 8 7 16q-1 12 -8 27q-3 7 -7.5 16
l-8.5 17t-6.5 15.5t-0.5 11.5z" />
    <glyph glyph-name="R" unicode="R" horiz-adv-x="563" 
d="M5 324q0 31 -0.5 62t0.5 62q2 41 4 81t4 81q1 14 8.5 18.5t18.5 9.5q52 19 104 19.5t105 -2.5q68 -4 109 -27t63 -52t28.5 -58t6.5 -44q-1 -15 -8 -34t-16.5 -37t-19.5 -32t-17 -20q-9 -9 -18.5 -13t-10.5 -8q-1 -5 10 -10.5t20 -11.5q25 -20 40.5 -44t24 -50.5t12 -54.5
t5.5 -57q1 -14 1 -28.5t1 -28.5q0 -4 0.5 -7.5t0.5 -7.5q0 -17 -4.5 -33t-21.5 -24q-17 -7 -30 3t-24 21q-14 14 -22.5 30.5t-8.5 37.5q0 23 -1.5 47t-2.5 48q-1 10 -0.5 19.5t-0.5 18.5q-4 37 -18.5 52t-50.5 18q-21 2 -28.5 -4.5t-5.5 -27.5q2 -32 5.5 -64t7.5 -64
q1 -8 -0.5 -17.5t-2.5 -17.5q-1 -15 -3 -28t-8.5 -23.5t-18.5 -17.5t-31 -10q-76 -11 -147 10q-14 4 -24.5 13t-12.5 26q-3 35 -7 83t-7.5 92t-5.5 75zM259 481q0 -17 -1 -33t1 -33q2 -12 9.5 -13.5t18.5 1.5q37 10 53.5 35t21.5 54q5 30 -17.5 47t-53.5 17q-33 0 -33 -32
q-1 -5 -0.5 -12.5t0.5 -14.5q0 -8 1 -16z" />
    <glyph glyph-name="S" unicode="S" horiz-adv-x="594" 
d="M275 662q28 0 42.5 -4.5t34.5 -11.5q21 -8 35 -23t20 -33t3.5 -37t-15.5 -36q-29 -37 -53 -32t-45 38q-5 8 -7 17.5t-6 17.5q-8 21 -32 13q-41 -16 -37 -55q2 -25 9 -40.5t33 -17.5q16 -1 41 -6t53.5 -16.5t57.5 -31t52.5 -51t38 -76t14.5 -105.5q-2 -58 -31 -99.5
t-76 -70.5q-21 -13 -46 -18l-50 -10q-47 -9 -88.5 3.5t-83.5 34.5q-48 26 -77.5 64t-45.5 88q-11 36 -12.5 73t7.5 74q2 9 10.5 19.5t20 19.5t23 15.5t19.5 6.5q22 2 39.5 -13t21.5 -38q1 -9 0 -18.5t0 -19.5q1 -22 10.5 -39t24.5 -27.5t34.5 -13.5t40.5 5q55 20 87 65
q13 19 10 33t-21 28q-21 17 -45 23t-49 10q-38 5 -65 26t-50 46q-16 16 -23.5 38t-7.5 45t7.5 45.5t21.5 41.5q7 9 18 18t29 17t44 13t64 5z" />
    <glyph glyph-name="T" unicode="T" horiz-adv-x="602" 
d="M15 653q16 0 39.5 -3t45.5 -2q53 2 106 -1.5t106 -4.5q32 -1 64.5 -3t64.5 0q17 1 28 -4t22 -16q26 -26 37 -59t19 -66q3 -13 -2 -27t-15 -25.5t-22.5 -19.5t-25.5 -9q-12 -2 -24 -1l-24 2q-8 1 -16.5 2.5t-16.5 2.5q-16 1 -25 0.5t-14 -5t-6.5 -13.5t-2.5 -25
q-5 -54 -10.5 -107.5t-10.5 -107.5q-2 -32 -3.5 -64.5t-0.5 -64.5q0 -24 -11 -37.5t-35 -14.5q-29 -2 -47.5 14t-19.5 44q-1 29 -0.5 57.5t0.5 57.5v62t-2 62q-2 26 -3 50.5t3 49.5q3 21 -3.5 28t-27.5 9q-17 1 -33.5 0t-33.5 -2h-24t-23 1q-17 0 -24 20q-8 28 -15.5 55.5
t-15.5 55.5q-3 13 -6 31.5t-4 35.5t1.5 29.5t10.5 12.5z" />
    <glyph glyph-name="U" unicode="U" horiz-adv-x="615" 
d="M251 585q-2 22 1.5 28.5t24.5 12.5q54 15 108.5 18.5t109.5 -9.5q21 -5 35.5 -27.5t10.5 -48.5q-2 -12 -4 -40.5t-5 -65t-6.5 -76.5t-7 -76t-7.5 -63.5t-7 -38.5q-4 -11 -10.5 -30t-20 -41.5t-33.5 -46t-50.5 -42.5t-72.5 -31t-97 -12q-15 0 -31.5 5t-33 13t-31 18.5
t-23.5 22.5q-11 14 -22.5 28t-22.5 28q-40 52 -43 120q-8 141 -9 282q-1 20 2.5 40.5t7.5 40.5t12 25t28 2q32 -5 43 -17t5 -43q-11 -58 -8.5 -115t3.5 -115q0 -42 2.5 -85t24.5 -83q9 -17 19.5 -32.5t27.5 -26.5t24.5 -8.5t14.5 20.5q24 57 32 117t10 122q1 22 0.5 43
t-0.5 43l0.5 15.5t0.5 38t-0.5 47.5t-1.5 43z" />
    <glyph glyph-name="V" unicode="V" horiz-adv-x="625" 
d="M371 203q7 0 8.5 5t3.5 8q16 48 32 95.5t32 95.5q15 48 29.5 96t28.5 96q7 23 27 30.5t40 -4.5q11 -6 12 -15t-2 -19q-8 -28 -15.5 -55.5t-15.5 -55.5q-12 -42 -25 -82t-25 -82q-18 -63 -34.5 -124.5t-35.5 -124.5q-13 -43 -53 -64q-8 -4 -14.5 -9t-14.5 -8
q-11 -5 -22.5 -9t-22.5 -3q-26 0 -50.5 2.5t-49.5 4.5q-47 5 -58 49q-8 30 -17.5 59.5t-17.5 59.5q-6 19 -10.5 37.5t-11.5 36.5q-17 46 -28.5 93t-16.5 97q-5 42 -13 82.5t-18 81.5q-5 17 -6 26t2 15t11 11t23 14q26 15 52.5 17t53.5 7q17 2 33.5 1.5t33.5 -0.5
q60 -1 75 -61q3 -13 4.5 -26t3.5 -26q6 -28 10 -58.5t10 -58.5q1 -6 4.5 -30.5t8.5 -55.5t11 -63t12 -53q4 -10 6.5 -21.5t9.5 -11.5z" />
    <glyph glyph-name="W" unicode="W" horiz-adv-x="990" 
d="M108 636q81 -3 145 -34q22 -11 33 -32.5t19 -44.5q26 -75 53 -149t54 -149q2 -5 4 -11t5 -11q7 -13 16 -14t17 11q4 7 11 22t13 31.5t11 31.5l7 21q4 17 15.5 26t28.5 11t27.5 -7.5t16.5 -23.5q7 -13 11 -26.5t10 -27.5q9 -22 18 -43.5t20 -43.5q5 -11 14 -11t14 11
q11 22 19 44t16 45q7 18 12 36.5t12 35.5q14 37 30.5 73t33.5 71q14 28 21.5 58.5t16.5 59.5q5 20 22 30t37 3q16 -5 23.5 -17t2.5 -32q-6 -27 -13.5 -53.5t-17.5 -52.5q-5 -12 -19 -47.5t-33.5 -83t-41 -100.5t-40 -98t-31.5 -75.5t-15 -34.5q-16 -29 -40.5 -33t-47.5 20
q-12 13 -23 27t-16 33q-3 13 -9 24.5t-13 23.5q-4 8 -11.5 8t-11.5 -7q-5 -8 -9 -17l-8 -18q-8 -19 -14.5 -37.5t-14.5 -38.5q-7 -19 -19.5 -29t-33.5 -10q-23 1 -45.5 0.5t-45.5 0.5q-14 0 -30.5 6t-33.5 15t-32 20t-25 21q-34 35 -50.5 78t-31.5 88q-13 38 -23 63.5
t-19 48.5t-19 48.5t-22 64.5q-2 5 -10 28.5t-17.5 50.5t-17.5 50t-9 28q-3 11 0.5 18.5t16.5 9.5q23 5 45.5 8.5t41.5 7.5z" />
    <glyph glyph-name="X" unicode="X" horiz-adv-x="614" 
d="M458 -11h-4q-38 5 -75.5 11t-75.5 12q-14 2 -21.5 10.5t-13.5 19.5q-14 26 -28.5 52t-28.5 52q-6 11 -14.5 10.5t-15.5 -11.5q-11 -20 -21.5 -40t-21.5 -40q-7 -13 -13.5 -25.5t-14.5 -24.5q-8 -11 -19 -18t-26 -6q-20 0 -30 12t-3 31q8 23 17 45t19 44l30 70t31 70
q17 36 -3 72q-23 40 -44 80t-41 81q-11 21 -19 43.5t-16 45.5q-2 5 -0.5 11.5t5.5 8.5q10 9 20.5 14t22.5 11q8 4 18 4.5t19 0.5q23 2 43 0.5t42 -3.5q20 -2 39.5 -8t38.5 -14q8 -3 13.5 -11.5t10.5 -16.5q17 -28 33 -55.5t32 -56.5l4 -8t5 -9q13 -20 26 -1q5 9 9.5 19
t9.5 19q16 32 31 63t31 62q4 7 10.5 13t13.5 8q19 5 31.5 -4t16.5 -29q5 -23 -3.5 -42.5t-17.5 -38.5q-19 -39 -40 -76.5t-42 -75.5q-12 -21 -16 -42.5t7 -44.5q7 -14 12 -28.5t11 -28.5q15 -33 30 -65.5t29 -65.5q12 -26 13 -51q2 -27 -13 -41.5t-43 -13.5z" />
    <glyph glyph-name="Y" unicode="Y" horiz-adv-x="579" 
d="M338 446q4 0 12 13t18 30.5t20.5 36.5t18.5 32q13 22 25 44t26 43q9 14 24 22q12 7 26.5 5t22.5 -10q10 -10 10.5 -21.5t-3.5 -23.5q-1 -1 -1 -2t-1 -2q-26 -46 -52 -91.5t-52 -91.5q-15 -26 -31 -51t-28 -52q-8 -18 -10.5 -39t-1.5 -41q2 -49 -1.5 -98t-13.5 -97
q-2 -8 -2 -16.5t-1 -16.5q-4 -41 -44 -38q-3 0 -21 -0.5t-40.5 -1.5t-42.5 -1.5t-27 0.5q-34 5 -47 20.5t-15 50.5q-1 31 0 62t0 62q0 44 -0.5 86.5t-2.5 86.5q0 13 -4 25.5t-9 24.5q-18 45 -37 88t-38 88q-6 15 -8 24.5t1 16.5t11.5 12.5t23.5 11.5q36 15 73 20.5t76 -5.5
q17 -5 30.5 -13.5t24.5 -22.5q24 -30 42 -63.5t32 -69.5l2.5 -10t3.5 -12t4.5 -10.5t6.5 -4.5z" />
    <glyph glyph-name="Z" unicode="Z" 
d="M194 344q0 -3 12 -3.5t28.5 0t35 2t30.5 2.5q26 2 53 3.5t53 0.5q38 -1 59 -19.5t29 -56.5q2 -8 3 -17t1 -17q-2 -48 -3 -95.5t-2 -95.5q-1 -5 -0.5 -9.5t-0.5 -9.5q-1 -16 -4 -24.5t-9.5 -12.5t-16.5 -4t-26 2q-40 5 -80 6t-81 1q-40 1 -79.5 -1.5t-78.5 -2.5
q-35 0 -55 19t-24 54q-3 30 -5.5 60t-5.5 59q-2 14 -5 28t-8 28q-12 34 -4 62t31 52q41 42 82 81t89 73q2 1 7.5 3.5t11 6t9.5 8.5t4 12q0 5 -11.5 7t-26.5 2.5t-31 0t-25 0.5q-18 1 -42.5 7.5t-46.5 12.5q-10 3 -16 10t-4 19q1 18 20 23q13 3 26 5.5t26 3.5q60 2 119.5 3.5
t119.5 3.5q46 1 88 -22q30 -17 30.5 -42t-28.5 -45q-33 -22 -66 -43.5t-67 -41.5q-15 -9 -35 -24.5t-38 -31t-30 -28t-12 -15.5z" />
    <glyph glyph-name="backslash" unicode="\" horiz-adv-x="351" 
d="M292 -78q-34 -13 -46 11l-26 54t-21 56q-20 69 -37 138.5t-36 138.5q-10 35 -22 68.5t-23 67.5q-8 22 -15.5 43t-13.5 43q-11 41 -21.5 81t-21.5 81q-3 15 -2 28q0 23 21 29q22 7 34 -10q9 -14 18 -34q3 -8 5 -16l4 -16q17 -72 40.5 -142t49.5 -140q20 -51 33.5 -104
t26.5 -107q11 -52 27 -102t30 -101q6 -21 7 -33.5t-0.5 -19.5t-4.5 -10t-6 -4z" />
    <glyph glyph-name="underscore" unicode="_" horiz-adv-x="352" 
d="M266 43q23 -1 33.5 -10.5t12.5 -28.5q1 -13 -12.5 -18t-26.5 -6q-31 -3 -48 -4.5t-31.5 -1.5h-32.5h-51q-12 0 -26.5 -1.5t-25.5 0.5q-14 3 -27.5 8.5t-21.5 18.5q-9 13 -5 25t19 16q8 2 16.5 2.5t16.5 0.5h129h22q11 0 25.5 -0.5t33.5 -0.5z" />
    <glyph glyph-name="a" unicode="a" horiz-adv-x="625" 
d="M534 193q2 -38 -2 -74.5t-13 -72.5t-28 -51.5t-57 -17.5q-29 -2 -56 6q-19 5 -36.5 12t-36.5 13q-14 5 -24 14t-13 25q-5 24 -10.5 47t-10.5 47t-12 30t-32 6q-5 1 -10 0.5t-10 -0.5q-27 1 -34.5 -7.5t-11.5 -31.5q-5 -29 -12.5 -56.5t-15.5 -54.5q-4 -16 -16 -29
q-9 -11 -19 -13t-24 3q-29 11 -38.5 29t-1.5 49l24 90t23 91q14 56 25.5 111.5t25.5 112.5q8 34 18.5 67t21.5 65q7 20 23 31.5t34 16.5q16 5 39 9t46 7t42.5 5t29.5 3t25 0t29.5 -6.5t26.5 -15.5t17 -26q13 -47 23.5 -93t13.5 -95q4 -48 13 -94.5t17 -94.5q2 -14 3.5 -28.5
t3.5 -28.5zM191 438q-5 0 -10.5 -17t-10.5 -41.5t-8.5 -51.5t-3.5 -46q0 -14 6 -19.5t21 -6.5q21 -1 29.5 7t6.5 29q-2 18 -5 42.5t-7 47.5t-8.5 39.5t-9.5 16.5z" />
    <glyph glyph-name="b" unicode="b" horiz-adv-x="552" 
d="M9 411q-1 23 -0.5 45.5t0.5 45.5q0 20 -0.5 38.5t-1.5 38.5v28q1 18 3.5 29t7.5 17t15.5 9.5t28.5 6.5q42 7 83 5t83 -10q23 -4 42 -16t36 -29q25 -27 25.5 -60t-25.5 -60q-11 -12 -16.5 -19t-4.5 -12t8.5 -9.5t22.5 -10.5q34 -15 63 -40t50 -56t33 -67.5t13 -73.5
q1 -26 0.5 -53t-2.5 -53q-3 -35 -19.5 -61.5t-48.5 -46.5q-54 -33 -113.5 -46.5t-120.5 -13.5q-30 0 -51 4t-36 10t-25 12.5t-18 11.5q-17 9 -20.5 27.5t-4.5 35.5q-1 42 -2 82t-3 81v23v56t-0.5 69t-1.5 62zM114 249q2 -19 9.5 -25.5t27.5 -4.5q32 3 62 8.5t59 17.5
q12 5 23.5 12t19.5 16q15 17 17 31.5t-3.5 26.5t-16 21t-20.5 15t-31.5 12.5t-45.5 12t-45 9t-28 2.5q-8 -1 -13 -6t-9 -12.5t-5.5 -16t-1.5 -15.5t-0.5 -20.5t-0.5 -29t0.5 -30t1.5 -24.5zM201 574q-11 2 -29.5 -1.5t-30.5 -5.5q-9 -2 -14 -10.5t-6 -19.5t1.5 -22.5
t8.5 -18.5q2 -2 7.5 -3.5t9.5 -0.5q39 6 67 33q7 7 13.5 14.5t0.5 17.5q-4 6 -10 11t-18 6z" />
    <glyph glyph-name="c" unicode="c" horiz-adv-x="563" 
d="M268 611q48 0 85.5 -15t63 -37t37.5 -46.5t9 -43.5q-2 -14 -3 -27t-5 -25q-2 -6 -7.5 -11t-11.5 -7q-20 -8 -28 12q-5 11 -9.5 22t-9.5 22q-18 36 -55 15q-5 -3 -9.5 -7t-7.5 -9q-23 -31 -40.5 -69t-23.5 -77q-5 -35 -2 -67.5t12 -64.5q12 -43 50 -61q29 -14 55.5 -3
t37.5 41q2 5 3 9t3 9q16 34 51 23q17 -6 25.5 -19t3.5 -29q-5 -18 -13.5 -35.5t-19.5 -32.5q-12 -17 -43 -37t-76.5 -30.5t-104 -5t-126.5 40.5q-42 23 -65 57.5t-30 82.5q-9 58 -5.5 118.5t20.5 116.5q15 53 44 100q7 12 23.5 28t41.5 29.5t57.5 23t72.5 9.5z" />
    <glyph glyph-name="d" unicode="d" horiz-adv-x="532" 
d="M141 -21q-16 1 -31.5 1.5t-30.5 2.5q-32 4 -52 27t-20 55q1 40 0.5 79t0.5 79q0 57 1 112.5t1 112.5q0 26 -1 52.5t-2 52.5q0 10 -1 19.5t0 19.5q2 24 15.5 41.5t34.5 19.5q63 6 123.5 -1t115.5 -45q35 -24 62.5 -53t53.5 -67q26 -37 40 -84.5t17.5 -98t-3.5 -100.5
t-23.5 -92t-42.5 -73t-60 -42q-49 -18 -98 -20.5t-100 2.5zM79 383q-2 -19 -3.5 -39t-2.5 -40t5.5 -27.5t26.5 -9.5q23 -2 43 -2t44 2q54 3 97 27.5t59 78.5q1 5 0.5 19.5t-6.5 32.5t-20 38t-39.5 36.5t-64 27.5t-93.5 11q-20 -1 -25.5 -5.5t-8.5 -24.5q-6 -31 -6.5 -62
t-5.5 -63z" />
    <glyph glyph-name="e" unicode="e" horiz-adv-x="510" 
d="M279 652q11 -2 21.5 -5t19.5 -8q13 -8 19.5 -20t4.5 -28q-2 -17 -12.5 -23.5t-23.5 -9.5q-47 -8 -93 -12t-93 7q-7 2 -13.5 3.5t-14.5 3.5q-20 4 -27 -3t-6 -28q1 -41 42 -49q14 -2 28.5 -3.5t28.5 -4.5q25 -6 34 -27.5t-5 -43.5q-6 -10 -15 -12.5t-19 -1.5
q-13 2 -25.5 5.5t-25.5 5.5q-24 5 -28 -18q-2 -10 -3 -19t-1 -19q-1 -21 0.5 -33.5t8 -19.5t18.5 -10t33 -5q47 -4 93 -6.5t93 -4.5q55 -3 79 -46q5 -8 8 -15t5 -15q8 -35 16.5 -70t13.5 -71q5 -38 -11 -57t-55 -22q-41 -2 -81.5 -2h-81.5q-22 1 -43.5 2t-42.5 3
q-22 1 -38 5.5t-27.5 13.5t-20.5 23.5t-16 34.5q-13 36 -15 72t0 74q3 57 4 112.5t1 112.5q0 51 -1 97t-2 97q-1 5 -0.5 9.5t1.5 9.5q2 19 9 25t25 4q15 -1 48 -2t69.5 -1.5t69.5 -1.5t47 -3z" />
    <glyph glyph-name="f" unicode="f" horiz-adv-x="459" 
d="M87 23q-3 -13 -8 -25t-16 -18q-12 -8 -27 -2t-19 20q-4 19 -4 43q1 44 2.5 87.5t0.5 88.5q0 64 -1 127t-3 126q-1 28 -2.5 55.5t-3.5 54.5q-1 25 13 45q8 11 17.5 16.5t23.5 3.5q5 -1 22 -1.5t40 -0.5t49.5 -0.5t51.5 -1.5t45 -2t29 -2q14 -2 24 -7.5t17 -13t12.5 -16
t10.5 -17.5q23 -39 33 -81.5t9 -87.5q0 -36 -35 -46q-26 -7 -53 -13t-54 -10q-20 -3 -40.5 -2.5t-40.5 -0.5q-15 -1 -29.5 -1.5t-28.5 -2.5q-4 -1 -9 -5.5t-5 -8.5q-1 -5 2.5 -12.5t7.5 -10.5q5 -4 11 -4.5t12 -1.5q19 -3 38 -3q23 0 36 -10t20 -30q8 -22 -1.5 -37.5
t-32.5 -17.5q-15 -2 -30.5 0t-31.5 2q-23 0 -31.5 -7.5t-7.5 -31.5q1 -35 -2 -69t-11 -68z" />
    <glyph glyph-name="g" unicode="g" horiz-adv-x="572" 
d="M418 450q64 -5 71 -64q2 -16 4.5 -49.5t0.5 -75.5t-11 -87t-30.5 -83t-57 -64.5t-90.5 -30.5q-44 -7 -89 10q-78 29 -131 80.5t-73 135.5q-5 19 -7.5 38t-0.5 38q3 54 14 106t37 101q2 3 10 13.5t18.5 22.5t21.5 23t19 16q42 25 81.5 38t87.5 18q40 4 77 -8t63 -48
q5 -7 8 -14.5t4 -15.5q2 -10 -0.5 -19t-12.5 -14q-22 -13 -41 0q-5 3 -9 7t-9 8q-8 7 -14.5 13.5t-14.5 11.5q-17 11 -40.5 13.5t-47.5 -3.5t-47 -21t-40 -39q-8 -13 -18 -30t-18.5 -38.5t-13 -48t-0.5 -58.5q1 -2 6 -16.5t16.5 -31.5t30 -32t47.5 -16q42 -7 81 -0.5
t72 35.5q11 10 20 23t15 27q11 23 2 38t-33 17q-21 2 -42.5 0.5t-43.5 -1.5q-11 0 -21.5 -0.5t-20.5 1.5q-13 3 -22 17q-23 42 25 48q28 3 55 5.5t55 5.5l6 -0.5t15 -0.5t19 -0.5t17 -0.5z" />
    <glyph glyph-name="h" unicode="h" horiz-adv-x="542" 
d="M81 165q-2 -32 -2.5 -62.5t-2.5 -62.5q-1 -7 -1 -14.5t-3 -13.5q-2 -5 -8.5 -11.5t-14.5 -7.5q-8 0 -17.5 7t-11.5 13q-6 34 -6 71q-1 38 0 76.5t0 76.5q0 28 -1.5 55t-2.5 55q-1 39 -0.5 78.5t-0.5 78.5q0 18 -1.5 36t-1.5 36q1 11 4.5 20.5t16.5 12.5q11 3 21.5 -3
t15.5 -20q5 -16 8.5 -32t6.5 -33q2 -17 3 -33t3 -33q3 -26 27 -29q6 -1 12 -1.5t12 -0.5q16 0 26.5 -0.5t17 3t9.5 13t5 30.5q2 17 5.5 35t5.5 35q7 46 37 74t75 31q51 3 77 -37q9 -14 18.5 -28t18.5 -28q16 -26 23.5 -53t5.5 -56q-2 -42 -5 -82t-5 -81q-2 -48 -1.5 -95.5
t0.5 -95.5q-1 -14 0.5 -28.5t0.5 -28.5q-3 -38 -23 -56.5t-65 -12.5q-35 5 -68.5 19t-67.5 26q-13 5 -18 15t-5 24q0 83 -3 167q-1 26 -2 52.5t-4 52.5q-2 27 -12 35t-37 10q-21 1 -32 -0.5t-16 -8.5t-6.5 -20.5t-2.5 -35.5q-3 -34 -4 -67.5t-3 -66.5z" />
    <glyph glyph-name="i" unicode="i" horiz-adv-x="354" 
d="M14 450q0 20 8.5 32t23.5 18.5t34.5 8.5t40.5 3t45.5 -7t45 -23t33 -37t10.5 -49l-4 -24l-4 -24q-2 -14 -3 -28.5t0 -28.5q2 -37 4.5 -73.5t4.5 -73.5q2 -34 -8.5 -64.5t-22.5 -60.5q-7 -17 -22.5 -23.5t-32.5 -7.5q-14 0 -29 1t-29 2q-38 2 -65.5 30.5t-28.5 70.5
q-1 62 -3.5 123.5t-4.5 124.5l1 12t2.5 29t2.5 36t1 33zM163 646q8 -2 22.5 -6t30.5 -10q25 -10 24 -37q-1 -26 -33 -35q-20 -6 -39.5 -11.5t-39.5 -7.5q-32 -4 -60.5 7t-51.5 34q-20 20 4 36q30 20 64.5 26.5t78.5 3.5z" />
    <glyph glyph-name="j" unicode="j" horiz-adv-x="573" 
d="M422 634q17 -1 28.5 -3t18.5 -8t11 -16.5t7 -26.5q12 -78 17 -154.5t-11 -154.5q-2 -9 -8.5 -34t-16 -53.5t-21.5 -55.5t-25 -41q-75 -83 -183 -92q-38 0 -66 7t-50 18.5t-39.5 26t-34.5 28.5q-9 8 -15.5 18t-10.5 21q-12 35 -15 70.5t1 71.5q1 10 4 19t15 11
q12 3 21 -2.5t14 -15.5q2 -4 3 -19t4.5 -35.5t10 -43.5t19 -43t33 -33.5t50.5 -14.5q9 -1 15.5 8.5t11.5 23.5q5 15 8 30t4 31q0 41 -1 81t-3 82q-1 33 -2 66.5t-1 67.5q2 57 -10 109q-6 26 1.5 37.5t33.5 16.5q11 2 21.5 2.5t21.5 0.5q15 1 30.5 1h31.5l8.5 -0.5t20.5 -0.5
t25 -0.5t23 -0.5z" />
    <glyph glyph-name="k" unicode="k" horiz-adv-x="594" 
d="M412 148q-2 27 -2.5 54.5t-5.5 54.5q-8 45 -35.5 69t-72.5 28q-23 1 -28 -20q-2 -7 -2 -14v-15q-5 -61 -8.5 -121.5t-7.5 -122.5q-2 -28 -17 -46.5t-53 -23.5q-61 -9 -118 9q-32 11 -44 28t-11 51l2 74t1 74q0 54 -1 106t-2 105v91q0 11 1 21.5t2 21.5q2 26 14 43t38 22
q17 3 33.5 6.5t32.5 1.5q25 -3 49 -9.5t47 -15.5q26 -10 34 -33t10 -47q2 -14 0 -28.5t-2 -28.5q-2 -23 5 -30t29 -9q25 -2 48.5 7t40.5 25.5t26.5 39.5t8.5 49q-1 17 3.5 29t17.5 21q15 11 32 7.5t25 -20.5q5 -10 7 -22t0 -23q-9 -52 -25.5 -82.5t-32.5 -47t-28 -22.5
t-12 -8q0 -3 8 -5.5t19.5 -8t24.5 -15t24 -24.5q6 -10 13.5 -31t14 -46.5t10.5 -52.5t3 -48q-1 -40 -5.5 -79.5t-9.5 -78.5q-3 -26 -14 -36t-34 -12q-20 -1 -37 12.5t-19 36.5q-1 17 -1 41t0.5 45.5t1.5 37t2 15.5z" />
    <glyph glyph-name="l" unicode="l" horiz-adv-x="458" 
d="M94 346q0 -13 1.5 -20.5t5.5 -12t11 -7t19 -4.5q28 -4 55 -8l54 -8q14 -2 28.5 -2.5t28.5 1.5q19 3 31 -4.5t20 -22.5q11 -24 17 -49q5 -26 9.5 -51.5t9.5 -51.5q5 -24 5.5 -47.5t-7.5 -47.5q-9 -26 -20 -35.5t-39 -7.5q-29 2 -57 5.5t-57 7.5q-23 2 -47 5t-48 5
q-6 1 -12 0.5t-12 0.5q-42 8 -59.5 27t-20.5 61q-1 8 -0.5 17t0.5 17q0 57 -0.5 112.5t-0.5 111.5v168q0 14 -1 28.5t0 28.5q1 13 2.5 26t5.5 26q8 29 33 28q13 0 23.5 -8t13.5 -22q5 -19 7 -37.5t4 -38.5q1 -18 0 -36t-1 -36l-0.5 -13t-1 -31.5t-0.5 -39v-35.5z" />
    <glyph glyph-name="m" unicode="m" horiz-adv-x="688" 
d="M392 367q4 0 10.5 6.5t13.5 16t13 20t9 18.5q17 41 33 81.5t32 82.5q8 21 17 29t26 7q17 -2 26.5 -11t14.5 -29q8 -39 12.5 -78t-0.5 -79q-3 -26 0.5 -52t1.5 -52q-2 -18 -0.5 -33t3.5 -38q0 -1 1.5 -22t2 -53t-2 -69t-10.5 -69t-22.5 -53t-37.5 -21q-17 4 -19 19t-3 29
q-2 43 -4.5 86t-4.5 86q-1 34 -1.5 67t-1.5 67q-1 5 -3.5 12t-7.5 7t-8.5 -3.5t-6.5 -7.5q-11 -14 -28 -27.5t-38 -17.5q-24 -5 -39.5 -1.5t-34.5 20.5q-16 17 -21.5 33t-12.5 16q-3 0 -5 -6t-3 -13.5t-1 -15v-10.5q-2 -29 -3 -57.5t-4 -57.5q-3 -36 -9.5 -71t-20.5 -69
q-12 -28 -32.5 -41.5t-48.5 -16.5q-12 -2 -24 -2t-24 1q-56 5 -82 30t-31 80q-3 32 -3.5 64.5t-0.5 65.5q-1 48 -1 95.5v95.5q0 40 -0.5 79t0.5 79q0 22 3 43q4 21 29 29q56 17 109 8.5t104 -34.5q25 -13 39 -34.5t22 -47.5q6 -20 15 -51t20 -60t22 -49.5t21 -20.5z" />
    <glyph glyph-name="n" unicode="n" horiz-adv-x="594" 
d="M281 224q-5 0 -8 -4.5t-4.5 -11.5t-2 -14t-1.5 -13q-5 -33 -9.5 -66.5t-10.5 -66.5q-8 -43 -30 -58t-65 -7q-32 5 -60.5 16t-55.5 27q-13 8 -19.5 17.5t-6.5 24.5q0 46 -0.5 91.5t-0.5 90.5v263q0 23 1 45.5t3 45.5q1 31 33 42q38 13 74.5 14t73.5 -19q10 -5 20 -8t21 -5
q40 -10 54 -50q7 -19 14.5 -37.5t13.5 -38.5q14 -50 28 -99t27 -100q4 -15 10.5 -36t14 -40t14 -32.5t11.5 -13.5q9 0 8.5 12.5t-0.5 18.5q-2 82 -5.5 163t-5.5 163q0 17 2.5 35t5.5 36q2 9 9 16q9 7 23.5 8t28.5 -3t24.5 -14t10.5 -25v-18.5t-1 -19.5q-2 -35 -5 -69t-3 -69
q0 -42 3 -84t5 -84q1 -16 0.5 -49.5t-2 -70t-4 -68.5t-3.5 -45q-5 -44 -26 -54t-62 6q-26 11 -37 41q-18 43 -37 85.5t-36 85.5q-5 14 -13 30t-19 16z" />
    <glyph glyph-name="o" unicode="o" horiz-adv-x="697" 
d="M627 333q-3 -21 -4.5 -42.5t-5.5 -42.5q-12 -56 -39 -101.5t-66 -87.5q-30 -31 -63.5 -47t-68.5 -21t-70 -2t-67 11q-33 7 -63.5 22.5t-56 33t-42.5 34t-23 27.5q-31 59 -44.5 121t-2.5 128q2 17 5 33.5t7 32.5q17 69 61.5 113t104.5 73q39 20 80 32t86 9q10 -1 29 -3
t42 -7.5t48 -14.5t48 -24q31 -20 50.5 -53t31 -66.5t16.5 -59.5t5 -31q0 -8 0.5 -19.5t0.5 -22t0.5 -18zM287 153q9 -48 44.5 -64t78.5 7q67 36 102 104q7 13 13.5 33.5t11 45t7.5 53t3 57.5q0 31 -15.5 56t-36.5 47q-36 36 -73 36q-49 0 -79 -25t-45.5 -63t-20 -83.5
t-3 -87.5t6 -74t6.5 -42z" />
    <glyph glyph-name="p" unicode="p" horiz-adv-x="511" 
d="M21 597q1 29 33 41q46 17 91 18t92 -10q33 -8 65.5 -15.5t63.5 -21.5q19 -8 42 -23q39 -26 44.5 -66.5t-23.5 -78.5q-22 -28 -49 -47t-65 -24q-14 -2 -22 -4.5t-12 -8t-5.5 -14.5t-1.5 -23q-2 -65 -4 -129t-4 -129q-1 -17 -1.5 -33.5t-0.5 -33.5q-1 -20 -12 -31t-29 -15
q-13 -2 -26 -3t-26 1q-67 12 -131 42q-32 16 -31 49q0 29 0.5 57.5t0.5 57.5q0 57 -0.5 114.5t-0.5 114.5q0 44 1.5 86.5t2.5 85.5l1 4.5t2.5 11.5t2.5 14.5t2 12.5zM285 549q-2 -3 -3 -11.5t-1 -18v-18v-12.5q0 -7 -2 -15.5t-2.5 -16t2 -14.5t10.5 -11q7 -4 21 -0.5
t27.5 12.5t23 24.5t8.5 35.5q-3 21 -16 32t-27.5 14.5t-26.5 2.5t-14 -4z" />
    <glyph glyph-name="q" unicode="q" horiz-adv-x="667" 
d="M339 643q15 0 35.5 -4t42.5 -11.5t42.5 -19t34.5 -26.5q31 -32 58 -70q36 -50 50 -105.5t7 -116.5q-2 -18 -8.5 -36.5t-14.5 -35.5q-17 -38 -35.5 -75t-36.5 -75q-6 -13 -3 -24t8 -22q7 -17 14.5 -33t12.5 -33q5 -20 -2.5 -27t-27.5 -5q-29 3 -45.5 19t-30.5 39
q-8 13 -13 19.5t-11 9t-14 1t-23 -4.5q-61 -15 -118.5 -4.5t-114.5 32.5q-38 16 -65 55q-23 35 -41.5 71.5t-27.5 78.5q-13 66 1 127t43 118q12 24 27 46.5t33.5 41.5t41 33.5t51.5 20.5q12 2 28 5t33.5 5.5t35.5 4t33 1.5zM350 184q3 8 11.5 11t12.5 2q15 -4 29.5 -13.5
t28.5 -14.5q18 -6 22.5 -4.5t13.5 19.5q17 31 27.5 74.5t11.5 87.5t-8.5 84t-31.5 65q-14 16 -31.5 20.5t-33 3t-28.5 -7t-18 -10.5q-11 -11 -21.5 -22.5t-18.5 -24.5q-80 -136 -31 -291q9 -29 29.5 -48.5t46.5 -33.5q2 -2 6.5 -2t6.5 2q8 8 7 16q-1 12 -8 27q-3 7 -7.5 16
l-8.5 17t-6.5 15.5t-0.5 11.5z" />
    <glyph glyph-name="r" unicode="r" horiz-adv-x="573" 
d="M5 324q0 31 -0.5 62t0.5 62q2 41 4 81t4 81q1 14 8.5 18.5t18.5 9.5q52 19 104 19.5t105 -2.5q68 -4 109 -27t63 -52t28.5 -58t6.5 -44q-1 -15 -8 -34t-16.5 -37t-19.5 -32t-17 -20q-9 -9 -18.5 -13t-10.5 -8q-1 -5 10 -10.5t20 -11.5q25 -20 40.5 -44t24 -50.5t12 -54.5
t5.5 -57q1 -14 1 -28.5t1 -28.5q0 -4 0.5 -7.5t0.5 -7.5q0 -17 -4.5 -33t-21.5 -24q-17 -7 -30 3t-24 21q-14 14 -22.5 30.5t-8.5 37.5q0 23 -1.5 47t-2.5 48q-1 10 -0.5 19.5t-0.5 18.5q-4 37 -18.5 52t-50.5 18q-21 2 -28.5 -4.5t-5.5 -27.5q2 -32 5.5 -64t7.5 -64
q1 -8 -0.5 -17.5t-2.5 -17.5q-1 -15 -3 -28t-8.5 -23.5t-18.5 -17.5t-31 -10q-76 -11 -147 10q-14 4 -24.5 13t-12.5 26q-3 35 -7 83t-7.5 92t-5.5 75zM259 481q0 -17 -1 -33t1 -33q2 -12 9.5 -13.5t18.5 1.5q37 10 53.5 35t21.5 54q5 30 -17.5 47t-53.5 17q-33 0 -33 -32
q-1 -5 -0.5 -12.5t0.5 -14.5q0 -8 1 -16z" />
    <glyph glyph-name="s" unicode="s" horiz-adv-x="593" 
d="M275 662q28 0 42.5 -4.5t34.5 -11.5q21 -8 35 -23t20 -33t3.5 -37t-15.5 -36q-29 -37 -53 -32t-45 38q-5 8 -7 17.5t-6 17.5q-8 21 -32 13q-41 -16 -37 -55q2 -25 9 -40.5t33 -17.5q16 -1 41 -6t53.5 -16.5t57.5 -31t52.5 -51t38 -76t14.5 -105.5q-2 -58 -31 -99.5
t-76 -70.5q-21 -13 -46 -18l-50 -10q-47 -9 -88.5 3.5t-83.5 34.5q-48 26 -77.5 64t-45.5 88q-11 36 -12.5 73t7.5 74q2 9 10.5 19.5t20 19.5t23 15.5t19.5 6.5q22 2 39.5 -13t21.5 -38q1 -9 0 -18.5t0 -19.5q1 -22 10.5 -39t24.5 -27.5t34.5 -13.5t40.5 5q55 20 87 65
q13 19 10 33t-21 28q-21 17 -45 23t-49 10q-38 5 -65 26t-50 46q-16 16 -23.5 38t-7.5 45t7.5 45.5t21.5 41.5q7 9 18 18t29 17t44 13t64 5z" />
    <glyph glyph-name="t" unicode="t" horiz-adv-x="604" 
d="M15 653q16 0 39.5 -3t45.5 -2q53 2 106 -1.5t106 -4.5q32 -1 64.5 -3t64.5 0q17 1 28 -4t22 -16q26 -26 37 -59t19 -66q3 -13 -2 -27t-15 -25.5t-22.5 -19.5t-25.5 -9q-12 -2 -24 -1l-24 2q-8 1 -16.5 2.5t-16.5 2.5q-16 1 -25 0.5t-14 -5t-6.5 -13.5t-2.5 -25
q-5 -54 -10.5 -107.5t-10.5 -107.5q-2 -32 -3.5 -64.5t-0.5 -64.5q0 -24 -11 -37.5t-35 -14.5q-29 -2 -47.5 14t-19.5 44q-1 29 -0.5 57.5t0.5 57.5v62t-2 62q-2 26 -3 50.5t3 49.5q3 21 -3.5 28t-27.5 9q-17 1 -33.5 0t-33.5 -2h-24t-23 1q-17 0 -24 20q-8 28 -15.5 55.5
t-15.5 55.5q-3 13 -6 31.5t-4 35.5t1.5 29.5t10.5 12.5z" />
    <glyph glyph-name="u" unicode="u" horiz-adv-x="615" 
d="M251 585q-2 22 1.5 28.5t24.5 12.5q54 15 108.5 18.5t109.5 -9.5q21 -5 35.5 -27.5t10.5 -48.5q-2 -12 -4 -40.5t-5 -65t-6.5 -76.5t-7 -76t-7.5 -63.5t-7 -38.5q-4 -11 -10.5 -30t-20 -41.5t-33.5 -46t-50.5 -42.5t-72.5 -31t-97 -12q-15 0 -31.5 5t-33 13t-31 18.5
t-23.5 22.5q-11 14 -22.5 28t-22.5 28q-40 52 -43 120q-8 141 -9 282q-1 20 2.5 40.5t7.5 40.5t12 25t28 2q32 -5 43 -17t5 -43q-11 -58 -8.5 -115t3.5 -115q0 -42 2.5 -85t24.5 -83q9 -17 19.5 -32.5t27.5 -26.5t24.5 -8.5t14.5 20.5q24 57 32 117t10 122q1 22 0.5 43
t-0.5 43l0.5 15.5t0.5 38t-0.5 47.5t-1.5 43z" />
    <glyph glyph-name="v" unicode="v" horiz-adv-x="625" 
d="M371 203q7 0 8.5 5t3.5 8q16 48 32 95.5t32 95.5q15 48 29.5 96t28.5 96q7 23 27 30.5t40 -4.5q11 -6 12 -15t-2 -19q-8 -28 -15.5 -55.5t-15.5 -55.5q-12 -42 -25 -82t-25 -82q-18 -63 -34.5 -124.5t-35.5 -124.5q-13 -43 -53 -64q-8 -4 -14.5 -9t-14.5 -8
q-11 -5 -22.5 -9t-22.5 -3q-26 0 -50.5 2.5t-49.5 4.5q-47 5 -58 49q-8 30 -17.5 59.5t-17.5 59.5q-6 19 -10.5 37.5t-11.5 36.5q-17 46 -28.5 93t-16.5 97q-5 42 -13 82.5t-18 81.5q-5 17 -6 26t2 15t11 11t23 14q26 15 52.5 17t53.5 7q17 2 33.5 1.5t33.5 -0.5
q60 -1 75 -61q3 -13 4.5 -26t3.5 -26q6 -28 10 -58.5t10 -58.5q1 -6 4.5 -30.5t8.5 -55.5t11 -63t12 -53q4 -10 6.5 -21.5t9.5 -11.5z" />
    <glyph glyph-name="w" unicode="w" horiz-adv-x="990" 
d="M108 636q81 -3 145 -34q22 -11 33 -32.5t19 -44.5q26 -75 53 -149t54 -149q2 -5 4 -11t5 -11q7 -13 16 -14t17 11q4 7 11 22t13 31.5t11 31.5l7 21q4 17 15.5 26t28.5 11t27.5 -7.5t16.5 -23.5q7 -13 11 -26.5t10 -27.5q9 -22 18 -43.5t20 -43.5q5 -11 14 -11t14 11
q11 22 19 44t16 45q7 18 12 36.5t12 35.5q14 37 30.5 73t33.5 71q14 28 21.5 58.5t16.5 59.5q5 20 22 30t37 3q16 -5 23.5 -17t2.5 -32q-6 -27 -13.5 -53.5t-17.5 -52.5q-5 -12 -19 -47.5t-33.5 -83t-41 -100.5t-40 -98t-31.5 -75.5t-15 -34.5q-16 -29 -40.5 -33t-47.5 20
q-12 13 -23 27t-16 33q-3 13 -9 24.5t-13 23.5q-4 8 -11.5 8t-11.5 -7q-5 -8 -9 -17l-8 -18q-8 -19 -14.5 -37.5t-14.5 -38.5q-7 -19 -19.5 -29t-33.5 -10q-23 1 -45.5 0.5t-45.5 0.5q-14 0 -30.5 6t-33.5 15t-32 20t-25 21q-34 35 -50.5 78t-31.5 88q-13 38 -23 63.5
t-19 48.5t-19 48.5t-22 64.5q-2 5 -10 28.5t-17.5 50.5t-17.5 50t-9 28q-3 11 0.5 18.5t16.5 9.5q23 5 45.5 8.5t41.5 7.5z" />
    <glyph glyph-name="x" unicode="x" horiz-adv-x="614" 
d="M458 -11h-4q-38 5 -75.5 11t-75.5 12q-14 2 -21.5 10.5t-13.5 19.5q-14 26 -28.5 52t-28.5 52q-6 11 -14.5 10.5t-15.5 -11.5q-11 -20 -21.5 -40t-21.5 -40q-7 -13 -13.5 -25.5t-14.5 -24.5q-8 -11 -19 -18t-26 -6q-20 0 -30 12t-3 31q8 23 17 45t19 44l30 70t31 70
q17 36 -3 72q-23 40 -44 80t-41 81q-11 21 -19 43.5t-16 45.5q-2 5 -0.5 11.5t5.5 8.5q10 9 20.5 14t22.5 11q8 4 18 4.5t19 0.5q23 2 43 0.5t42 -3.5q20 -2 39.5 -8t38.5 -14q8 -3 13.5 -11.5t10.5 -16.5q17 -28 33 -55.5t32 -56.5l4 -8t5 -9q13 -20 26 -1q5 9 9.5 19
t9.5 19q16 32 31 63t31 62q4 7 10.5 13t13.5 8q19 5 31.5 -4t16.5 -29q5 -23 -3.5 -42.5t-17.5 -38.5q-19 -39 -40 -76.5t-42 -75.5q-12 -21 -16 -42.5t7 -44.5q7 -14 12 -28.5t11 -28.5q15 -33 30 -65.5t29 -65.5q12 -26 13 -51q2 -27 -13 -41.5t-43 -13.5z" />
    <glyph glyph-name="y" unicode="y" horiz-adv-x="584" 
d="M338 446q4 0 12 13t18 30.5t20.5 36.5t18.5 32q13 22 25 44t26 43q9 14 24 22q12 7 26.5 5t22.5 -10q10 -10 10.5 -21.5t-3.5 -23.5q-1 -1 -1 -2t-1 -2q-26 -46 -52 -91.5t-52 -91.5q-15 -26 -31 -51t-28 -52q-8 -18 -10.5 -39t-1.5 -41q2 -49 -1.5 -98t-13.5 -97
q-2 -8 -2 -16.5t-1 -16.5q-4 -41 -44 -38q-3 0 -21 -0.5t-40.5 -1.5t-42.5 -1.5t-27 0.5q-34 5 -47 20.5t-15 50.5q-1 31 0 62t0 62q0 44 -0.5 86.5t-2.5 86.5q0 13 -4 25.5t-9 24.5q-18 45 -37 88t-38 88q-6 15 -8 24.5t1 16.5t11.5 12.5t23.5 11.5q36 15 73 20.5t76 -5.5
q17 -5 30.5 -13.5t24.5 -22.5q24 -30 42 -63.5t32 -69.5l2.5 -10t3.5 -12t4.5 -10.5t6.5 -4.5z" />
    <glyph glyph-name="z" unicode="z" horiz-adv-x="584" 
d="M194 344q0 -3 12 -3.5t28.5 0t35 2t30.5 2.5q26 2 53 3.5t53 0.5q38 -1 59 -19.5t29 -56.5q2 -8 3 -17t1 -17q-2 -48 -3 -95.5t-2 -95.5q-1 -5 -0.5 -9.5t-0.5 -9.5q-1 -16 -4 -24.5t-9.5 -12.5t-16.5 -4t-26 2q-40 5 -80 6t-81 1q-40 1 -79.5 -1.5t-78.5 -2.5
q-35 0 -55 19t-24 54q-3 30 -5.5 60t-5.5 59q-2 14 -5 28t-8 28q-12 34 -4 62t31 52q41 42 82 81t89 73q2 1 7.5 3.5t11 6t9.5 8.5t4 12q0 5 -11.5 7t-26.5 2.5t-31 0t-25 0.5q-18 1 -42.5 7.5t-46.5 12.5q-10 3 -16 10t-4 19q1 18 20 23q13 3 26 5.5t26 3.5q60 2 119.5 3.5
t119.5 3.5q46 1 88 -22q30 -17 30.5 -42t-28.5 -45q-33 -22 -66 -43.5t-67 -41.5q-15 -9 -35 -24.5t-38 -31t-30 -28t-12 -15.5z" />
    <glyph glyph-name="guillemotleft" unicode="&#xab;" horiz-adv-x="438" 
d="M220 476q-1 -6 -9.5 -14.5t-19 -18t-21.5 -18t-18 -14.5q-7 -5 -14 -9.5t-14 -9.5q-19 -15 -26.5 -24.5t-6 -17t10.5 -15t24 -19.5q27 -21 50.5 -46.5t46.5 -51.5q5 -5 6 -12t1 -14q-2 -18 -13 -24.5t-27 1.5q-10 5 -18.5 11t-16.5 14q-62 57 -121 115q-4 3 -6.5 7
t-5.5 8q-19 23 -19.5 41t22.5 37q33 29 68.5 55t71.5 52q9 6 19 4t18.5 -8.5t13.5 -14.5t4 -14zM348 502q6 -1 16.5 -7.5t16.5 -14.5q7 -10 2.5 -20t-12.5 -18q-20 -18 -39.5 -35t-40.5 -33q-18 -14 -19.5 -23.5t15.5 -25.5q11 -11 22.5 -21t22.5 -22q20 -22 33 -46
q2 -6 1 -15.5t-4 -15.5q-5 -9 -15 -11t-20 1q-14 5 -24 15q-32 33 -64.5 66.5t-64.5 67.5q-8 9 -7 17.5t8 16.5q5 4 9.5 7.5t9.5 7.5l62 48t63 47q5 5 14 10t15 4z" />
    <glyph glyph-name="mu" unicode="&#xb5;" horiz-adv-x="833" 
 />
    <glyph glyph-name="guillemotright" unicode="&#xbb;" horiz-adv-x="427" 
d="M173 515q8 0 17.5 -5t18.5 -12q41 -31 78.5 -65t69.5 -75q9 -12 11 -24t-6 -25l-16 -24t-18 -22q-18 -20 -36.5 -38t-38.5 -35q-18 -16 -37 -22q-28 -9 -47 15q-18 21 -1 49q16 26 35.5 47.5t42.5 41.5q21 19 20.5 32.5t-21.5 33.5q-19 17 -37.5 34t-35.5 35q-8 8 -13 17
l-10 18t5.5 16.5t18.5 7.5zM104 365q1 10 -12.5 21.5t-22.5 21.5q-14 15 -31 27.5t-30 29.5q-8 11 -3.5 20.5t17.5 11.5q14 2 26.5 0t23.5 -11q29 -23 56.5 -45t55.5 -45q9 -8 18 -22q20 -29 -3 -52q-26 -27 -52 -53t-53 -52q-8 -8 -21 -10t-26 -0.5t-21 13.5q-9 13 -7 25.5
t11 23.5q14 17 27.5 33t27.5 33q5 7 12 14t7 16z" />
    <glyph glyph-name="divide" unicode="&#xf7;" horiz-adv-x="419" 
d="M308 325q-49 8 -97.5 5t-98.5 -4q-14 -1 -28.5 -1.5t-28.5 1.5q-21 3 -34.5 19.5t-13.5 37.5q-1 17 16 20q2 1 5 0.5t5 -0.5q72 -3 143.5 -6t143.5 -5q27 0 40.5 -5.5t19 -13t6 -15.5t0.5 -14t-8.5 -10t-20.5 -6.5t-25.5 -3.5t-23.5 1zM174 423q-14 1 -20.5 6.5
t-12.5 14.5q-7 11 -9 24.5t-5 26.5q-6 23 15 37q23 15 45 2q9 -5 17.5 -11t16.5 -14q12 -11 15.5 -27t-3.5 -30q-6 -13 -25.5 -21.5t-33.5 -7.5zM184 300q21 -2 39.5 -15.5t25.5 -33.5q6 -18 2.5 -29t-18.5 -20q-14 -10 -25.5 -8.5t-25.5 14.5q-15 14 -19.5 32t-8.5 37
q-2 10 7.5 16.5t22.5 6.5z" />
    <glyph glyph-name="uni0401" unicode="&#x401;" horiz-adv-x="519" 
d="M119 -21q-17 -1 -34 5.5t-31 18t-23.5 27.5t-10.5 33q-8 100 -10 198.5t-1 198.5q0 25 -0.5 50t-0.5 51q0 11 0.5 23t2.5 24q4 27 13 35t37 8q48 0 96 -1l96 -2q39 0 68 -31q19 -20 16.5 -40.5t-25.5 -35.5q-12 -7 -27 -9q-16 -2 -40.5 -2.5t-49.5 -0.5t-46.5 1.5
t-30.5 3.5q-33 7 -42 -5t-4 -47q3 -25 29 -28q15 -2 30.5 -2h31.5q6 0 12 1t12 1q38 3 42 -20q3 -15 -7 -28.5t-28 -15.5q-15 -2 -30.5 -0.5t-31.5 2.5q-6 1 -11.5 3t-11.5 3q-8 1 -14 -3.5t-6 -12.5q0 -39 3 -76q2 -11 9 -16.5t18 -7.5q13 -3 24 -2q46 8 91 2.5t90 -7.5
q40 -2 66 -24.5t36 -66.5q6 -27 11 -54t12 -54q10 -39 -7.5 -60.5t-49.5 -24.5q-38 -3 -76.5 -5t-76.5 -4q0 1 -13 1t-32 -0.5t-39.5 -1.5t-35.5 -2zM269 677q-14 0 -27.5 6t-24.5 15t-19 21t-10 25q-1 5 2.5 10.5t7.5 7.5q28 10 57.5 -2.5t42.5 -40.5q8 -20 1 -31t-30 -11z
M60 764q3 0 11.5 -1t18.5 -4t19.5 -9t12.5 -16q2 -7 2 -16t-3 -15q-5 -8 -15 -10.5t-19 2.5q-11 5 -20 12t-18 15q-7 5 -11 12.5t1 15.5q8 12 21 14z" />
    <glyph glyph-name="uni0410" unicode="&#x410;" horiz-adv-x="664" 
d="M470 -37q-25 -2 -51.5 0t-53.5 13q-18 8 -27 19.5t-12 29.5q-4 28 -9.5 54.5t-7.5 54.5q-3 44 -45 47q-26 3 -52.5 2.5t-52.5 -0.5q-14 0 -18.5 -9.5t-8.5 -19.5q-14 -32 -27.5 -64t-26.5 -64q-6 -16 -17.5 -23t-25.5 -10q-15 -3 -22.5 5t-5.5 22q2 10 5 19t5 18
q17 78 42.5 152.5t51.5 149.5q13 35 23 70.5t21 70.5q9 30 19 59.5t19 58.5q8 24 22.5 32t28.5 10q7 1 28.5 -1t49 -7t56.5 -13.5t51 -20.5q11 -6 16 -14.5t7 -19.5q6 -30 14.5 -54.5t17.5 -50.5q11 -29 20 -59t16 -60q17 -82 33.5 -164t33.5 -165q6 -31 -4.5 -46.5
t-42.5 -20.5q-16 -3 -33 -2t-37 1zM239 455q-5 2 -8 -3t-4 -7q-24 -71 -45 -141q-2 -8 -4 -16.5t-3 -16.5q-1 -27 25 -26q14 1 28.5 3.5t28.5 4.5q17 4 22.5 11.5t3.5 24.5q-5 23 -8.5 45t-9.5 44q-3 9 -6 22t-6.5 25t-7 20.5t-6.5 9.5z" />
    <glyph glyph-name="uni0411" unicode="&#x411;" horiz-adv-x="500" 
d="M189 553q-20 2 -38.5 3t-38.5 2q-24 1 -22 -23q1 -6 1 -12v-12q1 -22 7 -28t26 -9q24 -4 48 -6.5t47 -7.5q52 -8 89.5 -34t62.5 -56.5t38 -58t16 -38.5t5 -35t3 -51.5t0.5 -52.5t-3.5 -38q-11 -36 -47.5 -59.5t-82.5 -38t-93 -22t-80 -11.5q-14 -2 -26.5 -0.5t-23.5 8.5
q-30 18 -49.5 42t-18.5 64q2 84 0 166t-2 165q0 23 2 45.5t2 45.5q1 26 0.5 50.5t-0.5 50.5q1 9 1.5 18.5t2.5 18.5q8 34 39 27q51 -12 102 -13.5t102 -6.5q5 0 9.5 -0.5t9.5 -1.5q23 -5 36.5 -22.5t8.5 -40.5q-1 -7 -7 -14t-12 -10q-18 -7 -43 -7q-9 0 -21 0.5t-23.5 1.5
t-19 1h-7.5zM141 251q32 3 65.5 11t66.5 23q4 2 12 8q6 6 4.5 21.5t-13.5 26.5q-9 9 -32.5 15.5t-50 10.5t-49.5 5.5t-32 0.5q-21 -3 -20 -22q1 -17 2 -33t3 -33q2 -19 11 -25.5t33 -8.5z" />
    <glyph glyph-name="uni0412" unicode="&#x412;" horiz-adv-x="508" 
d="M10 277q1 29 1.5 61t0.5 64q0 49 -1 97.5t-2 98.5q-1 3 -1 9q0 21 1 34.5t8 21.5t21 11.5t39 4.5q49 1 96 -12t86 -49q32 -29 42.5 -65.5t1.5 -71.5q-5 -18 -10.5 -27t-10.5 -13.5t-8 -6t-2 -3.5q2 -5 11 -7t16 -4q3 -1 18.5 -5.5t34.5 -12t37 -17t26 -21.5
q24 -35 31 -85t3.5 -99t-14 -89.5t-20.5 -56.5q-23 -38 -59 -67t-83 -35q-38 -5 -76.5 -3.5t-76.5 3.5q-12 1 -24.5 8t-20.5 15q-16 17 -29.5 34.5t-26.5 36.5q-4 5 -5 12.5t-1 14.5q-2 48 -3 95.5t-3 95.5q0 8 1 15t2 18zM131 193q21 4 49.5 8t57.5 9q18 3 34 16
q19 14 29.5 32.5t5.5 40.5q-4 21 -21 32.5t-38 16.5q-29 5 -56.5 10t-56.5 10q-28 5 -39.5 -4.5t-11.5 -37.5q0 -26 1.5 -52.5t3.5 -52.5q1 -16 8.5 -21t33.5 -7zM95 532v-15q0 -6 -0.5 -12t0.5 -11q2 -12 9 -17t18 -3q28 5 52 16t43 34q11 14 8 27t-20 18q-40 11 -75 14
q-20 2 -26.5 -5t-8.5 -27v-19z" />
    <glyph glyph-name="uni0413" unicode="&#x413;" horiz-adv-x="492" 
d="M356 560q-15 1 -30.5 1.5t-31.5 0.5q-19 -1 -25 -6.5t-7 -25.5q-2 -43 -5.5 -85.5t1.5 -85.5q8 -67 8 -134t-5 -134q-3 -42 -17 -84q-8 -25 -35 -39.5t-59 -12.5q-35 3 -65 17t-57 34q-5 4 -8.5 11t-4.5 14q-3 33 -3 66q1 24 3 48t1 48q-1 94 -2 186.5t-3 186.5
q0 8 -1 16.5t-1 17.5q-1 24 17 41t42 11q60 1 117.5 -3.5t116.5 -9.5q16 -1 31.5 -1t30.5 -2q40 -3 64 -30q5 -5 7 -12l4 -14q8 -29 -21 -27q-15 1 -30.5 2.5t-31.5 3.5v1z" />
    <glyph glyph-name="uni0414" unicode="&#x414;" horiz-adv-x="792" 
d="M620 519q-2 -14 -3 -25.5t-1 -24t0.5 -28t2.5 -36.5q21 -102 7 -210q-4 -26 -0.5 -52t0.5 -52t7.5 -38.5t37.5 -15.5q8 -1 16.5 -0.5t16.5 -0.5q41 -5 39 -44q-2 -24 -11.5 -44.5t-23.5 -37.5q-7 -9 -20 -11.5t-25.5 1t-23 12t-13.5 20.5q-6 29 -22 36.5t-39 8.5
q-34 2 -67 4.5t-67 3.5q-33 1 -66.5 -1t-66.5 -3q-22 0 -43.5 0.5t-42.5 0.5q-20 -1 -39 -1.5t-38 -2.5q-13 -1 -16.5 -7t-1.5 -19q0 -4 1.5 -7t2.5 -7q9 -49 -37 -39q-42 8 -60.5 31t-19.5 65q0 14 4.5 23t18.5 14q13 5 25 9.5t26 6.5q38 6 55 40q21 45 38.5 90t18.5 96
q1 64 2 127t3 127q1 20 4.5 33.5t5.5 33.5q3 28 29 34q36 10 72 16.5t74 1.5q37 -4 74 -1.5t74 3.5q14 1 28.5 1t28.5 -2q20 -3 27 -10.5t8 -27.5q2 -20 1 -41.5t-1 -49.5zM305 68h30.5t36.5 1q19 2 24 8t4 26q-1 3 -1 9q-5 42 -5 82t-1 82q-1 47 -1.5 94t1.5 94
q1 26 2.5 44t0.5 44q0 14 -11.5 21t-31.5 7q-16 1 -35 -4.5t-21 -22.5q-3 -34 -4 -61.5t-3 -60.5q-1 -29 -2.5 -62t-3 -64t-3.5 -56t-4 -37q-2 -11 -7.5 -25t-12 -30.5l-13 -33t-12.5 -31.5q-13 -31 20 -28q14 1 28 2.5t25 1.5z" />
    <glyph glyph-name="uni0415" unicode="&#x415;" horiz-adv-x="480" 
d="M282 642q20 -2 37 -10.5t28 -25.5q12 -19 5 -34t-29 -17q-20 -2 -38 3q-38 8 -76.5 7.5t-76.5 -1.5q-23 -1 -29 -8.5t-7 -30.5q0 -24 1 -37t8 -20t20 -9.5t37 -3.5q27 -1 56 -11q6 -2 11.5 -7t9.5 -11q12 -17 4.5 -33.5t-28.5 -19.5q-9 -1 -18.5 -0.5t-19.5 0.5l-33 3
q-15 1 -24.5 -0.5t-14.5 -6t-7 -14t-2 -24.5q-1 -12 -1 -24t2 -24q2 -17 8 -22t23 -7q11 -2 21.5 -1.5t21.5 -0.5q16 -1 36.5 -2.5l41 -3t40.5 -2.5t37 -1q34 0 52 -18t29 -44q6 -14 10 -41.5t6.5 -57t2 -55t-3.5 -34.5q-10 -25 -36 -24q-8 0 -14.5 0.5t-14.5 0.5
q-63 5 -124 10.5t-124 10.5q-21 1 -42 6q-28 6 -42.5 24.5t-14.5 47.5v363q-1 38 -1 76.5v76.5q0 6 -0.5 12t1.5 12q4 18 13.5 26.5t29.5 9.5q27 1 54.5 0.5t55.5 -1.5q0 1 13 1h32t39 -1t35 -2z" />
    <glyph glyph-name="uni0416" unicode="&#x416;" horiz-adv-x="719" 
d="M530 402q26 -37 49 -70t45 -65q5 -6 7.5 -12.5t4.5 -13.5q16 -57 18.5 -113.5t-6.5 -114.5q-2 -12 -13 -18q-11 -7 -23.5 -7t-23.5 6t-18.5 16.5t-7.5 23.5q-1 23 0 45.5t-2 45.5q-4 35 -9.5 70.5t-13.5 70.5q-9 40 -36.5 63t-62.5 41q-11 -16 -11 -31.5v-30.5v-245
q0 -53 -22.5 -72t-76.5 -11q-15 2 -30.5 3.5t-31.5 3.5q-40 5 -61.5 22t-25.5 56q-5 44 -8.5 87.5t-7.5 88.5q-2 20 -3 38.5t-3 37.5q-1 5 -4 10t-6 5q-5 0 -11 -2t-9 -6q-9 -14 -18.5 -28t-14.5 -30q-14 -40 -15.5 -81.5t6.5 -83.5q2 -17 5.5 -33t5.5 -33q4 -16 1 -28
q-2 -18 -18 -23.5t-29 7.5q-5 5 -9.5 12.5t-6.5 15.5q-16 57 -23 114.5t4 117.5q8 38 26.5 67t40.5 57q7 10 11 16t4 11t-4 10.5t-13 14.5q-27 26 -42.5 57.5t-26.5 66.5q-10 32 2 66q11 34 40 34q15 1 28.5 -8t18.5 -25q4 -14 4.5 -28.5t2.5 -28.5q2 -13 3.5 -26t3.5 -26
q2 -7 5.5 -13.5t7.5 -11.5q3 -3 8 -5.5t9 -1.5q3 1 6 5.5t4 8.5q2 12 2 24t2 24q2 17 4.5 35t5.5 36q5 25 26 32q17 6 34 12.5t34 6.5q38 -1 75.5 -8t71.5 -28q26 -17 34.5 -35t2.5 -50q-2 -13 -4 -25.5t-2 -26.5q-1 -25 28 -25q18 0 34.5 7.5t29 20t20.5 29t8 34.5
q0 12 -1 24t1 24q1 14 9 22.5t20 10.5q11 2 21.5 -4t15.5 -20q8 -22 9.5 -43.5t-6.5 -44.5q-14 -41 -36.5 -72.5t-62.5 -48.5z" />
    <glyph glyph-name="uni0417" unicode="&#x417;" 
d="M205 676q44 4 84 -10.5t78 -34.5q30 -15 52 -44t34 -63.5t12 -70t-16 -63.5q-12 -22 -27 -36t-28.5 -22.5t-23 -13t-9.5 -7.5q0 -4 10.5 -9t23.5 -16t24 -30.5t11 -50.5q0 -11 -2.5 -30.5t-9 -42t-17.5 -45t-28 -37.5q-14 -12 -29 -21.5t-29 -20.5q-20 -15 -43.5 -20
t-47 -1t-44 16.5t-33.5 33.5q-15 25 -29.5 49.5t-20.5 53.5q-4 19 -5 37.5t6 38.5q5 16 13 22t25 7q14 1 26 -4t17 -19q4 -11 6.5 -23t4.5 -23q2 -10 2 -19.5t2 -18.5q4 -18 14 -29.5t23.5 -16.5t28.5 -2.5t30 13.5q38 28 55 70q12 28 1 56q-12 34 -48 34q-6 0 -12 -1.5
t-12 -2.5q-29 -4 -48 13.5t-16 46.5q1 6 6 12.5t10 8.5q13 4 26 5.5t26 4.5q27 6 46 14.5t31.5 21t20.5 31.5t14 46q2 6 1.5 13.5t-2.5 13.5q-2 7 -9.5 13t-17 9t-21 2t-21.5 -9q-7 -6 -18 -18t-23 -26t-23.5 -27t-18.5 -19q-13 -11 -29.5 -19t-34.5 -10q-30 -5 -52 17
q-8 7 -25 29.5t-35 46.5t-32 44t-15 22q-7 18 -7.5 30t4.5 21.5t15 17t24 16.5q35 22 72.5 36t82.5 10z" />
    <glyph glyph-name="uni0418" unicode="&#x418;" horiz-adv-x="605" 
d="M427 296v20.5t0.5 39t1 48.5t1.5 49q1 36 3.5 71.5t4.5 71.5q0 12 6 23q7 14 18.5 17.5t24.5 -4.5q12 -7 21 -16.5t10 -23.5q2 -20 2.5 -40.5t-0.5 -41.5q-1 -29 -2.5 -57t-2.5 -57q0 -21 1 -42.5t2 -43.5q2 -61 3 -121.5t3 -122.5q2 -14 0 -28q-6 -44 -41 -45
q-25 0 -43.5 14t-16.5 35q2 20 3 40.5t1 40.5q0 14 2.5 29.5t-11.5 23.5q-12 5 -24 -4.5t-23 -18.5q-32 -28 -63 -55.5t-63 -53.5l-15 -12.5t-19 -15t-19.5 -13.5t-15.5 -7q-21 -5 -43 -5.5t-43 1.5q-30 2 -48.5 19t-23.5 47q-5 32 -8 64t-3 64q2 64 5.5 127.5t5.5 126.5
q1 34 -1 67.5t0 66.5q1 25 5.5 42t15 29t27 20t41.5 13q20 5 39.5 5.5t39.5 -9.5q32 -14 46.5 -39t17.5 -55q8 -69 10 -132.5t7 -131.5q2 -18 1 -40t-3 -39q-1 -9 -1.5 -17.5t0.5 -16.5q1 -16 8.5 -20t19.5 6q9 7 31 19t45.5 27t41.5 30.5t18 30.5z" />
    <glyph glyph-name="uni0419" unicode="&#x419;" horiz-adv-x="573" 
d="M8 419q-1 22 -1 43.5v42.5v38.5t-1 38.5q-1 13 -0.5 21.5t3.5 14t10 10t19 9.5q20 9 39.5 17.5t40.5 13.5q61 12 114 -21q23 -14 28 -34.5t6 -46.5q2 -62 -2 -122t1 -121q2 -29 1.5 -57.5t0.5 -57.5q0 -2 0.5 -10t2 -17.5t4 -18t6.5 -11.5q6 -5 24 3t37.5 19t35.5 22.5
t19 14.5q6 7 10 20t5 21q3 54 4.5 107.5t4.5 107.5q2 32 1.5 62.5t2.5 61.5q1 8 6 15.5t17 8.5q11 0 22 -8t14 -15q3 -8 3.5 -16.5t1.5 -16.5q4 -39 0 -78t0 -79q1 -6 1 -12v-12q1 -84 1.5 -167t1.5 -168q0 -3 -0.5 -6.5t-0.5 -7.5q-2 -22 -11 -31t-26 -11q-16 -2 -31 9
t-19 28q-2 14 -3 28.5t-3 28.5q-4 26 -12.5 30.5t-30.5 -10.5q-21 -15 -42 -31l-42 -32q-25 -19 -52 -33t-60 -14q-2 0 -23.5 1t-47 8.5t-47 23.5t-21.5 47q-2 18 -1 36l2 36q-2 53 -5 104q-2 44 -4 91t-4 82zM344 642q-19 1 -29.5 9.5t-10.5 22.5t10 22t26 6
q17 -1 28.5 -10t11.5 -21q-1 -14 -11 -22t-25 -7z" />
    <glyph glyph-name="uni041A" unicode="&#x41a;" 
d="M396 70q3 21 6.5 42t5.5 43q1 17 2 41t-2.5 48t-14 44t-31.5 29q-23 7 -44 11.5t-44 2.5q-5 1 -11.5 -5t-8.5 -11q-5 -25 -2 -48q5 -61 0.5 -121.5t-7.5 -121.5q-1 -16 -2.5 -24t-6.5 -11.5t-14.5 -5t-24.5 -4.5q-10 -2 -30.5 -2t-43 1.5t-42 3.5t-28.5 4q-21 5 -33 24
t-13 41q-2 26 -1 50.5t1 50.5q-2 100 0 201q1 56 2.5 111.5t2.5 112.5q2 36 33 47q16 6 31 13t32 10q51 11 86.5 -13.5t45.5 -75.5q5 -23 7.5 -47t5.5 -47q2 -14 6 -22.5t17 -8.5q15 0 37.5 13.5t40.5 36t27 52t-2 61.5q-5 12 -3.5 22.5t15.5 18.5q14 7 30 3t27 -18
q10 -13 15 -30.5t6.5 -34.5t0.5 -31.5t-3 -20.5q-12 -32 -27.5 -49.5t-30 -28t-24 -16t-9.5 -13.5q0 -3 5 -6.5t12.5 -7t16 -7t14.5 -7.5q26 -14 46.5 -35.5t28.5 -41.5q8 -19 10.5 -51.5t0.5 -71.5t-7 -79.5t-12.5 -73.5t-16.5 -55t-18 -24q-10 -2 -24 1t-25 11
q-17 13 -17.5 30t1.5 37q0 7 1 16t2 17z" />
    <glyph glyph-name="uni041B" unicode="&#x41b;" horiz-adv-x="614" 
d="M406 269q0 47 0.5 93t-0.5 93q0 16 -2.5 31.5t-5.5 30.5q-5 19 -19.5 26t-31.5 -3q-22 -14 -37.5 -50.5t-25.5 -85t-15.5 -101.5t-8.5 -98.5t-4 -78t-1 -39.5q0 -20 -7 -34.5t-18 -24.5t-25.5 -17t-29.5 -13q-25 -10 -55 -16q-14 -3 -31.5 0t-33 10.5t-27 19.5t-14.5 26
q-8 54 -7 107.5t11 107.5l10 64t15 62q13 38 28.5 75.5t46.5 66.5q42 40 88 71t103 42q41 9 82 9t83 -12q37 -10 40 -48q3 -61 6.5 -121t-1.5 -122q-5 -60 -6.5 -119.5t10.5 -119.5q3 -17 3.5 -35.5t-0.5 -36.5q-2 -31 -29 -31q-29 0 -61 8q-17 5 -21 18.5t-5 28.5
q-1 29 -2 57.5t-1 57.5q-1 26 -1 50.5v50.5z" />
    <glyph glyph-name="uni041C" unicode="&#x41c;" horiz-adv-x="698" 
d="M311 320q-3 0 -3.5 -20.5t0.5 -49t2.5 -60.5t2.5 -54q2 -34 -0.5 -61.5t-9.5 -56.5q-5 -25 -16 -31t-36 -1q-15 3 -30.5 6.5t-30.5 6.5q-20 4 -39.5 6.5t-40.5 0.5q-45 -5 -70 17t-28 68q-2 31 -2 62t-1 62q-2 76 -3 151t-1 151q0 24 3 48t5 47q2 17 11.5 25.5t25.5 13.5
q38 12 76 14.5t78 -11.5q50 -18 75 -55.5t42 -81.5q11 -28 20 -56t19 -57q11 -38 43 -68q31 -30 55 7q5 8 8.5 17t6.5 17q20 55 33 110.5t20 113.5q4 30 14.5 42.5t31.5 12.5q38 0 44 -54q2 -24 1 -48t-1 -48q1 -61 2.5 -122t1.5 -122q0 -40 -2 -79t-3 -79q0 -18 1.5 -36
t3.5 -36q0 -5 1 -9.5t1 -9.5q2 -32 -22 -38q-14 -3 -27.5 4t-18.5 21q-3 9 -4 18.5t-1 19.5q-2 65 -3 129t-2 129q0 9 -1 21.5t-2.5 24.5t-4 20.5t-5.5 8.5t-8 -8t-11 -18.5t-12.5 -22.5t-11.5 -19q-17 -26 -37 -33.5t-38.5 -6.5t-33 7.5t-19.5 9.5t-12.5 9.5t-14.5 13
t-13 12t-9 5.5z" />
    <glyph glyph-name="uni041D" unicode="&#x41d;" 
d="M15 223q2 26 3.5 52.5t0.5 52.5q0 43 -1 86t-3 86q-1 25 -3 50l-4 50q-1 23 20 34q33 16 60.5 1.5t30.5 -51.5q3 -38 3 -76t2 -76q0 -6 -1 -12t0 -12q0 -11 5.5 -18.5t16.5 -8.5q19 -2 38 -2.5t38 0.5q14 0 22 8t10 22q1 14 1.5 28.5t0.5 28.5q3 55 3 110q1 12 5.5 20.5
t15.5 14.5q40 21 81 27t85 -8q17 -5 29 -14t18 -25q7 -20 14.5 -41t7.5 -41q0 -54 -0.5 -107.5t-9.5 -107.5q-8 -51 -14 -101.5t-1 -102.5q2 -11 0 -23l-4 -24q-4 -34 -24 -51.5t-51 -23.5q-48 -9 -91 2q-57 15 -62 76q-3 47 -5.5 93t-4.5 93q-1 26 -3.5 41t-9.5 22.5
t-21 9.5t-39 3q-23 1 -35.5 0.5t-19 -6.5t-8 -18.5t-1.5 -35.5q-2 -47 -0.5 -93t3.5 -93q0 -16 -1 -31.5t-18 -23.5t-33 -4.5t-31 11.5q-13 8 -16 18t-3 23q1 36 1 72t1 72q0 6 0.5 12t0.5 12h1z" />
    <glyph glyph-name="uni041E" unicode="&#x41e;" horiz-adv-x="646" 
d="M299 2q-17 0 -44.5 4.5t-59 14.5t-62.5 26.5t-54 40.5q-42 43 -55 99q-21 82 -14.5 161.5t44.5 155.5q31 47 79.5 73t97 38t89.5 14.5t58 3.5q49 3 84.5 -18t61.5 -59q29 -44 47 -93t11 -105q-6 -48 -14 -94t-27 -91q-37 -86 -115 -138q-27 -17 -59.5 -24t-67.5 -9z
M255 295q3 -19 5 -38t7 -38q5 -25 16 -47t32 -39q20 -16 34 -15.5t36 11.5q18 8 39 39t39.5 67.5t31.5 71t14 50.5q3 32 -1.5 71.5t-24.5 74.5q-13 23 -29 35.5t-39 19.5q-18 4 -31 5t-23.5 -2.5t-19.5 -12.5t-20 -24q-38 -51 -56 -108t-10 -121z" />
    <glyph glyph-name="uni041F" unicode="&#x41f;" horiz-adv-x="594" 
d="M11 586q0 13 0.5 20.5t3.5 12t10 6t20 3.5q20 3 40 2l40 -2q46 -1 91 2.5t90 7.5q20 2 40.5 5.5t40.5 5.5q22 2 38 -7t31 -26q27 -31 28.5 -64.5t-4.5 -67.5q-8 -54 -5 -105.5t8 -104.5q5 -49 7.5 -97.5t-5.5 -97.5q-3 -25 -13 -46q-25 -63 -95 -55q-22 3 -43 6t-42 8
q-37 8 -42 46q-2 11 -4 21.5t-3 21.5q-4 78 -7.5 155.5t-6.5 155.5q-1 33 -1 66.5t-1 67.5q0 14 -4.5 20t-19.5 8q-23 2 -45.5 1.5t-45.5 -1.5q-11 0 -15 -7t-5 -16v-31.5t2 -30.5q2 -23 2.5 -56t0.5 -69.5t-1 -73.5t-2.5 -68.5t-2.5 -53.5t-2 -28q-3 -21 -3 -42.5t-4 -42.5
q-2 -12 -8 -22q-4 -5 -15.5 -8.5t-16.5 -3.5t-10 3.5t-7 8.5q-10 20 -10 37q-2 65 -3 129.5t-3 129.5q1 0 1.5 30t1 73.5t0.5 91t-1 82.5z" />
    <glyph glyph-name="uni0420" unicode="&#x420;" horiz-adv-x="542" 
d="M322 644q36 -5 61 -21t40.5 -34.5t23 -37t8.5 -29.5q6 -39 -0.5 -67t-21 -47.5t-33.5 -31.5t-36.5 -19t-30.5 -9.5t-15 -2.5q-23 -2 -37 -3.5t-21.5 -8.5t-10 -23.5t-0.5 -47.5q3 -52 6 -103t4 -102q1 -17 -3.5 -33t-8.5 -33q-4 -14 -14.5 -21.5t-24.5 -9.5
q-30 -2 -59.5 -0.5t-56.5 18.5q-11 8 -22.5 14t-23.5 11q-20 8 -27 22.5t-7 34.5q-2 85 -3.5 167.5t-2.5 167.5q0 49 2 97.5t4 98.5q1 27 27 41q28 14 56.5 20t59.5 1q7 -1 29.5 -2t48.5 -1.5t51 -2t38 -3.5zM252 460q-1 -20 7 -30.5t28 -10.5q16 0 33 2.5t32 9.5
q13 6 22 20.5t11.5 31.5t-1 33.5t-14.5 27.5q-16 16 -39.5 21.5t-44.5 5.5q-11 0 -17 -7.5t-8 -18.5q-1 -7 -2.5 -20t-3 -26.5t-2.5 -24.5t-1 -14z" />
    <glyph glyph-name="uni0421" unicode="&#x421;" horiz-adv-x="593" 
d="M5 311q1 6 3.5 26t8.5 47.5t17.5 60.5t30.5 65t47 61t67 49q38 20 79.5 26t84.5 1q54 -7 92.5 -43t45.5 -89q3 -20 -6 -36q-3 -6 -10.5 -11t-14.5 -7q-10 -2 -16 4.5t-8 14.5q-6 20 -11 35.5t-17 32.5q-2 2 -9 7.5t-18 9t-24.5 2.5t-28.5 -10q-14 -9 -27.5 -40.5
t-21.5 -73t-10 -87.5t7 -85q1 -6 5 -22t9.5 -36t13.5 -42t17.5 -40t21 -29.5t25.5 -10.5q13 0 24.5 5.5t20.5 13t15.5 16t8.5 15.5q7 20 14 40.5t14 40.5q4 11 10 19.5t20 6.5q12 -1 19.5 -8t11.5 -18q9 -26 3.5 -49.5t-19.5 -42.5q-27 -36 -57 -70t-75 -52q-44 -18 -88 -14
q-36 4 -70.5 11t-66.5 27q-42 26 -71 60t-43 82q-8 34 -16 67.5t-8 69.5z" />
    <glyph glyph-name="uni0422" unicode="&#x422;" horiz-adv-x="570" 
d="M400 648q29 2 47 -10t28 -35q14 -35 27 -69t17 -72q4 -36 -16 -54.5t-56 -10.5q-11 2 -21 5t-21 6q-6 2 -12 2.5t-12 1.5q-20 3 -31.5 2.5t-17.5 -6t-7 -17.5t0 -31q4 -63 8 -126.5t8 -126.5q1 -20 1 -41t-2 -41q-3 -34 -31 -37q-26 -3 -41 25q-11 21 -15 43t-3 46
q2 49 3 97.5t0 98.5q0 23 -3.5 45t-6.5 45q-3 19 -10.5 26t-27.5 9q-19 2 -38 2.5t-38 0.5q-23 0 -38.5 2.5t-26.5 10t-19 21t-16 34.5q-10 25 -13 51t-8 52q-5 29 5.5 40.5t41.5 11.5h177l18.5 -1t44.5 -1.5t55 -0.5t50 2z" />
    <glyph glyph-name="uni0423" unicode="&#x423;" horiz-adv-x="593" 
d="M467 619q19 -3 30 -17t16 -32q3 -10 5 -19t3 -19q3 -45 5.5 -88.5t4.5 -88.5q1 -17 -1 -49t-5 -70q-4 -38 -15.5 -75t-31.5 -71q-9 -15 -24.5 -30t-39.5 -27t-57 -20t-75 -8q-52 0 -91.5 8t-68 19t-47 24t-28.5 22q-40 37 -34 95q2 18 8.5 25t23.5 10q16 3 25.5 -1.5
t15.5 -20.5q5 -12 7 -25.5t5 -25.5q6 -20 23 -35t36 -25q17 -10 37 -3t31 21q8 10 12 20.5t6 22.5q6 29 9 59t5 59q2 15 -4.5 20.5t-20.5 7.5q-10 2 -19 0q-48 -2 -86 19t-73 50q-21 18 -28.5 43.5t-12.5 51.5q-6 29 -7 59t6 60q2 10 6 20t10 19q5 9 14 11t20 0
q23 -3 26 -24q2 -11 2 -21.5v-21.5q2 -29 2.5 -57.5t2.5 -57.5q3 -53 52 -73q17 -7 33.5 -13t35.5 -4q24 2 35.5 13t10.5 35q-2 35 -4.5 69.5t-4.5 69.5q-1 17 -1.5 33.5t0.5 33.5q0 14 8 22t22 9q11 0 36.5 -0.5t54.5 -2t55.5 -3t38.5 -3.5z" />
    <glyph glyph-name="uni0424" unicode="&#x424;" horiz-adv-x="696" 
d="M266 613q81 5 146.5 -18.5t126.5 -61.5q32 -20 53.5 -51t32.5 -67q16 -51 21 -103.5t-15 -103.5q-22 -57 -61 -98.5t-99 -62.5q-41 -14 -81 -22t-83 -8q-14 0 -21.5 -1.5t-12 -6t-7 -13t-5.5 -21.5q-2 -10 -2.5 -19.5t-2.5 -18.5q-5 -29 -14.5 -39.5t-27.5 -7.5
q-19 2 -25.5 14.5t-4.5 39.5q1 30 6 62q2 17 -3.5 28t-21.5 18q-19 9 -42.5 25.5t-45.5 40.5t-40 54t-26 66q-6 56 -4.5 111.5t15.5 111.5q12 49 49 80q89 75 195 72zM80 256q4 -30 14.5 -57t34.5 -51q11 -11 29 -19t26 -10q5 -1 7 9t4 21q2 13 2 30v238q-1 20 -1 38.5
t-2 38.5q-3 31 -30 15q-42 -23 -60 -60.5t-25 -80.5q-4 -28 -2.5 -55.5t3.5 -56.5zM360 404q-5 13 -13 36.5t-22 36.5q-3 3 -9 6.5t-10 1.5q-4 -1 -7.5 -7t-3.5 -11q-1 -26 -0.5 -52.5t0.5 -52.5q-2 -53 -3 -105l-2 -104q0 -4 0.5 -7.5t0.5 -7.5q2 -6 7.5 -8t10.5 2
q13 12 23.5 30t15.5 35q10 28 14 61.5t4 64t-2 53t-4 28.5z" />
    <glyph glyph-name="uni0425" unicode="&#x425;" horiz-adv-x="570" 
d="M424 -5q-40 -2 -65.5 -2t-43 7t-30.5 23.5t-27 47.5q-8 18 -16 35.5t-16 34.5q-3 6 -6.5 12.5t-8.5 11.5q-14 17 -27 -2q-4 -6 -6.5 -12.5t-6.5 -13.5q-18 -29 -35.5 -59t-37.5 -59q-25 -37 -67 -21q-29 10 -20 37q5 15 11 29t13 28q24 51 48.5 101.5t49.5 101.5
q5 12 6 23t-6 22q-31 50 -51 103.5t-47 104.5q-4 7 -8.5 13.5t-9.5 13.5q-11 17 -10 26t18 22q11 8 37.5 16.5t57 13t59 1.5t42.5 -17q6 -7 16 -17.5t20.5 -24t20 -29t14.5 -30.5t12 -28.5t15 -27.5q6 -11 14.5 -10.5t15.5 11.5q8 14 14.5 28t13.5 28q9 17 16.5 34t17.5 34
q12 21 31 29.5t43 6.5q36 -5 32 -39q-2 -13 -5 -26t-9 -24q-26 -43 -41 -89t-33 -92q-13 -35 -12.5 -63.5t17.5 -61.5q20 -38 33 -78.5t28 -81.5q7 -21 12.5 -37t0 -27t-24.5 -18t-59 -9z" />
    <glyph glyph-name="uni0426" unicode="&#x426;" horiz-adv-x="666" 
d="M392 311v202q0 16 7.5 28t19 18.5t26 7t28.5 -6.5q17 -10 20 -31q2 -17 3.5 -54t1.5 -83.5v-97t-0.5 -95t-1 -77.5t-0.5 -44q-1 -11 6.5 -16.5t18.5 -5.5q8 -1 14.5 -0.5t14.5 -0.5q15 -1 23.5 -3.5t13.5 -8t7 -15t3 -24.5q1 -19 -6 -38t-21 -34.5t-34.5 -26t-46.5 -12.5
q-12 -2 -17 5.5t0 18.5q5 14 11 26.5t11 26.5q5 17 -13 22q-2 1 -4.5 1t-4.5 1q-42 1 -84 3t-84 1l-98 -4t-97 9q-12 3 -23 7l-22 8q-32 8 -41.5 30.5t-10.5 50.5v69.5t-2 69.5q-5 57 -3.5 112.5t5.5 112.5q2 32 4.5 64.5t4.5 64.5q1 17 10.5 26.5t22.5 16.5q8 5 17.5 8
t19.5 3q31 2 62 3t62 -1q26 -2 37 -14.5t11 -38.5q0 -16 0.5 -31.5t-3.5 -30.5q-5 -23 -6 -54.5t-0.5 -61.5t1.5 -51.5t1 -22.5q-1 -41 2.5 -81t1.5 -81q-1 -20 1.5 -40.5t2.5 -40.5t7 -27t27 -8q31 -2 63 0q20 2 27 9t7 27q0 26 -0.5 62t-1 69t-1 56z" />
    <glyph glyph-name="uni0427" unicode="&#x427;" horiz-adv-x="633" 
d="M555 61q0 -8 0.5 -17t-0.5 -17q-5 -32 -34 -33q-26 -2 -52.5 -1t-52.5 1q-18 1 -36 1t-35 2q-14 1 -28.5 1t-28.5 4q-41 13 -44 56q-4 53 -8 105t-9 105q-1 12 -2.5 18.5t-5 11t-10 7t-18.5 5.5q-31 7 -58 19t-53 33q-29 24 -46 54t-23 62.5t-3.5 65t12.5 62.5
q4 13 15.5 21t24.5 8q14 -1 22 -9.5t10 -21.5q5 -20 7.5 -40t4.5 -40q2 -13 0.5 -26t0.5 -27q1 -16 8.5 -31.5t18.5 -27.5t24.5 -20.5t27.5 -11.5q21 -4 30 3t11 28q2 17 1.5 33.5t0.5 33.5l3 120q0 20 19 30q44 25 97 19q29 -4 57 -9l56 -10q31 -5 50 -21.5t22 -48.5
q4 -42 8 -83.5t7 -83.5q6 -93 9 -182v-27v-43v-45v-33z" />
    <glyph glyph-name="uni0428" unicode="&#x428;" horiz-adv-x="711" 
d="M618 331q-1 -41 -2.5 -81.5t-1.5 -81.5q0 -30 1.5 -59.5t1.5 -59.5q1 -32 -22 -57q-17 -18 -38 -24.5t-45 -4.5q-23 2 -45 4t-45 4q-125 9 -249 15q-17 2 -35 1t-36 -1h-17t-17 2q-24 5 -34 16t-12 36q-2 37 -3 73.5t-3 74.5q-2 35 -2.5 71t-2.5 72q0 2 -0.5 4.5
t-0.5 5.5l-3 210v5q-1 11 11.5 23.5t26.5 11.5q10 -1 20.5 -7.5t15.5 -18.5q2 -10 2 -15q1 -16 3 -50t4.5 -78t4 -93.5t3 -95t2 -83t0.5 -57.5q-1 -5 -1 -9.5v-9.5q1 -20 6.5 -26t23.5 -8q5 -1 9.5 -1.5t9.5 -0.5q22 0 29 7.5t6 30.5q-3 65 -6.5 129t-6.5 129
q-1 14 -0.5 26.5t2.5 26.5q3 25 29 24q21 -1 38 -15.5t22 -37.5q3 -15 5 -30.5t3 -30.5q2 -58 3.5 -115t3.5 -115q1 -33 33 -29q25 3 39 7t20.5 12.5t7 23t-1.5 39.5q-2 34 -2 67t-1 67v139t-2 139q-1 27 7.5 47t23.5 31.5t36.5 14t47.5 -5.5q53 -17 98 -39q40 -20 38 -67
q-1 -23 -1 -45.5t-1 -45.5q0 -11 -0.5 -27t-0.5 -30t0.5 -24z" />
    <glyph glyph-name="uni0429" unicode="&#x429;" horiz-adv-x="765" 
d="M282 168q0 -10 -0.5 -19t0.5 -19q1 -34 12 -45t44 -13q24 -2 26 21q0 22 -0.5 43.5t-1.5 42.5q-2 45 -3.5 88.5t-2.5 88.5q0 17 2.5 33.5t5.5 33.5q3 18 16.5 28.5t30.5 9.5q34 -2 38 -42q1 -5 1 -9.5v-9.5l-3 -138q0 -5 2 -24t4 -43t3.5 -48t1.5 -39q0 -14 12 -25.5
t27 -16.5q41 -17 41 26q-1 26 -1 50.5t-2 50.5q-1 23 -2.5 45.5t-1.5 45.5q0 17 3 33t3 33q1 42 1 84v84q1 15 1 30.5t2 31.5q6 45 50 33q15 -5 26.5 -12.5t14.5 -24.5q5 -28 8 -56t8 -57q4 -27 4 -53.5t-2 -53.5t-4 -53.5t-1 -53.5q1 -38 1.5 -74.5t2.5 -74.5
q2 -20 10.5 -35t32.5 -20q7 -1 13 -5t13 -7q34 -21 28 -60q-5 -32 -16.5 -58t-39.5 -44q-14 -9 -28 -12t-30 6q-22 13 -10 36q5 12 11.5 23.5t11.5 23.5q7 19 -11 22q-46 9 -91 17t-93 3q-71 -7 -143 6q-24 5 -49.5 3t-50.5 -5q-32 -3 -62.5 -1t-60.5 12q-15 5 -25 14
t-14 24q-3 13 -7 25.5t-5 25.5q-5 51 -8.5 100.5t-5.5 100.5q-8 133 -12 263v21t3 12.5t9.5 8t18.5 8.5q34 15 69 21.5t71 7.5q46 1 73 -24t29 -71q1 -28 1 -55.5v-54.5v-101v-61q0 -26 0.5 -54t0.5 -48z" />
    <glyph glyph-name="uni042A" unicode="&#x42a;" horiz-adv-x="641" 
d="M2 622q0 6 19 10.5t45.5 4.5t55.5 -5.5t49 -17.5q8 -5 13.5 -13.5t7.5 -16.5q4 -14 5 -28.5t3 -28.5q1 -11 2 -21t3 -21q5 -28 33 -28q14 0 26.5 0.5t26.5 0.5q44 0 85.5 -7t82.5 -25q54 -24 83 -66.5t41 -98.5q6 -29 5 -57t-5 -57q-8 -49 -43 -85.5t-83 -50.5
q-22 -6 -44 -7.5t-44 -1l-44 1t-44 -0.5q-24 -2 -48 -2t-47 -3q-22 -3 -38.5 4t-31.5 20q-5 5 -8 13.5t-3 16.5q-2 69 -5 138.5t-1 138.5q1 46 -1 91t-5 90q-2 26 -10.5 46t-37.5 28q-14 5 -28.5 15t-14.5 23zM218 232v-105q0 -11 -1 -23t12 -15q10 -3 21.5 0t22.5 8
q7 4 12 11l10 14q6 9 10.5 18.5t9.5 19.5q25 52 18.5 102.5t-27.5 100.5q-6 15 -23.5 19t-39.5 -1q-16 -5 -21 -12t-5 -27q-1 -14 -0.5 -33t0.5 -36q0 -20 1 -41z" />
    <glyph glyph-name="uni042B" unicode="&#x42b;" horiz-adv-x="649" 
d="M259 509q2 -17 1 -34t6 -32q3 -8 10 -12t15 -6t17 -3t17 -4q29 -11 50.5 -31.5t32.5 -49.5q9 -24 14 -50t7 -52q0 -44 -10.5 -89t-31 -81.5t-50.5 -60t-68 -23.5q-22 0 -50 2.5t-58.5 7.5t-61 12.5t-56.5 18.5q-23 10 -26 32q-4 27 -8 53.5t1 55.5q6 44 2 86
q-5 67 -5 134t7 134q2 11 1 23.5t-5 23.5q-5 13 -2 21.5t13 15.5q28 20 59.5 29t66.5 7q17 -1 33 -5.5t32 -10.5q23 -8 35.5 -23.5t12.5 -40.5v-14.5v-16t-0.5 -12.5zM336 209l-0.5 23t-6 51t-19.5 50.5t-41 22.5q-6 0 -10 -14.5t-6 -37.5t-2.5 -52t-0.5 -59v-57.5t-1 -46.5
v-5.5t1 -9.5t3 -9t7 -4t15.5 7t22 24t22 45.5t16.5 71.5zM475 494q0 17 -2 33.5t-2 33.5q-2 23 3.5 33.5t19.5 12.5q19 2 35 -11t18 -33q1 -6 0.5 -12t-0.5 -12l3 -348q1 -38 2.5 -76.5t3.5 -76.5q0 -50 -37 -50q-9 0 -18 3.5t-16 10.5t-11.5 16t-4.5 18q2 26 2.5 52.5
t2.5 52.5q-1 0 -1 18v47.5v67t0.5 77t1 77t0.5 66.5z" />
    <glyph glyph-name="uni042C" unicode="&#x42c;" horiz-adv-x="492" 
d="M9 118q-1 77 -2 150t-1 147q1 45 3 88.5t4 88.5q1 5 1 9t2 9q3 8 13 11.5t18 1.5q25 -5 31 -27q1 -5 1.5 -15t0 -22t-1 -22.5t-0.5 -15.5q1 -20 3.5 -31.5t9 -17.5t19 -7t32.5 1q4 1 24 0t43.5 -2t44.5 -2.5t27 -2.5q38 -5 68 -22.5t49 -50.5q41 -70 50.5 -144
t-27.5 -149q-12 -25 -33.5 -41.5t-47 -27.5t-53.5 -17.5t-53.5 -9t-45.5 -2.5h-31q-23 2 -45 5t-45 5q-61 6 -61 65q1 14 1.5 26t1.5 22zM78 312q2 -23 3 -53.5t3 -62.5l6 -81q2 -12 10 -17t17 3q14 11 27 23.5t23 26.5q29 46 29 95.5t-10 99.5q-4 20 -16 28t-32 8
q-21 0 -33 -1t-17.5 -7.5t-7 -21t-2.5 -40.5z" />
    <glyph glyph-name="uni042D" unicode="&#x42d;" horiz-adv-x="570" 
d="M267 414q2 6 -3 22t-16 33t-29 30.5t-41 15.5t-43.5 -7t-34.5 -26q-5 -6 -8 -12.5t-8 -12.5q-8 -9 -20.5 -11t-22.5 4q-23 13 -8 42q11 21 28.5 35.5t37.5 26.5q25 14 55 21.5t59 9.5t55 0t44 -6t41 -13.5t46 -22t43 -27.5t31 -29q20 -26 29 -73t8 -101t-11 -106t-28 -87
q-17 -33 -39.5 -62.5t-60.5 -42.5q-12 -4 -45 -10t-75.5 -7t-87 7t-81 32t-57.5 68t-15 115q2 14 13 15.5t16 0.5q21 0 27.5 -7.5t6.5 -19.5t-2 -27.5t2 -31.5q7 -27 18 -36t38 -11q60 -6 95 45q22 32 35 67.5t15 74.5q2 22 -5.5 30t-28.5 10q-8 0 -14.5 -0.5t-14.5 0.5
q-30 2 -48 27q-27 37 19 46q10 1 24 0.5t26.5 -0.5t22.5 2t12 9z" />
    <glyph glyph-name="uni042E" unicode="&#x42e;" horiz-adv-x="773" 
d="M74 481q0 -17 -0.5 -35t0.5 -36t8 -24.5t25 -6.5q5 0 9.5 1t9.5 1q24 0 39 10t23 36q14 45 38.5 84t63.5 68q31 23 64 37t71 19q10 1 24 1.5t28.5 -0.5t28 -3t24.5 -6q47 -17 78.5 -47.5t52 -67t31 -76t15 -76t5 -66.5t0.5 -46q-4 -35 -17.5 -74.5t-40 -75t-66.5 -63
t-96 -38.5q-55 -5 -105 8t-97 40q-34 20 -61 48t-40 68q-10 30 -18 60t-8 62q0 12 -6 17t-17 6h-10q-22 0 -35.5 -3.5t-20.5 -11.5t-8.5 -22t1.5 -36q2 -14 2.5 -28.5t2.5 -28.5q2 -27 4 -54.5t4 -54.5q1 -14 1 -26.5t-2 -25.5q-2 -9 -8.5 -14.5t-16.5 -2.5q-6 2 -11.5 7.5
t-7.5 10.5q-4 17 -6.5 35t-3.5 36q-2 49 -2.5 97.5t-2.5 98.5v4q-2 22 -3.5 39t-2 31.5t-0.5 28.5t1 30q1 38 3 74.5t5 73.5q2 20 12 36q5 9 15.5 7.5t13.5 -12.5q7 -19 7 -37q0 -9 0.5 -22.5t1 -25.5t1 -20.5zM239 312q0 -23 5.5 -47t13.5 -44.5t15.5 -35t10.5 -17.5
q19 -23 48.5 -31.5t57.5 2.5q10 3 19 12.5t16 21.5t12 25t7 22q10 41 9 82t-14 83q-11 38 -31.5 63.5t-56.5 38.5q-35 12 -54 -21q-23 -37 -40 -72.5t-18 -81.5z" />
    <glyph glyph-name="uni042F" unicode="&#x42f;" horiz-adv-x="524" 
d="M93 405q1 5 -8 9.5t-20 15t-20 30t-9 55.5q2 35 18.5 58.5t46.5 39.5q62 31 126.5 36.5t130.5 -1.5q13 -2 26 -3l26 -2q51 -2 62 -50q5 -20 8.5 -40t0.5 -40q-3 -80 -6.5 -158.5t-3.5 -157.5q1 -26 1 -50.5t-2 -50.5q0 -23 -6 -42q-10 -34 -27.5 -46.5t-52.5 -13.5
q-14 0 -26.5 0.5t-26.5 -1.5q-26 -3 -44.5 4t-31.5 20.5t-21.5 31.5t-12.5 39q-6 32 -7 64.5t-3 64.5q-2 20 -1.5 40.5t-1.5 40.5q-2 16 -11 21t-23 -3q-10 -6 -20.5 -13t-15.5 -16q-16 -29 -28.5 -58t-10.5 -64q2 -28 3 -55t3 -55q1 -8 1 -16.5v-16.5q-1 -19 -9 -29.5
t-22 -12.5t-27 5.5t-18 23.5q-8 24 -13.5 48.5t-7.5 49.5q-3 39 -2.5 79t2.5 79q3 64 51 105q8 7 19.5 15.5t13.5 19.5zM201 524q0 23 -3 33.5t-11 13.5q-7 2 -21.5 -2t-26 -15t-16 -31t7.5 -49q6 -14 25.5 -20.5t32.5 0.5q7 4 9 10q1 3 1.5 12t0.5 19.5t0.5 18.5t0.5 10z
" />
    <glyph glyph-name="uni0430" unicode="&#x430;" horiz-adv-x="664" 
d="M470 -37q-25 -2 -51.5 0t-53.5 13q-18 8 -27 19.5t-12 29.5q-4 28 -9.5 54.5t-7.5 54.5q-3 44 -45 47q-26 3 -52.5 2.5t-52.5 -0.5q-14 0 -18.5 -9.5t-8.5 -19.5q-14 -32 -27.5 -64t-26.5 -64q-6 -16 -17.5 -23t-25.5 -10q-15 -3 -22.5 5t-5.5 22q2 10 5 19t5 18
q17 78 42.5 152.5t51.5 149.5q13 35 23 70.5t21 70.5q9 30 19 59.5t19 58.5q8 24 22.5 32t28.5 10q7 1 28.5 -1t49 -7t56.5 -13.5t51 -20.5q11 -6 16 -14.5t7 -19.5q6 -30 14.5 -54.5t17.5 -50.5q11 -29 20 -59t16 -60q17 -82 33.5 -164t33.5 -165q6 -31 -4.5 -46.5
t-42.5 -20.5q-16 -3 -33 -2t-37 1zM239 455q-5 2 -8 -3t-4 -7q-24 -71 -45 -141q-2 -8 -4 -16.5t-3 -16.5q-1 -27 25 -26q14 1 28.5 3.5t28.5 4.5q17 4 22.5 11.5t3.5 24.5q-5 23 -8.5 45t-9.5 44q-3 9 -6 22t-6.5 25t-7 20.5t-6.5 9.5z" />
    <glyph glyph-name="uni0431" unicode="&#x431;" horiz-adv-x="500" 
d="M189 553q-20 2 -38.5 3t-38.5 2q-24 1 -22 -23q1 -6 1 -12v-12q1 -22 7 -28t26 -9q24 -4 48 -6.5t47 -7.5q52 -8 89.5 -34t62.5 -56.5t38 -58t16 -38.5t5 -35t3 -51.5t0.5 -52.5t-3.5 -38q-11 -36 -47.5 -59.5t-82.5 -38t-93 -22t-80 -11.5q-14 -2 -26.5 -0.5t-23.5 8.5
q-30 18 -49.5 42t-18.5 64q2 84 0 166t-2 165q0 23 2 45.5t2 45.5q1 26 0.5 50.5t-0.5 50.5q1 9 1.5 18.5t2.5 18.5q8 34 39 27q51 -12 102 -13.5t102 -6.5q5 0 9.5 -0.5t9.5 -1.5q23 -5 36.5 -22.5t8.5 -40.5q-1 -7 -7 -14t-12 -10q-18 -7 -43 -7q-9 0 -21 0.5t-23.5 1.5
t-19 1h-7.5zM141 251q32 3 65.5 11t66.5 23q4 2 12 8q6 6 4.5 21.5t-13.5 26.5q-9 9 -32.5 15.5t-50 10.5t-49.5 5.5t-32 0.5q-21 -3 -20 -22q1 -17 2 -33t3 -33q2 -19 11 -25.5t33 -8.5z" />
    <glyph glyph-name="uni0432" unicode="&#x432;" horiz-adv-x="508" 
d="M10 277q1 29 1.5 61t0.5 64q0 49 -1 97.5t-2 98.5q-1 3 -1 9q0 21 1 34.5t8 21.5t21 11.5t39 4.5q49 1 96 -12t86 -49q32 -29 42.5 -65.5t1.5 -71.5q-5 -18 -10.5 -27t-10.5 -13.5t-8 -6t-2 -3.5q2 -5 11 -7t16 -4q3 -1 18.5 -5.5t34.5 -12t37 -17t26 -21.5
q24 -35 31 -85t3.5 -99t-14 -89.5t-20.5 -56.5q-23 -38 -59 -67t-83 -35q-38 -5 -76.5 -3.5t-76.5 3.5q-12 1 -24.5 8t-20.5 15q-16 17 -29.5 34.5t-26.5 36.5q-4 5 -5 12.5t-1 14.5q-2 48 -3 95.5t-3 95.5q0 8 1 15t2 18zM131 193q21 4 49.5 8t57.5 9q18 3 34 16
q19 14 29.5 32.5t5.5 40.5q-4 21 -21 32.5t-38 16.5q-29 5 -56.5 10t-56.5 10q-28 5 -39.5 -4.5t-11.5 -37.5q0 -26 1.5 -52.5t3.5 -52.5q1 -16 8.5 -21t33.5 -7zM95 532v-15q0 -6 -0.5 -12t0.5 -11q2 -12 9 -17t18 -3q28 5 52 16t43 34q11 14 8 27t-20 18q-40 11 -75 14
q-20 2 -26.5 -5t-8.5 -27v-19z" />
    <glyph glyph-name="uni0433" unicode="&#x433;" horiz-adv-x="492" 
d="M356 560q-15 1 -30.5 1.5t-31.5 0.5q-19 -1 -25 -6.5t-7 -25.5q-2 -43 -5.5 -85.5t1.5 -85.5q8 -67 8 -134t-5 -134q-3 -42 -17 -84q-8 -25 -35 -39.5t-59 -12.5q-35 3 -65 17t-57 34q-5 4 -8.5 11t-4.5 14q-3 33 -3 66q1 24 3 48t1 48q-1 94 -2 186.5t-3 186.5
q0 8 -1 16.5t-1 17.5q-1 24 17 41t42 11q60 1 117.5 -3.5t116.5 -9.5q16 -1 31.5 -1t30.5 -2q40 -3 64 -30q5 -5 7 -12l4 -14q8 -29 -21 -27q-15 1 -30.5 2.5t-31.5 3.5v1z" />
    <glyph glyph-name="uni0434" unicode="&#x434;" horiz-adv-x="792" 
d="M620 519q-2 -14 -3 -25.5t-1 -24t0.5 -28t2.5 -36.5q21 -102 7 -210q-4 -26 -0.5 -52t0.5 -52t7.5 -38.5t37.5 -15.5q8 -1 16.5 -0.5t16.5 -0.5q41 -5 39 -44q-2 -24 -11.5 -44.5t-23.5 -37.5q-7 -9 -20 -11.5t-25.5 1t-23 12t-13.5 20.5q-6 29 -22 36.5t-39 8.5
q-34 2 -67 4.5t-67 3.5q-33 1 -66.5 -1t-66.5 -3q-22 0 -43.5 0.5t-42.5 0.5q-20 -1 -39 -1.5t-38 -2.5q-13 -1 -16.5 -7t-1.5 -19q0 -4 1.5 -7t2.5 -7q9 -49 -37 -39q-42 8 -60.5 31t-19.5 65q0 14 4.5 23t18.5 14q13 5 25 9.5t26 6.5q38 6 55 40q21 45 38.5 90t18.5 96
q1 64 2 127t3 127q1 20 4.5 33.5t5.5 33.5q3 28 29 34q36 10 72 16.5t74 1.5q37 -4 74 -1.5t74 3.5q14 1 28.5 1t28.5 -2q20 -3 27 -10.5t8 -27.5q2 -20 1 -41.5t-1 -49.5zM305 68h30.5t36.5 1q19 2 24 8t4 26q-1 3 -1 9q-5 42 -5 82t-1 82q-1 47 -1.5 94t1.5 94
q1 26 2.5 44t0.5 44q0 14 -11.5 21t-31.5 7q-16 1 -35 -4.5t-21 -22.5q-3 -34 -4 -61.5t-3 -60.5q-1 -29 -2.5 -62t-3 -64t-3.5 -56t-4 -37q-2 -11 -7.5 -25t-12 -30.5l-13 -33t-12.5 -31.5q-13 -31 20 -28q14 1 28 2.5t25 1.5z" />
    <glyph glyph-name="uni0435" unicode="&#x435;" horiz-adv-x="480" 
d="M282 642q20 -2 37 -10.5t28 -25.5q12 -19 5 -34t-29 -17q-20 -2 -38 3q-38 8 -76.5 7.5t-76.5 -1.5q-23 -1 -29 -8.5t-7 -30.5q0 -24 1 -37t8 -20t20 -9.5t37 -3.5q27 -1 56 -11q6 -2 11.5 -7t9.5 -11q12 -17 4.5 -33.5t-28.5 -19.5q-9 -1 -18.5 -0.5t-19.5 0.5l-33 3
q-15 1 -24.5 -0.5t-14.5 -6t-7 -14t-2 -24.5q-1 -12 -1 -24t2 -24q2 -17 8 -22t23 -7q11 -2 21.5 -1.5t21.5 -0.5q16 -1 36.5 -2.5l41 -3t40.5 -2.5t37 -1q34 0 52 -18t29 -44q6 -14 10 -41.5t6.5 -57t2 -55t-3.5 -34.5q-10 -25 -36 -24q-8 0 -14.5 0.5t-14.5 0.5
q-63 5 -124 10.5t-124 10.5q-21 1 -42 6q-28 6 -42.5 24.5t-14.5 47.5v363q-1 38 -1 76.5v76.5q0 6 -0.5 12t1.5 12q4 18 13.5 26.5t29.5 9.5q27 1 54.5 0.5t55.5 -1.5q0 1 13 1h32t39 -1t35 -2z" />
    <glyph glyph-name="uni0436" unicode="&#x436;" horiz-adv-x="719" 
d="M530 402q26 -37 49 -70t45 -65q5 -6 7.5 -12.5t4.5 -13.5q16 -57 18.5 -113.5t-6.5 -114.5q-2 -12 -13 -18q-11 -7 -23.5 -7t-23.5 6t-18.5 16.5t-7.5 23.5q-1 23 0 45.5t-2 45.5q-4 35 -9.5 70.5t-13.5 70.5q-9 40 -36.5 63t-62.5 41q-11 -16 -11 -31.5v-30.5v-245
q0 -53 -22.5 -72t-76.5 -11q-15 2 -30.5 3.5t-31.5 3.5q-40 5 -61.5 22t-25.5 56q-5 44 -8.5 87.5t-7.5 88.5q-2 20 -3 38.5t-3 37.5q-1 5 -4 10t-6 5q-5 0 -11 -2t-9 -6q-9 -14 -18.5 -28t-14.5 -30q-14 -40 -15.5 -81.5t6.5 -83.5q2 -17 5.5 -33t5.5 -33q4 -16 1 -28
q-2 -18 -18 -23.5t-29 7.5q-5 5 -9.5 12.5t-6.5 15.5q-16 57 -23 114.5t4 117.5q8 38 26.5 67t40.5 57q7 10 11 16t4 11t-4 10.5t-13 14.5q-27 26 -42.5 57.5t-26.5 66.5q-10 32 2 66q11 34 40 34q15 1 28.5 -8t18.5 -25q4 -14 4.5 -28.5t2.5 -28.5q2 -13 3.5 -26t3.5 -26
q2 -7 5.5 -13.5t7.5 -11.5q3 -3 8 -5.5t9 -1.5q3 1 6 5.5t4 8.5q2 12 2 24t2 24q2 17 4.5 35t5.5 36q5 25 26 32q17 6 34 12.5t34 6.5q38 -1 75.5 -8t71.5 -28q26 -17 34.5 -35t2.5 -50q-2 -13 -4 -25.5t-2 -26.5q-1 -25 28 -25q18 0 34.5 7.5t29 20t20.5 29t8 34.5
q0 12 -1 24t1 24q1 14 9 22.5t20 10.5q11 2 21.5 -4t15.5 -20q8 -22 9.5 -43.5t-6.5 -44.5q-14 -41 -36.5 -72.5t-62.5 -48.5z" />
    <glyph glyph-name="uni0437" unicode="&#x437;" 
d="M205 676q44 4 84 -10.5t78 -34.5q30 -15 52 -44t34 -63.5t12 -70t-16 -63.5q-12 -22 -27 -36t-28.5 -22.5t-23 -13t-9.5 -7.5q0 -4 10.5 -9t23.5 -16t24 -30.5t11 -50.5q0 -11 -2.5 -30.5t-9 -42t-17.5 -45t-28 -37.5q-14 -12 -29 -21.5t-29 -20.5q-20 -15 -43.5 -20
t-47 -1t-44 16.5t-33.5 33.5q-15 25 -29.5 49.5t-20.5 53.5q-4 19 -5 37.5t6 38.5q5 16 13 22t25 7q14 1 26 -4t17 -19q4 -11 6.5 -23t4.5 -23q2 -10 2 -19.5t2 -18.5q4 -18 14 -29.5t23.5 -16.5t28.5 -2.5t30 13.5q38 28 55 70q12 28 1 56q-12 34 -48 34q-6 0 -12 -1.5
t-12 -2.5q-29 -4 -48 13.5t-16 46.5q1 6 6 12.5t10 8.5q13 4 26 5.5t26 4.5q27 6 46 14.5t31.5 21t20.5 31.5t14 46q2 6 1.5 13.5t-2.5 13.5q-2 7 -9.5 13t-17 9t-21 2t-21.5 -9q-7 -6 -18 -18t-23 -26t-23.5 -27t-18.5 -19q-13 -11 -29.5 -19t-34.5 -10q-30 -5 -52 17
q-8 7 -25 29.5t-35 46.5t-32 44t-15 22q-7 18 -7.5 30t4.5 21.5t15 17t24 16.5q35 22 72.5 36t82.5 10z" />
    <glyph glyph-name="uni0438" unicode="&#x438;" horiz-adv-x="605" 
d="M427 296v20.5t0.5 39t1 48.5t1.5 49q1 36 3.5 71.5t4.5 71.5q0 12 6 23q7 14 18.5 17.5t24.5 -4.5q12 -7 21 -16.5t10 -23.5q2 -20 2.5 -40.5t-0.5 -41.5q-1 -29 -2.5 -57t-2.5 -57q0 -21 1 -42.5t2 -43.5q2 -61 3 -121.5t3 -122.5q2 -14 0 -28q-6 -44 -41 -45
q-25 0 -43.5 14t-16.5 35q2 20 3 40.5t1 40.5q0 14 2.5 29.5t-11.5 23.5q-12 5 -24 -4.5t-23 -18.5q-32 -28 -63 -55.5t-63 -53.5l-15 -12.5t-19 -15t-19.5 -13.5t-15.5 -7q-21 -5 -43 -5.5t-43 1.5q-30 2 -48.5 19t-23.5 47q-5 32 -8 64t-3 64q2 64 5.5 127.5t5.5 126.5
q1 34 -1 67.5t0 66.5q1 25 5.5 42t15 29t27 20t41.5 13q20 5 39.5 5.5t39.5 -9.5q32 -14 46.5 -39t17.5 -55q8 -69 10 -132.5t7 -131.5q2 -18 1 -40t-3 -39q-1 -9 -1.5 -17.5t0.5 -16.5q1 -16 8.5 -20t19.5 6q9 7 31 19t45.5 27t41.5 30.5t18 30.5z" />
    <glyph glyph-name="uni0439" unicode="&#x439;" horiz-adv-x="573" 
d="M8 419q-1 22 -1 43.5v42.5v38.5t-1 38.5q-1 13 -0.5 21.5t3.5 14t10 10t19 9.5q20 9 39.5 17.5t40.5 13.5q61 12 114 -21q23 -14 28 -34.5t6 -46.5q2 -62 -2 -122t1 -121q2 -29 1.5 -57.5t0.5 -57.5q0 -2 0.5 -10t2 -17.5t4 -18t6.5 -11.5q6 -5 24 3t37.5 19t35.5 22.5
t19 14.5q6 7 10 20t5 21q3 54 4.5 107.5t4.5 107.5q2 32 1.5 62.5t2.5 61.5q1 8 6 15.5t17 8.5q11 0 22 -8t14 -15q3 -8 3.5 -16.5t1.5 -16.5q4 -39 0 -78t0 -79q1 -6 1 -12v-12q1 -84 1.5 -167t1.5 -168q0 -3 -0.5 -6.5t-0.5 -7.5q-2 -22 -11 -31t-26 -11q-16 -2 -31 9
t-19 28q-2 14 -3 28.5t-3 28.5q-4 26 -12.5 30.5t-30.5 -10.5q-21 -15 -42 -31l-42 -32q-25 -19 -52 -33t-60 -14q-2 0 -23.5 1t-47 8.5t-47 23.5t-21.5 47q-2 18 -1 36l2 36q-2 53 -5 104q-2 44 -4 91t-4 82zM344 642q-19 1 -29.5 9.5t-10.5 22.5t10 22t26 6
q17 -1 28.5 -10t11.5 -21q-1 -14 -11 -22t-25 -7z" />
    <glyph glyph-name="uni043A" unicode="&#x43a;" 
d="M396 70q3 21 6.5 42t5.5 43q1 17 2 41t-2.5 48t-14 44t-31.5 29q-23 7 -44 11.5t-44 2.5q-5 1 -11.5 -5t-8.5 -11q-5 -25 -2 -48q5 -61 0.5 -121.5t-7.5 -121.5q-1 -16 -2.5 -24t-6.5 -11.5t-14.5 -5t-24.5 -4.5q-10 -2 -30.5 -2t-43 1.5t-42 3.5t-28.5 4q-21 5 -33 24
t-13 41q-2 26 -1 50.5t1 50.5q-2 100 0 201q1 56 2.5 111.5t2.5 112.5q2 36 33 47q16 6 31 13t32 10q51 11 86.5 -13.5t45.5 -75.5q5 -23 7.5 -47t5.5 -47q2 -14 6 -22.5t17 -8.5q15 0 37.5 13.5t40.5 36t27 52t-2 61.5q-5 12 -3.5 22.5t15.5 18.5q14 7 30 3t27 -18
q10 -13 15 -30.5t6.5 -34.5t0.5 -31.5t-3 -20.5q-12 -32 -27.5 -49.5t-30 -28t-24 -16t-9.5 -13.5q0 -3 5 -6.5t12.5 -7t16 -7t14.5 -7.5q26 -14 46.5 -35.5t28.5 -41.5q8 -19 10.5 -51.5t0.5 -71.5t-7 -79.5t-12.5 -73.5t-16.5 -55t-18 -24q-10 -2 -24 1t-25 11
q-17 13 -17.5 30t1.5 37q0 7 1 16t2 17z" />
    <glyph glyph-name="uni043B" unicode="&#x43b;" horiz-adv-x="614" 
d="M406 269q0 47 0.5 93t-0.5 93q0 16 -2.5 31.5t-5.5 30.5q-5 19 -19.5 26t-31.5 -3q-22 -14 -37.5 -50.5t-25.5 -85t-15.5 -101.5t-8.5 -98.5t-4 -78t-1 -39.5q0 -20 -7 -34.5t-18 -24.5t-25.5 -17t-29.5 -13q-25 -10 -55 -16q-14 -3 -31.5 0t-33 10.5t-27 19.5t-14.5 26
q-8 54 -7 107.5t11 107.5l10 64t15 62q13 38 28.5 75.5t46.5 66.5q42 40 88 71t103 42q41 9 82 9t83 -12q37 -10 40 -48q3 -61 6.5 -121t-1.5 -122q-5 -60 -6.5 -119.5t10.5 -119.5q3 -17 3.5 -35.5t-0.5 -36.5q-2 -31 -29 -31q-29 0 -61 8q-17 5 -21 18.5t-5 28.5
q-1 29 -2 57.5t-1 57.5q-1 26 -1 50.5v50.5z" />
    <glyph glyph-name="uni043C" unicode="&#x43c;" horiz-adv-x="698" 
d="M311 320q-3 0 -3.5 -20.5t0.5 -49t2.5 -60.5t2.5 -54q2 -34 -0.5 -61.5t-9.5 -56.5q-5 -25 -16 -31t-36 -1q-15 3 -30.5 6.5t-30.5 6.5q-20 4 -39.5 6.5t-40.5 0.5q-45 -5 -70 17t-28 68q-2 31 -2 62t-1 62q-2 76 -3 151t-1 151q0 24 3 48t5 47q2 17 11.5 25.5t25.5 13.5
q38 12 76 14.5t78 -11.5q50 -18 75 -55.5t42 -81.5q11 -28 20 -56t19 -57q11 -38 43 -68q31 -30 55 7q5 8 8.5 17t6.5 17q20 55 33 110.5t20 113.5q4 30 14.5 42.5t31.5 12.5q38 0 44 -54q2 -24 1 -48t-1 -48q1 -61 2.5 -122t1.5 -122q0 -40 -2 -79t-3 -79q0 -18 1.5 -36
t3.5 -36q0 -5 1 -9.5t1 -9.5q2 -32 -22 -38q-14 -3 -27.5 4t-18.5 21q-3 9 -4 18.5t-1 19.5q-2 65 -3 129t-2 129q0 9 -1 21.5t-2.5 24.5t-4 20.5t-5.5 8.5t-8 -8t-11 -18.5t-12.5 -22.5t-11.5 -19q-17 -26 -37 -33.5t-38.5 -6.5t-33 7.5t-19.5 9.5t-12.5 9.5t-14.5 13
t-13 12t-9 5.5z" />
    <glyph glyph-name="uni043D" unicode="&#x43d;" 
d="M15 223q2 26 3.5 52.5t0.5 52.5q0 43 -1 86t-3 86q-1 25 -3 50l-4 50q-1 23 20 34q33 16 60.5 1.5t30.5 -51.5q3 -38 3 -76t2 -76q0 -6 -1 -12t0 -12q0 -11 5.5 -18.5t16.5 -8.5q19 -2 38 -2.5t38 0.5q14 0 22 8t10 22q1 14 1.5 28.5t0.5 28.5q3 55 3 110q1 12 5.5 20.5
t15.5 14.5q40 21 81 27t85 -8q17 -5 29 -14t18 -25q7 -20 14.5 -41t7.5 -41q0 -54 -0.5 -107.5t-9.5 -107.5q-8 -51 -14 -101.5t-1 -102.5q2 -11 0 -23l-4 -24q-4 -34 -24 -51.5t-51 -23.5q-48 -9 -91 2q-57 15 -62 76q-3 47 -5.5 93t-4.5 93q-1 26 -3.5 41t-9.5 22.5
t-21 9.5t-39 3q-23 1 -35.5 0.5t-19 -6.5t-8 -18.5t-1.5 -35.5q-2 -47 -0.5 -93t3.5 -93q0 -16 -1 -31.5t-18 -23.5t-33 -4.5t-31 11.5q-13 8 -16 18t-3 23q1 36 1 72t1 72q0 6 0.5 12t0.5 12h1z" />
    <glyph glyph-name="uni043E" unicode="&#x43e;" horiz-adv-x="646" 
d="M299 2q-17 0 -44.5 4.5t-59 14.5t-62.5 26.5t-54 40.5q-42 43 -55 99q-21 82 -14.5 161.5t44.5 155.5q31 47 79.5 73t97 38t89.5 14.5t58 3.5q49 3 84.5 -18t61.5 -59q29 -44 47 -93t11 -105q-6 -48 -14 -94t-27 -91q-37 -86 -115 -138q-27 -17 -59.5 -24t-67.5 -9z
M255 295q3 -19 5 -38t7 -38q5 -25 16 -47t32 -39q20 -16 34 -15.5t36 11.5q18 8 39 39t39.5 67.5t31.5 71t14 50.5q3 32 -1.5 71.5t-24.5 74.5q-13 23 -29 35.5t-39 19.5q-18 4 -31 5t-23.5 -2.5t-19.5 -12.5t-20 -24q-38 -51 -56 -108t-10 -121z" />
    <glyph glyph-name="uni043F" unicode="&#x43f;" horiz-adv-x="594" 
d="M11 586q0 13 0.5 20.5t3.5 12t10 6t20 3.5q20 3 40 2l40 -2q46 -1 91 2.5t90 7.5q20 2 40.5 5.5t40.5 5.5q22 2 38 -7t31 -26q27 -31 28.5 -64.5t-4.5 -67.5q-8 -54 -5 -105.5t8 -104.5q5 -49 7.5 -97.5t-5.5 -97.5q-3 -25 -13 -46q-25 -63 -95 -55q-22 3 -43 6t-42 8
q-37 8 -42 46q-2 11 -4 21.5t-3 21.5q-4 78 -7.5 155.5t-6.5 155.5q-1 33 -1 66.5t-1 67.5q0 14 -4.5 20t-19.5 8q-23 2 -45.5 1.5t-45.5 -1.5q-11 0 -15 -7t-5 -16v-31.5t2 -30.5q2 -23 2.5 -56t0.5 -69.5t-1 -73.5t-2.5 -68.5t-2.5 -53.5t-2 -28q-3 -21 -3 -42.5t-4 -42.5
q-2 -12 -8 -22q-4 -5 -15.5 -8.5t-16.5 -3.5t-10 3.5t-7 8.5q-10 20 -10 37q-2 65 -3 129.5t-3 129.5q1 0 1.5 30t1 73.5t0.5 91t-1 82.5z" />
    <glyph glyph-name="uni0440" unicode="&#x440;" horiz-adv-x="542" 
d="M322 644q36 -5 61 -21t40.5 -34.5t23 -37t8.5 -29.5q6 -39 -0.5 -67t-21 -47.5t-33.5 -31.5t-36.5 -19t-30.5 -9.5t-15 -2.5q-23 -2 -37 -3.5t-21.5 -8.5t-10 -23.5t-0.5 -47.5q3 -52 6 -103t4 -102q1 -17 -3.5 -33t-8.5 -33q-4 -14 -14.5 -21.5t-24.5 -9.5
q-30 -2 -59.5 -0.5t-56.5 18.5q-11 8 -22.5 14t-23.5 11q-20 8 -27 22.5t-7 34.5q-2 85 -3.5 167.5t-2.5 167.5q0 49 2 97.5t4 98.5q1 27 27 41q28 14 56.5 20t59.5 1q7 -1 29.5 -2t48.5 -1.5t51 -2t38 -3.5zM252 460q-1 -20 7 -30.5t28 -10.5q16 0 33 2.5t32 9.5
q13 6 22 20.5t11.5 31.5t-1 33.5t-14.5 27.5q-16 16 -39.5 21.5t-44.5 5.5q-11 0 -17 -7.5t-8 -18.5q-1 -7 -2.5 -20t-3 -26.5t-2.5 -24.5t-1 -14z" />
    <glyph glyph-name="uni0441" unicode="&#x441;" horiz-adv-x="593" 
d="M5 311q1 6 3.5 26t8.5 47.5t17.5 60.5t30.5 65t47 61t67 49q38 20 79.5 26t84.5 1q54 -7 92.5 -43t45.5 -89q3 -20 -6 -36q-3 -6 -10.5 -11t-14.5 -7q-10 -2 -16 4.5t-8 14.5q-6 20 -11 35.5t-17 32.5q-2 2 -9 7.5t-18 9t-24.5 2.5t-28.5 -10q-14 -9 -27.5 -40.5
t-21.5 -73t-10 -87.5t7 -85q1 -6 5 -22t9.5 -36t13.5 -42t17.5 -40t21 -29.5t25.5 -10.5q13 0 24.5 5.5t20.5 13t15.5 16t8.5 15.5q7 20 14 40.5t14 40.5q4 11 10 19.5t20 6.5q12 -1 19.5 -8t11.5 -18q9 -26 3.5 -49.5t-19.5 -42.5q-27 -36 -57 -70t-75 -52q-44 -18 -88 -14
q-36 4 -70.5 11t-66.5 27q-42 26 -71 60t-43 82q-8 34 -16 67.5t-8 69.5z" />
    <glyph glyph-name="uni0442" unicode="&#x442;" horiz-adv-x="570" 
d="M400 648q29 2 47 -10t28 -35q14 -35 27 -69t17 -72q4 -36 -16 -54.5t-56 -10.5q-11 2 -21 5t-21 6q-6 2 -12 2.5t-12 1.5q-20 3 -31.5 2.5t-17.5 -6t-7 -17.5t0 -31q4 -63 8 -126.5t8 -126.5q1 -20 1 -41t-2 -41q-3 -34 -31 -37q-26 -3 -41 25q-11 21 -15 43t-3 46
q2 49 3 97.5t0 98.5q0 23 -3.5 45t-6.5 45q-3 19 -10.5 26t-27.5 9q-19 2 -38 2.5t-38 0.5q-23 0 -38.5 2.5t-26.5 10t-19 21t-16 34.5q-10 25 -13 51t-8 52q-5 29 5.5 40.5t41.5 11.5h177l18.5 -1t44.5 -1.5t55 -0.5t50 2z" />
    <glyph glyph-name="uni0443" unicode="&#x443;" horiz-adv-x="593" 
d="M467 619q19 -3 30 -17t16 -32q3 -10 5 -19t3 -19q3 -45 5.5 -88.5t4.5 -88.5q1 -17 -1 -49t-5 -70q-4 -38 -15.5 -75t-31.5 -71q-9 -15 -24.5 -30t-39.5 -27t-57 -20t-75 -8q-52 0 -91.5 8t-68 19t-47 24t-28.5 22q-40 37 -34 95q2 18 8.5 25t23.5 10q16 3 25.5 -1.5
t15.5 -20.5q5 -12 7 -25.5t5 -25.5q6 -20 23 -35t36 -25q17 -10 37 -3t31 21q8 10 12 20.5t6 22.5q6 29 9 59t5 59q2 15 -4.5 20.5t-20.5 7.5q-10 2 -19 0q-48 -2 -86 19t-73 50q-21 18 -28.5 43.5t-12.5 51.5q-6 29 -7 59t6 60q2 10 6 20t10 19q5 9 14 11t20 0
q23 -3 26 -24q2 -11 2 -21.5v-21.5q2 -29 2.5 -57.5t2.5 -57.5q3 -53 52 -73q17 -7 33.5 -13t35.5 -4q24 2 35.5 13t10.5 35q-2 35 -4.5 69.5t-4.5 69.5q-1 17 -1.5 33.5t0.5 33.5q0 14 8 22t22 9q11 0 36.5 -0.5t54.5 -2t55.5 -3t38.5 -3.5z" />
    <glyph glyph-name="uni0444" unicode="&#x444;" horiz-adv-x="696" 
d="M266 613q81 5 146.5 -18.5t126.5 -61.5q32 -20 53.5 -51t32.5 -67q16 -51 21 -103.5t-15 -103.5q-22 -57 -61 -98.5t-99 -62.5q-41 -14 -81 -22t-83 -8q-14 0 -21.5 -1.5t-12 -6t-7 -13t-5.5 -21.5q-2 -10 -2.5 -19.5t-2.5 -18.5q-5 -29 -14.5 -39.5t-27.5 -7.5
q-19 2 -25.5 14.5t-4.5 39.5q1 30 6 62q2 17 -3.5 28t-21.5 18q-19 9 -42.5 25.5t-45.5 40.5t-40 54t-26 66q-6 56 -4.5 111.5t15.5 111.5q12 49 49 80q89 75 195 72zM80 256q4 -30 14.5 -57t34.5 -51q11 -11 29 -19t26 -10q5 -1 7 9t4 21q2 13 2 30v238q-1 20 -1 38.5
t-2 38.5q-3 31 -30 15q-42 -23 -60 -60.5t-25 -80.5q-4 -28 -2.5 -55.5t3.5 -56.5zM360 404q-5 13 -13 36.5t-22 36.5q-3 3 -9 6.5t-10 1.5q-4 -1 -7.5 -7t-3.5 -11q-1 -26 -0.5 -52.5t0.5 -52.5q-2 -53 -3 -105l-2 -104q0 -4 0.5 -7.5t0.5 -7.5q2 -6 7.5 -8t10.5 2
q13 12 23.5 30t15.5 35q10 28 14 61.5t4 64t-2 53t-4 28.5z" />
    <glyph glyph-name="uni0445" unicode="&#x445;" horiz-adv-x="570" 
d="M424 -5q-40 -2 -65.5 -2t-43 7t-30.5 23.5t-27 47.5q-8 18 -16 35.5t-16 34.5q-3 6 -6.5 12.5t-8.5 11.5q-14 17 -27 -2q-4 -6 -6.5 -12.5t-6.5 -13.5q-18 -29 -35.5 -59t-37.5 -59q-25 -37 -67 -21q-29 10 -20 37q5 15 11 29t13 28q24 51 48.5 101.5t49.5 101.5
q5 12 6 23t-6 22q-31 50 -51 103.5t-47 104.5q-4 7 -8.5 13.5t-9.5 13.5q-11 17 -10 26t18 22q11 8 37.5 16.5t57 13t59 1.5t42.5 -17q6 -7 16 -17.5t20.5 -24t20 -29t14.5 -30.5t12 -28.5t15 -27.5q6 -11 14.5 -10.5t15.5 11.5q8 14 14.5 28t13.5 28q9 17 16.5 34t17.5 34
q12 21 31 29.5t43 6.5q36 -5 32 -39q-2 -13 -5 -26t-9 -24q-26 -43 -41 -89t-33 -92q-13 -35 -12.5 -63.5t17.5 -61.5q20 -38 33 -78.5t28 -81.5q7 -21 12.5 -37t0 -27t-24.5 -18t-59 -9z" />
    <glyph glyph-name="uni0446" unicode="&#x446;" horiz-adv-x="666" 
d="M392 311v202q0 16 7.5 28t19 18.5t26 7t28.5 -6.5q17 -10 20 -31q2 -17 3.5 -54t1.5 -83.5v-97t-0.5 -95t-1 -77.5t-0.5 -44q-1 -11 6.5 -16.5t18.5 -5.5q8 -1 14.5 -0.5t14.5 -0.5q15 -1 23.5 -3.5t13.5 -8t7 -15t3 -24.5q1 -19 -6 -38t-21 -34.5t-34.5 -26t-46.5 -12.5
q-12 -2 -17 5.5t0 18.5q5 14 11 26.5t11 26.5q5 17 -13 22q-2 1 -4.5 1t-4.5 1q-42 1 -84 3t-84 1l-98 -4t-97 9q-12 3 -23 7l-22 8q-32 8 -41.5 30.5t-10.5 50.5v69.5t-2 69.5q-5 57 -3.5 112.5t5.5 112.5q2 32 4.5 64.5t4.5 64.5q1 17 10.5 26.5t22.5 16.5q8 5 17.5 8
t19.5 3q31 2 62 3t62 -1q26 -2 37 -14.5t11 -38.5q0 -16 0.5 -31.5t-3.5 -30.5q-5 -23 -6 -54.5t-0.5 -61.5t1.5 -51.5t1 -22.5q-1 -41 2.5 -81t1.5 -81q-1 -20 1.5 -40.5t2.5 -40.5t7 -27t27 -8q31 -2 63 0q20 2 27 9t7 27q0 26 -0.5 62t-1 69t-1 56z" />
    <glyph glyph-name="uni0447" unicode="&#x447;" horiz-adv-x="633" 
d="M555 61q0 -8 0.5 -17t-0.5 -17q-5 -32 -34 -33q-26 -2 -52.5 -1t-52.5 1q-18 1 -36 1t-35 2q-14 1 -28.5 1t-28.5 4q-41 13 -44 56q-4 53 -8 105t-9 105q-1 12 -2.5 18.5t-5 11t-10 7t-18.5 5.5q-31 7 -58 19t-53 33q-29 24 -46 54t-23 62.5t-3.5 65t12.5 62.5
q4 13 15.5 21t24.5 8q14 -1 22 -9.5t10 -21.5q5 -20 7.5 -40t4.5 -40q2 -13 0.5 -26t0.5 -27q1 -16 8.5 -31.5t18.5 -27.5t24.5 -20.5t27.5 -11.5q21 -4 30 3t11 28q2 17 1.5 33.5t0.5 33.5l3 120q0 20 19 30q44 25 97 19q29 -4 57 -9l56 -10q31 -5 50 -21.5t22 -48.5
q4 -42 8 -83.5t7 -83.5q6 -93 9 -182v-27v-43v-45v-33z" />
    <glyph glyph-name="uni0448" unicode="&#x448;" horiz-adv-x="711" 
d="M618 331q-1 -41 -2.5 -81.5t-1.5 -81.5q0 -30 1.5 -59.5t1.5 -59.5q1 -32 -22 -57q-17 -18 -38 -24.5t-45 -4.5q-23 2 -45 4t-45 4q-125 9 -249 15q-17 2 -35 1t-36 -1h-17t-17 2q-24 5 -34 16t-12 36q-2 37 -3 73.5t-3 74.5q-2 35 -2.5 71t-2.5 72q0 2 -0.5 4.5
t-0.5 5.5l-3 210v5q-1 11 11.5 23.5t26.5 11.5q10 -1 20.5 -7.5t15.5 -18.5q2 -10 2 -15q1 -16 3 -50t4.5 -78t4 -93.5t3 -95t2 -83t0.5 -57.5q-1 -5 -1 -9.5v-9.5q1 -20 6.5 -26t23.5 -8q5 -1 9.5 -1.5t9.5 -0.5q22 0 29 7.5t6 30.5q-3 65 -6.5 129t-6.5 129
q-1 14 -0.5 26.5t2.5 26.5q3 25 29 24q21 -1 38 -15.5t22 -37.5q3 -15 5 -30.5t3 -30.5q2 -58 3.5 -115t3.5 -115q1 -33 33 -29q25 3 39 7t20.5 12.5t7 23t-1.5 39.5q-2 34 -2 67t-1 67v139t-2 139q-1 27 7.5 47t23.5 31.5t36.5 14t47.5 -5.5q53 -17 98 -39q40 -20 38 -67
q-1 -23 -1 -45.5t-1 -45.5q0 -11 -0.5 -27t-0.5 -30t0.5 -24z" />
    <glyph glyph-name="uni0449" unicode="&#x449;" horiz-adv-x="765" 
d="M282 168q0 -10 -0.5 -19t0.5 -19q1 -34 12 -45t44 -13q24 -2 26 21q0 22 -0.5 43.5t-1.5 42.5q-2 45 -3.5 88.5t-2.5 88.5q0 17 2.5 33.5t5.5 33.5q3 18 16.5 28.5t30.5 9.5q34 -2 38 -42q1 -5 1 -9.5v-9.5l-3 -138q0 -5 2 -24t4 -43t3.5 -48t1.5 -39q0 -14 12 -25.5
t27 -16.5q41 -17 41 26q-1 26 -1 50.5t-2 50.5q-1 23 -2.5 45.5t-1.5 45.5q0 17 3 33t3 33q1 42 1 84v84q1 15 1 30.5t2 31.5q6 45 50 33q15 -5 26.5 -12.5t14.5 -24.5q5 -28 8 -56t8 -57q4 -27 4 -53.5t-2 -53.5t-4 -53.5t-1 -53.5q1 -38 1.5 -74.5t2.5 -74.5
q2 -20 10.5 -35t32.5 -20q7 -1 13 -5t13 -7q34 -21 28 -60q-5 -32 -16.5 -58t-39.5 -44q-14 -9 -28 -12t-30 6q-22 13 -10 36q5 12 11.5 23.5t11.5 23.5q7 19 -11 22q-46 9 -91 17t-93 3q-71 -7 -143 6q-24 5 -49.5 3t-50.5 -5q-32 -3 -62.5 -1t-60.5 12q-15 5 -25 14
t-14 24q-3 13 -7 25.5t-5 25.5q-5 51 -8.5 100.5t-5.5 100.5q-8 133 -12 263v21t3 12.5t9.5 8t18.5 8.5q34 15 69 21.5t71 7.5q46 1 73 -24t29 -71q1 -28 1 -55.5v-54.5v-101v-61q0 -26 0.5 -54t0.5 -48z" />
    <glyph glyph-name="uni044A" unicode="&#x44a;" horiz-adv-x="641" 
d="M2 622q0 6 19 10.5t45.5 4.5t55.5 -5.5t49 -17.5q8 -5 13.5 -13.5t7.5 -16.5q4 -14 5 -28.5t3 -28.5q1 -11 2 -21t3 -21q5 -28 33 -28q14 0 26.5 0.5t26.5 0.5q44 0 85.5 -7t82.5 -25q54 -24 83 -66.5t41 -98.5q6 -29 5 -57t-5 -57q-8 -49 -43 -85.5t-83 -50.5
q-22 -6 -44 -7.5t-44 -1l-44 1t-44 -0.5q-24 -2 -48 -2t-47 -3q-22 -3 -38.5 4t-31.5 20q-5 5 -8 13.5t-3 16.5q-2 69 -5 138.5t-1 138.5q1 46 -1 91t-5 90q-2 26 -10.5 46t-37.5 28q-14 5 -28.5 15t-14.5 23zM218 232v-105q0 -11 -1 -23t12 -15q10 -3 21.5 0t22.5 8
q7 4 12 11l10 14q6 9 10.5 18.5t9.5 19.5q25 52 18.5 102.5t-27.5 100.5q-6 15 -23.5 19t-39.5 -1q-16 -5 -21 -12t-5 -27q-1 -14 -0.5 -33t0.5 -36q0 -20 1 -41z" />
    <glyph glyph-name="uni044B" unicode="&#x44b;" horiz-adv-x="649" 
d="M259 509q2 -17 1 -34t6 -32q3 -8 10 -12t15 -6t17 -3t17 -4q29 -11 50.5 -31.5t32.5 -49.5q9 -24 14 -50t7 -52q0 -44 -10.5 -89t-31 -81.5t-50.5 -60t-68 -23.5q-22 0 -50 2.5t-58.5 7.5t-61 12.5t-56.5 18.5q-23 10 -26 32q-4 27 -8 53.5t1 55.5q6 44 2 86
q-5 67 -5 134t7 134q2 11 1 23.5t-5 23.5q-5 13 -2 21.5t13 15.5q28 20 59.5 29t66.5 7q17 -1 33 -5.5t32 -10.5q23 -8 35.5 -23.5t12.5 -40.5v-14.5v-16t-0.5 -12.5zM336 209l-0.5 23t-6 51t-19.5 50.5t-41 22.5q-6 0 -10 -14.5t-6 -37.5t-2.5 -52t-0.5 -59v-57.5t-1 -46.5
v-5.5t1 -9.5t3 -9t7 -4t15.5 7t22 24t22 45.5t16.5 71.5zM475 494q0 17 -2 33.5t-2 33.5q-2 23 3.5 33.5t19.5 12.5q19 2 35 -11t18 -33q1 -6 0.5 -12t-0.5 -12l3 -348q1 -38 2.5 -76.5t3.5 -76.5q0 -50 -37 -50q-9 0 -18 3.5t-16 10.5t-11.5 16t-4.5 18q2 26 2.5 52.5
t2.5 52.5q-1 0 -1 18v47.5v67t0.5 77t1 77t0.5 66.5z" />
    <glyph glyph-name="uni044C" unicode="&#x44c;" horiz-adv-x="492" 
d="M9 118q-1 77 -2 150t-1 147q1 45 3 88.5t4 88.5q1 5 1 9t2 9q3 8 13 11.5t18 1.5q25 -5 31 -27q1 -5 1.5 -15t0 -22t-1 -22.5t-0.5 -15.5q1 -20 3.5 -31.5t9 -17.5t19 -7t32.5 1q4 1 24 0t43.5 -2t44.5 -2.5t27 -2.5q38 -5 68 -22.5t49 -50.5q41 -70 50.5 -144
t-27.5 -149q-12 -25 -33.5 -41.5t-47 -27.5t-53.5 -17.5t-53.5 -9t-45.5 -2.5h-31q-23 2 -45 5t-45 5q-61 6 -61 65q1 14 1.5 26t1.5 22zM78 312q2 -23 3 -53.5t3 -62.5l6 -81q2 -12 10 -17t17 3q14 11 27 23.5t23 26.5q29 46 29 95.5t-10 99.5q-4 20 -16 28t-32 8
q-21 0 -33 -1t-17.5 -7.5t-7 -21t-2.5 -40.5z" />
    <glyph glyph-name="uni044D" unicode="&#x44d;" horiz-adv-x="570" 
d="M267 414q2 6 -3 22t-16 33t-29 30.5t-41 15.5t-43.5 -7t-34.5 -26q-5 -6 -8 -12.5t-8 -12.5q-8 -9 -20.5 -11t-22.5 4q-23 13 -8 42q11 21 28.5 35.5t37.5 26.5q25 14 55 21.5t59 9.5t55 0t44 -6t41 -13.5t46 -22t43 -27.5t31 -29q20 -26 29 -73t8 -101t-11 -106t-28 -87
q-17 -33 -39.5 -62.5t-60.5 -42.5q-12 -4 -45 -10t-75.5 -7t-87 7t-81 32t-57.5 68t-15 115q2 14 13 15.5t16 0.5q21 0 27.5 -7.5t6.5 -19.5t-2 -27.5t2 -31.5q7 -27 18 -36t38 -11q60 -6 95 45q22 32 35 67.5t15 74.5q2 22 -5.5 30t-28.5 10q-8 0 -14.5 -0.5t-14.5 0.5
q-30 2 -48 27q-27 37 19 46q10 1 24 0.5t26.5 -0.5t22.5 2t12 9z" />
    <glyph glyph-name="uni044E" unicode="&#x44e;" horiz-adv-x="773" 
d="M74 481q0 -17 -0.5 -35t0.5 -36t8 -24.5t25 -6.5q5 0 9.5 1t9.5 1q24 0 39 10t23 36q14 45 38.5 84t63.5 68q31 23 64 37t71 19q10 1 24 1.5t28.5 -0.5t28 -3t24.5 -6q47 -17 78.5 -47.5t52 -67t31 -76t15 -76t5 -66.5t0.5 -46q-4 -35 -17.5 -74.5t-40 -75t-66.5 -63
t-96 -38.5q-55 -5 -105 8t-97 40q-34 20 -61 48t-40 68q-10 30 -18 60t-8 62q0 12 -6 17t-17 6h-10q-22 0 -35.5 -3.5t-20.5 -11.5t-8.5 -22t1.5 -36q2 -14 2.5 -28.5t2.5 -28.5q2 -27 4 -54.5t4 -54.5q1 -14 1 -26.5t-2 -25.5q-2 -9 -8.5 -14.5t-16.5 -2.5q-6 2 -11.5 7.5
t-7.5 10.5q-4 17 -6.5 35t-3.5 36q-2 49 -2.5 97.5t-2.5 98.5v4q-2 22 -3.5 39t-2 31.5t-0.5 28.5t1 30q1 38 3 74.5t5 73.5q2 20 12 36q5 9 15.5 7.5t13.5 -12.5q7 -19 7 -37q0 -9 0.5 -22.5t1 -25.5t1 -20.5zM239 312q0 -23 5.5 -47t13.5 -44.5t15.5 -35t10.5 -17.5
q19 -23 48.5 -31.5t57.5 2.5q10 3 19 12.5t16 21.5t12 25t7 22q10 41 9 82t-14 83q-11 38 -31.5 63.5t-56.5 38.5q-35 12 -54 -21q-23 -37 -40 -72.5t-18 -81.5z" />
    <glyph glyph-name="uni044F" unicode="&#x44f;" horiz-adv-x="524" 
d="M93 405q1 5 -8 9.5t-20 15t-20 30t-9 55.5q2 35 18.5 58.5t46.5 39.5q62 31 126.5 36.5t130.5 -1.5q13 -2 26 -3l26 -2q51 -2 62 -50q5 -20 8.5 -40t0.5 -40q-3 -80 -6.5 -158.5t-3.5 -157.5q1 -26 1 -50.5t-2 -50.5q0 -23 -6 -42q-10 -34 -27.5 -46.5t-52.5 -13.5
q-14 0 -26.5 0.5t-26.5 -1.5q-26 -3 -44.5 4t-31.5 20.5t-21.5 31.5t-12.5 39q-6 32 -7 64.5t-3 64.5q-2 20 -1.5 40.5t-1.5 40.5q-2 16 -11 21t-23 -3q-10 -6 -20.5 -13t-15.5 -16q-16 -29 -28.5 -58t-10.5 -64q2 -28 3 -55t3 -55q1 -8 1 -16.5v-16.5q-1 -19 -9 -29.5
t-22 -12.5t-27 5.5t-18 23.5q-8 24 -13.5 48.5t-7.5 49.5q-3 39 -2.5 79t2.5 79q3 64 51 105q8 7 19.5 15.5t13.5 19.5zM201 524q0 23 -3 33.5t-11 13.5q-7 2 -21.5 -2t-26 -15t-16 -31t7.5 -49q6 -14 25.5 -20.5t32.5 0.5q7 4 9 10q1 3 1.5 12t0.5 19.5t0.5 18.5t0.5 10z
" />
    <glyph glyph-name="uni0451" unicode="&#x451;" horiz-adv-x="519" 
d="M119 -21q-17 -1 -34 5.5t-31 18t-23.5 27.5t-10.5 33q-8 100 -10 198.5t-1 198.5q0 25 -0.5 50t-0.5 51q0 11 0.5 23t2.5 24q4 27 13 35t37 8q48 0 96 -1l96 -2q39 0 68 -31q19 -20 16.5 -40.5t-25.5 -35.5q-12 -7 -27 -9q-16 -2 -40.5 -2.5t-49.5 -0.5t-46.5 1.5
t-30.5 3.5q-33 7 -42 -5t-4 -47q3 -25 29 -28q15 -2 30.5 -2h31.5q6 0 12 1t12 1q38 3 42 -20q3 -15 -7 -28.5t-28 -15.5q-15 -2 -30.5 -0.5t-31.5 2.5q-6 1 -11.5 3t-11.5 3q-8 1 -14 -3.5t-6 -12.5q0 -39 3 -76q2 -11 9 -16.5t18 -7.5q13 -3 24 -2q46 8 91 2.5t90 -7.5
q40 -2 66 -24.5t36 -66.5q6 -27 11 -54t12 -54q10 -39 -7.5 -60.5t-49.5 -24.5q-38 -3 -76.5 -5t-76.5 -4q0 1 -13 1t-32 -0.5t-39.5 -1.5t-35.5 -2zM269 677q-14 0 -27.5 6t-24.5 15t-19 21t-10 25q-1 5 2.5 10.5t7.5 7.5q28 10 57.5 -2.5t42.5 -40.5q8 -20 1 -31t-30 -11z
M60 764q3 0 11.5 -1t18.5 -4t19.5 -9t12.5 -16q2 -7 2 -16t-3 -15q-5 -8 -15 -10.5t-19 2.5q-11 5 -20 12t-18 15q-7 5 -11 12.5t1 15.5q8 12 21 14z" />
    <glyph glyph-name="endash" unicode="&#x2013;" horiz-adv-x="406" 
d="M334 381q23 -1 33.5 -10.5t12.5 -28.5q3 -27 -22 -31q-63 -11 -126 -12.5t-127 6.5q-12 2 -24 3t-23 3q-14 3 -27.5 8.5t-21.5 18.5q-9 13 -5 25t19 16q8 2 16.5 2.5t16.5 0.5h129h56q23 0 48.5 -0.5t44.5 -0.5z" />
    <glyph glyph-name="emdash" unicode="&#x2014;" horiz-adv-x="414" 
d="M185 381q38 0 75 0.5t74 -0.5q23 -1 33.5 -10.5t12.5 -28.5q3 -27 -22 -31q-63 -11 -126 -12.5t-127 6.5q-12 2 -24 3t-23 3q-14 3 -27.5 8.5t-21.5 18.5q-9 13 -5 25t19 16q8 2 16.5 2.5t16.5 0.5h129v-1z" />
    <glyph glyph-name="quotedblleft" unicode="&#x201c;" horiz-adv-x="448" 
d="M220 476q-1 -6 -9.5 -14.5t-19 -18t-21.5 -18t-18 -14.5q-7 -5 -14 -9.5t-14 -9.5q-19 -15 -26.5 -24.5t-6 -17t10.5 -15t24 -19.5q27 -21 50.5 -46.5t46.5 -51.5q5 -5 6 -12t1 -14q-2 -18 -13 -24.5t-27 1.5q-10 5 -18.5 11t-16.5 14q-62 57 -121 115q-4 3 -6.5 7
t-5.5 8q-19 23 -19.5 41t22.5 37q33 29 68.5 55t71.5 52q9 6 19 4t18.5 -8.5t13.5 -14.5t4 -14zM348 502q6 -1 16.5 -7.5t16.5 -14.5q7 -10 2.5 -20t-12.5 -18q-20 -18 -39.5 -35t-40.5 -33q-18 -14 -19.5 -23.5t15.5 -25.5q11 -11 22.5 -21t22.5 -22q20 -22 33 -46
q2 -6 1 -15.5t-4 -15.5q-5 -9 -15 -11t-20 1q-14 5 -24 15q-32 33 -64.5 66.5t-64.5 67.5q-8 9 -7 17.5t8 16.5q5 4 9.5 7.5t9.5 7.5l62 48t63 47q5 5 14 10t15 4z" />
    <glyph glyph-name="quotedblright" unicode="&#x201d;" horiz-adv-x="417" 
d="M173 515q8 0 17.5 -5t18.5 -12q41 -31 78.5 -65t69.5 -75q9 -12 11 -24t-6 -25l-16 -24t-18 -22q-18 -20 -36.5 -38t-38.5 -35q-18 -16 -37 -22q-28 -9 -47 15q-18 21 -1 49q16 26 35.5 47.5t42.5 41.5q21 19 20.5 32.5t-21.5 33.5q-19 17 -37.5 34t-35.5 35q-8 8 -13 17
l-10 18t5.5 16.5t18.5 7.5zM104 365q1 10 -12.5 21.5t-22.5 21.5q-14 15 -31 27.5t-30 29.5q-8 11 -3.5 20.5t17.5 11.5q14 2 26.5 0t23.5 -11q29 -23 56.5 -45t55.5 -45q9 -8 18 -22q20 -29 -3 -52q-26 -27 -52 -53t-53 -52q-8 -8 -21 -10t-26 -0.5t-21 13.5q-9 13 -7 25.5
t11 23.5q14 17 27.5 33t27.5 33q5 7 12 14t7 16z" />
  </font>
</defs>
</svg>
